{
.appVersion = "1021";
DisplayStrings = (
/Hbar,
"/_stem.1 b/_stem.4 h",
"C\U00A9R\U00AE/trademark",
l,
k,
"/T_h e quick",
/integral,
"\U00AC",
"hello /_cap.stm.btm.3 mo/_bowl.1 dbr/_shoulder.1 ne y name is sora sagano",
"\U00F8"
);
date = "2013-12-03 08:09:39 +0000";
familyName = TTenderness;
featurePrefixes = (
{
automatic = 1;
code = "languagesystem DFLT dflt;\012languagesystem latn dflt;\012languagesystem latn ROM;\012languagesystem latn MOL;\012languagesystem latn KAZ;\012languagesystem latn TAT;\012languagesystem latn TRK;\012languagesystem latn CRT;\012languagesystem latn AZE;\012";
name = Languagesystems;
}
);
features = (
{
automatic = 1;
code = "feature locl;\012feature tnum;\012";
name = aalt;
},
{
automatic = 1;
code = "script latn;\012language ROM;\012sub Scedilla by Scommaaccent;\012sub scedilla by scommaaccent;\012sub Tcedilla by Tcommaaccent;\012sub tcedilla by tcommaaccent;\012language MOL;\012sub Scedilla by Scommaaccent;\012sub scedilla by scommaaccent;\012sub Tcedilla by Tcommaaccent;\012sub tcedilla by tcommaaccent;\012language KAZ;\012sub i by idotaccent;\012language TAT;\012sub i by idotaccent;\012language TRK;\012sub i by idotaccent;\012language CRT;\012sub i by idotaccent;\012language AZE;\012sub i by idotaccent;\012";
name = locl;
},
{
automatic = 1;
code = "sub zero by zero.tf;\012sub one by one.tf;\012sub two by two.tf;\012sub three by three.tf;\012sub four by four.tf;\012sub five by five.tf;\012sub six by six.tf;\012sub seven by seven.tf;\012sub eight by eight.tf;\012sub nine by nine.tf;\012sub numbersign by numbersign.tf;\012sub cent by cent.tf;\012sub dollar by dollar.tf;\012sub euro by euro.tf;\012sub sterling by sterling.tf;\012sub yen by yen.tf;\012sub percent by percent.tf;\012sub perthousand by perthousand.tf;\012";
name = tnum;
},
{
code = "sub T h by T_h;\012sub c t by c_t;\012sub f f l by f_f_l;\012sub f f i by f_f_i;\012sub f i by f_i;\012sub f l by f_l;\012sub s t by s_t;\012";
name = dlig;
},
{
code = "";
name = liga;
}
);

glyphs = (
{
glyphname = A;
lastChange = "2017-05-26 10:57:44 +0000";
layers = (
{
anchors = (
{
name = bottom;
position = "{313, 0}";
},
{
name = ogonek;
position = "{577, 0}";
},
{
name = top;
position = "{324, 650}";
}
);
hints = (
{
origin = "{1, 10}";
type = Corner;
name = _corner.STM.btm.1;
},
{
origin = "{1, 7}";
scale = "{-1, 1}";
type = Corner;
name = _corner.STM.btm.1;
options = 1;
}
);
layerId = "4A3087DE-C6CF-4F86-8B90-A264D0797279";
paths = (
{
closed = 1;
nodes = (
"171 261 LINE",
"450 261 LINE",
"436 295 LINE",
"185 295 LINE"
);
},
{
closed = 1;
nodes = (
"167 194 OFFCURVE",
"230 364 OFFCURVE",
"313 558 CURVE",
"306 558 LINE",
"371 392 OFFCURVE",
"448 191 OFFCURVE",
"518 0 CURVE",
"595 0 LINE",
"337 660 LINE",
"318 660 LINE",
"39 0 LINE",
"95 0 LINE"
);
}
);
width = 643;
}
);
leftKerningGroup = A;
rightKerningGroup = A;
unicode = 0041;
},
{
glyphname = Aogonek;
lastChange = "2017-05-25 15:40:52 +0000";
layers = (
{
components = (
{
name = A;
}
);
layerId = "4A3087DE-C6CF-4F86-8B90-A264D0797279";
paths = (
{
closed = 1;
nodes = (
"508 -202 OFFCURVE",
"483 -181 OFFCURVE",
"483 -126 CURVE SMOOTH",
"483 -82 OFFCURVE",
"512 -36 OFFCURVE",
"542 -18 CURVE SMOOTH",
"559 -8 OFFCURVE",
"574 -1 OFFCURVE",
"649 -1 CURVE",
"572 13 LINE",
"494 -7 OFFCURVE",
"427 -70 OFFCURVE",
"427 -137 CURVE SMOOTH",
"427 -198 OFFCURVE",
"468 -228 OFFCURVE",
"510 -228 CURVE SMOOTH",
"548 -228 OFFCURVE",
"571 -217 OFFCURVE",
"594 -198 CURVE",
"587 -187 LINE",
"568 -198 OFFCURVE",
"553 -202 OFFCURVE",
"536 -202 CURVE SMOOTH"
);
}
);
width = 661;
}
);
leftKerningGroup = A;
rightKerningGroup = A;
unicode = 0104;
},
{
glyphname = AE;
lastChange = "2017-05-26 11:04:30 +0000";
layers = (
{
hints = (
{
origin = "{0, 10}";
type = Corner;
name = _corner.STM.btm.1;
},
{
origin = "{1, 2}";
type = Corner;
name = _corner.STM.btm.1;
}
);
layerId = "4A3087DE-C6CF-4F86-8B90-A264D0797279";
paths = (
{
closed = 1;
nodes = (
"210 182 OFFCURVE",
"334 399 OFFCURVE",
"454 601 CURVE",
"525 650 LINE",
"483 650 OFFCURVE",
"457 650 OFFCURVE",
"425 652 CURVE",
"403 599 OFFCURVE",
"359 513 OFFCURVE",
"302 418 CURVE SMOOTH",
"52 0 LINE",
"114 0 LINE"
);
},
{
closed = 1;
nodes = (
"511 650 LINE",
"445 650 LINE",
"445 0 LINE",
"511 0 LINE"
);
},
{
closed = 1;
nodes = (
"589 34 OFFCURVE",
"551 38 OFFCURVE",
"532 53 CURVE SMOOTH",
"515 66 OFFCURVE",
"511 91 OFFCURVE",
"511 164 CURVE",
"504 0 LINE",
"631 0 LINE SMOOTH",
"675 0 OFFCURVE",
"714 1 OFFCURVE",
"764 -2 CURVE SMOOTH",
"780 -3 OFFCURVE",
"796 0 OFFCURVE",
"798 5 CURVE SMOOTH",
"813 43 OFFCURVE",
"817 73 OFFCURVE",
"821 91 CURVE",
"803 97 LINE",
"793 83 LINE SMOOTH",
"764 43 OFFCURVE",
"736 34 OFFCURVE",
"641 34 CURVE SMOOTH"
);
},
{
closed = 1;
nodes = (
"501 334 LINE",
"726 334 LINE",
"731 334 OFFCURVE",
"732 336 OFFCURVE",
"732 370 CURVE",
"703 369 OFFCURVE",
"678 368 OFFCURVE",
"646 368 CURVE SMOOTH",
"501 368 LINE"
);
},
{
closed = 1;
nodes = (
"522 615 OFFCURVE",
"546 616 OFFCURVE",
"594 616 CURVE SMOOTH",
"670 616 OFFCURVE",
"704 608 OFFCURVE",
"727 574 CURVE SMOOTH",
"740 555 LINE",
"762 561 LINE",
"759 579 OFFCURVE",
"753 611 OFFCURVE",
"739 647 CURVE SMOOTH",
"737 652 OFFCURVE",
"728 654 OFFCURVE",
"710 653 CURVE SMOOTH",
"660 650 OFFCURVE",
"621 650 OFFCURVE",
"572 650 CURVE SMOOTH",
"482 650 LINE",
"493 612 LINE"
);
},
{
closed = 1;
nodes = (
"239 261 LINE",
"478 261 LINE",
"464 295 LINE",
"253 295 LINE"
);
}
);
width = 839;
}
);
leftKerningGroup = AE;
rightKerningGroup = E;
rightMetricsKey = E;
unicode = 00C6;
},
{
glyphname = B;
lastChange = "2017-05-25 15:40:52 +0000";
layers = (
{
hints = (
{
origin = "{1, 1}";
type = Corner;
name = _corner.STM.btm.1;
},
{
origin = "{1, 0}";
scale = "{-1, 1}";
type = Corner;
name = _corner.STM.top.1;
}
);
layerId = "4A3087DE-C6CF-4F86-8B90-A264D0797279";
paths = (
{
closed = 1;
nodes = (
"135 0 LINE",
"177 0 OFFCURVE",
"213 -4 OFFCURVE",
"237 -4 CURVE SMOOTH",
"361 -4 OFFCURVE",
"493 46 OFFCURVE",
"493 183 CURVE SMOOTH",
"493 285 OFFCURVE",
"416 356 OFFCURVE",
"284 353 CURVE",
"284 346 LINE",
"355 357 OFFCURVE",
"429 414 OFFCURVE",
"429 499 CURVE SMOOTH",
"429 586 OFFCURVE",
"365 654 OFFCURVE",
"238 654 CURVE SMOOTH",
"202 654 OFFCURVE",
"171 650 OFFCURVE",
"135 650 CURVE",
"156 615 LINE",
"168 620 OFFCURVE",
"184 621 OFFCURVE",
"199 621 CURVE SMOOTH",
"316 621 OFFCURVE",
"359 563 OFFCURVE",
"359 486 CURVE SMOOTH",
"359 420 OFFCURVE",
"308 361 OFFCURVE",
"231 361 CURVE SMOOTH",
"156 361 LINE",
"156 327 LINE",
"218 327 LINE SMOOTH",
"355 327 OFFCURVE",
"418 269 OFFCURVE",
"418 171 CURVE SMOOTH",
"418 87 OFFCURVE",
"355 30 OFFCURVE",
"255 30 CURVE SMOOTH",
"226 30 OFFCURVE",
"205 34 OFFCURVE",
"187 45 CURVE SMOOTH",
"173 54 OFFCURVE",
"165 70 OFFCURVE",
"165 133 CURVE"
);
},
{
closed = 1;
nodes = (
"99 650 LINE",
"99 0 LINE",
"165 0 LINE",
"165 650 LINE"
);
}
);
width = 543;
}
);
leftKerningGroup = H;
leftMetricsKey = H;
rightKerningGroup = B;
unicode = 0042;
},
{
glyphname = C;
lastChange = "2017-05-26 10:51:04 +0000";
layers = (
{
anchors = (
{
name = bottom;
position = "{363, 0}";
},
{
name = top;
position = "{373, 650}";
}
);
layerId = "4A3087DE-C6CF-4F86-8B90-A264D0797279";
paths = (
{
closed = 1;
nodes = (
"531 63 OFFCURVE",
"460 39 OFFCURVE",
"379 39 CURVE SMOOTH",
"239 39 OFFCURVE",
"118 134 OFFCURVE",
"118 348 CURVE SMOOTH",
"118 521 OFFCURVE",
"233 623 OFFCURVE",
"358 623 CURVE",
"408 670 LINE",
"204 670 OFFCURVE",
"48 520 OFFCURVE",
"48 304 CURVE SMOOTH",
"48 98 OFFCURVE",
"191 -14 OFFCURVE",
"348 -14 CURVE SMOOTH",
"448 -14 OFFCURVE",
"522 15 OFFCURVE",
"592 67 CURVE SMOOTH",
"600 73 OFFCURVE",
"605 78 OFFCURVE",
"605 86 CURVE SMOOTH",
"605 93 OFFCURVE",
"604 98 OFFCURVE",
"596 114 CURVE"
);
},
{
closed = 1;
nodes = (
"461 623 OFFCURVE",
"548 566 OFFCURVE",
"584 463 CURVE",
"602 466 LINE",
"602 521 OFFCURVE",
"601 537 OFFCURVE",
"595 563 CURVE SMOOTH",
"582 621 OFFCURVE",
"505 670 OFFCURVE",
"408 670 CURVE",
"358 623 LINE"
);
}
);
width = 647;
}
);
leftKerningGroup = O;
leftMetricsKey = O;
rightKerningGroup = C;
unicode = 0043;
},
{
glyphname = D;
lastChange = "2017-05-25 15:40:52 +0000";
layers = (
{
anchors = (
{
name = bottom;
position = "{358, 0}";
},
{
name = center;
position = "{130, 339}";
},
{
name = top;
position = "{340, 650}";
}
);
hints = (
{
origin = "{1, 3}";
type = Corner;
name = _corner.STM.btm.1;
},
{
origin = "{1, 2}";
scale = "{-1, 1}";
type = Corner;
name = _corner.STM.top.1;
}
);
layerId = "4A3087DE-C6CF-4F86-8B90-A264D0797279";
paths = (
{
closed = 1;
nodes = (
"146 0 LINE",
"225 0 OFFCURVE",
"259 -4 OFFCURVE",
"306 -4 CURVE SMOOTH",
"524 -4 OFFCURVE",
"658 162 OFFCURVE",
"658 369 CURVE SMOOTH",
"658 566 OFFCURVE",
"522 654 OFFCURVE",
"302 654 CURVE SMOOTH",
"267 654 OFFCURVE",
"184 650 OFFCURVE",
"136 650 CURVE",
"156 616 LINE",
"180 619 OFFCURVE",
"206 620 OFFCURVE",
"239 620 CURVE SMOOTH",
"455 620 OFFCURVE",
"586 530 OFFCURVE",
"586 328 CURVE SMOOTH",
"586 149 OFFCURVE",
"473 30 OFFCURVE",
"306 30 CURVE SMOOTH",
"264 30 OFFCURVE",
"235 33 OFFCURVE",
"208 47 CURVE SMOOTH",
"179 62 OFFCURVE",
"165 79 OFFCURVE",
"165 165 CURVE"
);
},
{
closed = 1;
nodes = (
"165 0 LINE",
"165 650 LINE",
"99 650 LINE",
"99 0 LINE"
);
}
);
width = 706;
}
);
leftKerningGroup = H;
leftMetricsKey = H;
rightKerningGroup = O;
rightMetricsKey = O;
unicode = 0044;
},
{
glyphname = E;
lastChange = "2017-05-26 10:57:44 +0000";
layers = (
{
anchors = (
{
name = bottom;
position = "{251, 0}";
},
{
name = ogonek;
position = "{469, -1}";
},
{
name = top;
position = "{251, 650}";
},
{
name = topleft;
position = "{28, 650}";
}
);
hints = (
{
origin = "{0, 1}";
scale = "{-1, 1}";
type = Corner;
name = _corner.STM.top.1;
},
{
origin = "{0, 2}";
type = Corner;
name = _corner.STM.btm.1;
}
);
layerId = "4A3087DE-C6CF-4F86-8B90-A264D0797279";
paths = (
{
closed = 1;
nodes = (
"165 650 LINE",
"99 650 LINE",
"99 0 LINE",
"165 0 LINE"
);
},
{
closed = 1;
nodes = (
"243 34 OFFCURVE",
"205 38 OFFCURVE",
"186 53 CURVE SMOOTH",
"169 66 OFFCURVE",
"165 91 OFFCURVE",
"165 164 CURVE",
"158 0 LINE",
"285 0 LINE SMOOTH",
"329 0 OFFCURVE",
"368 0 OFFCURVE",
"418 -2 CURVE SMOOTH",
"434 -3 OFFCURVE",
"450 0 OFFCURVE",
"452 5 CURVE SMOOTH",
"463 44 OFFCURVE",
"471 73 OFFCURVE",
"475 91 CURVE",
"457 97 LINE",
"447 83 LINE SMOOTH",
"418 43 OFFCURVE",
"390 34 OFFCURVE",
"295 34 CURVE SMOOTH"
);
},
{
closed = 1;
nodes = (
"155 334 LINE",
"380 334 LINE",
"385 334 OFFCURVE",
"386 336 OFFCURVE",
"386 370 CURVE",
"357 369 OFFCURVE",
"332 368 OFFCURVE",
"300 368 CURVE SMOOTH",
"155 368 LINE"
);
},
{
closed = 1;
nodes = (
"176 615 OFFCURVE",
"200 616 OFFCURVE",
"248 616 CURVE SMOOTH",
"324 616 OFFCURVE",
"358 608 OFFCURVE",
"381 574 CURVE SMOOTH",
"394 555 LINE",
"416 561 LINE",
"413 579 OFFCURVE",
"405 610 OFFCURVE",
"393 647 CURVE SMOOTH",
"391 652 OFFCURVE",
"382 654 OFFCURVE",
"364 653 CURVE SMOOTH",
"314 650 OFFCURVE",
"275 650 OFFCURVE",
"226 650 CURVE SMOOTH",
"136 650 LINE",
"147 612 LINE"
);
}
);
width = 493;
}
);
leftKerningGroup = H;
leftMetricsKey = H;
rightKerningGroup = E;
unicode = 0045;
},
{
glyphname = Eogonek;
lastChange = "2017-05-25 15:40:52 +0000";
layers = (
{
anchors = (
{
name = _ogonek;
position = "{465, -1}";
}
);
components = (
{
name = E;
}
);
layerId = "4A3087DE-C6CF-4F86-8B90-A264D0797279";
paths = (
{
closed = 1;
nodes = (
"378 -203 OFFCURVE",
"353 -182 OFFCURVE",
"353 -127 CURVE SMOOTH",
"353 -71 OFFCURVE",
"389 -32 OFFCURVE",
"443 0 CURVE SMOOTH",
"446 2 OFFCURVE",
"447 3 OFFCURVE",
"448 5 CURVE",
"442 16 LINE",
"364 -8 OFFCURVE",
"297 -71 OFFCURVE",
"297 -138 CURVE SMOOTH",
"297 -199 OFFCURVE",
"338 -229 OFFCURVE",
"380 -229 CURVE SMOOTH",
"418 -229 OFFCURVE",
"441 -218 OFFCURVE",
"464 -199 CURVE",
"457 -188 LINE",
"438 -199 OFFCURVE",
"423 -203 OFFCURVE",
"406 -203 CURVE SMOOTH"
);
}
);
width = 489;
}
);
leftKerningGroup = H;
rightKerningGroup = E;
unicode = 0118;
},
{
glyphname = F;
lastChange = "2017-05-25 15:40:52 +0000";
layers = (
{
hints = (
{
origin = "{0, 2}";
type = Corner;
name = _corner.STM.btm.1;
},
{
origin = "{0, 1}";
scale = "{-1, 1}";
type = Corner;
name = _corner.STM.top.1;
},
{
origin = "{0, 3}";
scale = "{-1, 1}";
type = Corner;
name = _corner.STM.btm.1;
}
);
layerId = "4A3087DE-C6CF-4F86-8B90-A264D0797279";
paths = (
{
closed = 1;
nodes = (
"165 650 LINE",
"99 650 LINE",
"99 0 LINE",
"165 0 LINE"
);
},
{
closed = 1;
nodes = (
"155 334 LINE",
"395 334 LINE SMOOTH",
"400 334 OFFCURVE",
"401 336 OFFCURVE",
"401 370 CURVE",
"372 369 OFFCURVE",
"347 368 OFFCURVE",
"315 368 CURVE SMOOTH",
"155 368 LINE"
);
},
{
closed = 1;
nodes = (
"176 615 OFFCURVE",
"200 616 OFFCURVE",
"265 616 CURVE SMOOTH",
"341 616 OFFCURVE",
"375 608 OFFCURVE",
"398 574 CURVE SMOOTH",
"411 555 LINE",
"433 561 LINE",
"430 579 OFFCURVE",
"422 610 OFFCURVE",
"410 647 CURVE SMOOTH",
"408 652 OFFCURVE",
"399 654 OFFCURVE",
"381 653 CURVE SMOOTH",
"331 650 OFFCURVE",
"292 650 OFFCURVE",
"243 650 CURVE SMOOTH",
"136 650 LINE",
"147 612 LINE"
);
}
);
width = 452;
}
);
leftKerningGroup = H;
leftMetricsKey = H;
rightKerningGroup = F;
unicode = 0046;
},
{
glyphname = G;
lastChange = "2017-05-26 10:49:44 +0000";
layers = (
{
anchors = (
{
name = bottom;
position = "{388, 0}";
},
{
name = top;
position = "{378, 650}";
}
);
layerId = "4A3087DE-C6CF-4F86-8B90-A264D0797279";
paths = (
{
closed = 1;
nodes = (
"518 240 OFFCURVE",
"526 219 CURVE SMOOTH",
"535 195 OFFCURVE",
"537 137 OFFCURVE",
"536 33 CURVE",
"602 36 LINE",
"596 114 OFFCURVE",
"596 200 OFFCURVE",
"601 269 CURVE",
"537 267 OFFCURVE",
"517 267 OFFCURVE",
"442 270 CURVE",
"442 246 LINE",
"485 246 OFFCURVE"
);
},
{
closed = 1;
nodes = (
"505 37 OFFCURVE",
"457 26 OFFCURVE",
"387 26 CURVE",
"358 -14 LINE",
"465 -14 OFFCURVE",
"526 5 OFFCURVE",
"602 36 CURVE",
"563 70 LINE"
);
},
{
closed = 1;
nodes = (
"387 26 LINE",
"247 26 OFFCURVE",
"122 145 OFFCURVE",
"122 348 CURVE SMOOTH",
"122 521 OFFCURVE",
"233 623 OFFCURVE",
"358 623 CURVE",
"408 670 LINE",
"204 670 OFFCURVE",
"48 531 OFFCURVE",
"48 304 CURVE SMOOTH",
"48 98 OFFCURVE",
"185 -14 OFFCURVE",
"358 -14 CURVE"
);
},
{
closed = 1;
nodes = (
"461 623 OFFCURVE",
"548 566 OFFCURVE",
"584 463 CURVE",
"602 466 LINE",
"602 521 OFFCURVE",
"601 537 OFFCURVE",
"595 563 CURVE SMOOTH",
"582 621 OFFCURVE",
"505 670 OFFCURVE",
"408 670 CURVE",
"358 623 LINE"
);
}
);
width = 668;
}
);
leftKerningGroup = O;
leftMetricsKey = O;
rightKerningGroup = G;
unicode = 0047;
},
{
glyphname = H;
lastChange = "2017-05-25 15:40:52 +0000";
layers = (
{
hints = (
{
origin = "{1, 2}";
type = Corner;
name = _corner.STM.btm.1;
},
{
origin = "{1, 3}";
scale = "{-1, 1}";
type = Corner;
name = _corner.STM.btm.1;
},
{
origin = "{1, 1}";
scale = "{-1, 1}";
type = Corner;
name = _corner.STM.top.1;
},
{
origin = "{1, 0}";
type = Corner;
name = _corner.STM.top.1;
},
{
origin = "{2, 0}";
type = Corner;
name = _corner.STM.top.1;
},
{
origin = "{2, 1}";
scale = "{-1, 1}";
type = Corner;
name = _corner.STM.top.1;
},
{
origin = "{2, 3}";
scale = "{-1, 1}";
type = Corner;
name = _corner.STM.btm.1;
},
{
origin = "{2, 2}";
type = Corner;
name = _corner.STM.btm.1;
}
);
layerId = "4A3087DE-C6CF-4F86-8B90-A264D0797279";
paths = (
{
closed = 1;
nodes = (
"155 335 LINE",
"559 335 LINE",
"559 369 LINE",
"155 369 LINE"
);
},
{
closed = 1;
nodes = (
"165 650 LINE",
"99 650 LINE",
"99 0 LINE",
"165 0 LINE"
);
},
{
closed = 1;
nodes = (
"615 650 LINE",
"549 650 LINE",
"549 0 LINE",
"615 0 LINE"
);
}
);
width = 714;
}
);
leftKerningGroup = H;
rightKerningGroup = H;
unicode = 0048;
},
{
glyphname = Hbar;
lastChange = "2017-05-25 15:41:14 +0000";
layers = (
{
components = (
{
name = H;
transform = "{1, 0, 0, 1, 12, 0}";
}
);
layerId = "4A3087DE-C6CF-4F86-8B90-A264D0797279";
paths = (
{
closed = 1;
nodes = (
"79 483 OFFCURVE",
"102 483 OFFCURVE",
"122 483 CURVE SMOOTH",
"672 483 LINE SMOOTH",
"675 483 OFFCURVE",
"679 486 OFFCURVE",
"679 515 CURVE",
"652 513 OFFCURVE",
"629 513 OFFCURVE",
"609 513 CURVE SMOOTH",
"59 513 LINE SMOOTH",
"56 513 OFFCURVE",
"52 507 OFFCURVE",
"52 481 CURVE"
);
}
);
width = 731;
}
);
unicode = 0126;
},
{
glyphname = I;
lastChange = "2017-05-26 10:57:44 +0000";
layers = (
{
anchors = (
{
name = bottom;
position = "{132, 0}";
},
{
name = ogonek;
position = "{175, 0}";
},
{
name = top;
position = "{132, 650}";
},
{
name = topleft;
position = "{28, 650}";
}
);
hints = (
{
origin = "{0, 2}";
type = Corner;
name = _corner.STM.btm.1;
},
{
origin = "{0, 3}";
scale = "{-1, 1}";
type = Corner;
name = _corner.STM.btm.1;
},
{
origin = "{0, 0}";
type = Corner;
name = _corner.STM.top.1;
},
{
origin = "{0, 1}";
scale = "{-1, 1}";
type = Corner;
name = _corner.STM.top.1;
}
);
layerId = "4A3087DE-C6CF-4F86-8B90-A264D0797279";
paths = (
{
closed = 1;
nodes = (
"165 650 LINE",
"99 650 LINE",
"99 0 LINE",
"165 0 LINE"
);
}
);
width = 264;
}
);
leftKerningGroup = H;
leftMetricsKey = H;
rightKerningGroup = H;
rightMetricsKey = H;
unicode = 0049;
},
{
glyphname = J;
lastChange = "2017-05-26 10:52:38 +0000";
layers = (
{
hints = (
{
origin = "{0, 10}";
scale = "{-1, 1}";
type = Corner;
name = _corner.STM.top.1;
},
{
origin = "{0, 9}";
type = Corner;
name = _corner.STM.top.1;
}
);
layerId = "4A3087DE-C6CF-4F86-8B90-A264D0797279";
paths = (
{
closed = 1;
nodes = (
"62 -154 OFFCURVE",
"121 -101 OFFCURVE",
"142 -60 CURVE SMOOTH",
"171 -5 OFFCURVE",
"175 47 OFFCURVE",
"174 144 CURVE SMOOTH",
"173 220 OFFCURVE",
"173 269 OFFCURVE",
"173 311 CURVE SMOOTH",
"173 650 LINE",
"107 650 LINE",
"107 214 LINE SMOOTH",
"107 -45 OFFCURVE",
"77 -123 OFFCURVE",
"-37 -164 CURVE",
"-28 -185 OFFCURVE",
"-24 -186 OFFCURVE",
"-21 -185 CURVE SMOOTH"
);
}
);
width = 266;
}
);
leftKerningGroup = J;
rightKerningGroup = J;
rightMetricsKey = "=H-5";
unicode = 004A;
},
{
glyphname = K;
lastChange = "2017-05-26 11:00:45 +0000";
layers = (
{
anchors = (
{
name = bottom;
position = "{318, 0}";
},
{
name = top;
position = "{318, 650}";
}
);
hints = (
{
origin = "{1, 0}";
type = Corner;
name = _corner.STM.top.1;
},
{
origin = "{1, 1}";
scale = "{-1, 1}";
type = Corner;
name = _corner.STM.top.1;
},
{
origin = "{1, 2}";
type = Corner;
name = _corner.STM.btm.1;
},
{
origin = "{1, 3}";
scale = "{-1, 1}";
type = Corner;
name = _corner.STM.btm.1;
}
);
layerId = "4A3087DE-C6CF-4F86-8B90-A264D0797279";
paths = (
{
closed = 1;
nodes = (
"507 656 LINE SMOOTH",
"503 657 OFFCURVE",
"493 652 OFFCURVE",
"483 642 CURVE SMOOTH",
"385 542 OFFCURVE",
"299 458 OFFCURVE",
"192 354 CURVE",
"191 335 LINE",
"197 333 OFFCURVE",
"203 329 OFFCURVE",
"207 325 CURVE SMOOTH",
"300 232 OFFCURVE",
"381 148 OFFCURVE",
"468 53 CURVE SMOOTH",
"511 6 OFFCURVE",
"521 -3 OFFCURVE",
"542 -3 CURVE SMOOTH",
"569 -3 OFFCURVE",
"593 0 OFFCURVE",
"644 0 CURVE",
"646 24 LINE",
"622 24 OFFCURVE",
"598 33 OFFCURVE",
"579 51 CURVE SMOOTH",
"466 156 OFFCURVE",
"401 224 OFFCURVE",
"250 391 CURVE",
"225 334 LINE",
"289 405 OFFCURVE",
"356 470 OFFCURVE",
"433 536 CURVE SMOOTH",
"485 581 OFFCURVE",
"531 610 OFFCURVE",
"578 623 CURVE",
"581 645 LINE"
);
},
{
closed = 1;
nodes = (
"165 650 LINE",
"99 650 LINE",
"99 0 LINE",
"165 0 LINE"
);
}
);
width = 638;
}
);
leftKerningGroup = H;
leftMetricsKey = H;
rightKerningGroup = K;
unicode = 004B;
},
{
glyphname = L;
lastChange = "2017-05-25 15:40:52 +0000";
layers = (
{
anchors = (
{
name = bottom;
position = "{246, 0}";
},
{
name = center;
position = "{132, 325}";
},
{
name = top;
position = "{132, 650}";
},
{
name = topright;
position = "{467, 650}";
}
);
hints = (
{
origin = "{0, 2}";
type = Corner;
name = _corner.STM.btm.1;
},
{
origin = "{0, 1}";
scale = "{-1, 1}";
type = Corner;
name = _corner.STM.top.1;
},
{
origin = "{0, 0}";
type = Corner;
name = _corner.STM.top.1;
}
);
layerId = "4A3087DE-C6CF-4F86-8B90-A264D0797279";
paths = (
{
closed = 1;
nodes = (
"161 650 LINE",
"99 650 LINE",
"99 0 LINE",
"161 0 LINE"
);
},
{
closed = 1;
nodes = (
"239 34 OFFCURVE",
"201 38 OFFCURVE",
"182 53 CURVE SMOOTH",
"165 66 OFFCURVE",
"161 91 OFFCURVE",
"161 164 CURVE",
"154 0 LINE",
"281 0 LINE SMOOTH",
"325 0 OFFCURVE",
"364 0 OFFCURVE",
"414 -2 CURVE SMOOTH",
"430 -3 OFFCURVE",
"446 0 OFFCURVE",
"448 5 CURVE SMOOTH",
"459 44 OFFCURVE",
"467 73 OFFCURVE",
"471 91 CURVE",
"453 97 LINE",
"443 83 LINE SMOOTH",
"414 43 OFFCURVE",
"386 34 OFFCURVE",
"291 34 CURVE SMOOTH"
);
}
);
width = 487;
}
);
leftKerningGroup = H;
leftMetricsKey = H;
rightKerningGroup = L;
unicode = 004C;
},
{
glyphname = M;
lastChange = "2017-05-26 11:00:18 +0000";
layers = (
{
hints = (
{
origin = "{0, 11}";
type = Corner;
name = _corner.STM.btm.1;
},
{
origin = "{0, 12}";
scale = "{-1, 1}";
type = Corner;
name = _corner.STM.btm.1;
options = 1;
},
{
origin = "{0, 30}";
scale = "{-1, 1}";
type = Corner;
name = _corner.STM.btm.1;
options = 1;
},
{
origin = "{0, 29}";
type = Corner;
name = _corner.STM.btm.1;
}
);
layerId = "4A3087DE-C6CF-4F86-8B90-A264D0797279";
paths = (
{
closed = 1;
nodes = (
"626 514 OFFCURVE",
"521 314 OFFCURVE",
"408 109 CURVE",
"448 122 LINE",
"375 267 OFFCURVE",
"273 478 OFFCURVE",
"193 650 CURVE",
"172 650 LINE",
"159 549 OFFCURVE",
"143 449 OFFCURVE",
"127 348 CURVE SMOOTH",
"71 0 LINE",
"115 0 LINE",
"167 337 LINE SMOOTH",
"179 417 OFFCURVE",
"195 500 OFFCURVE",
"211 555 CURVE",
"166 533 LINE",
"259 358 OFFCURVE",
"321 227 OFFCURVE",
"404 38 CURVE",
"422 38 LINE",
"527 253 OFFCURVE",
"604 396 OFFCURVE",
"689 541 CURVE",
"646 524 LINE",
"657 485 OFFCURVE",
"669 425 OFFCURVE",
"678 362 CURVE SMOOTH",
"731 0 LINE",
"802 0 LINE",
"746 374 LINE SMOOTH",
"731 474 OFFCURVE",
"723 558 OFFCURVE",
"714 650 CURVE",
"693 650 LINE"
);
}
);
width = 877;
},
{
associatedMasterId = "4A3087DE-C6CF-4F86-8B90-A264D0797279";
hints = (
{
origin = "{0, 21}";
type = Corner;
name = _corner.STM.btm.1;
},
{
origin = "{0, 22}";
scale = "{-1, 1}";
type = Corner;
name = _corner.STM.btm.1;
},
{
origin = "{0, 34}";
scale = "{-1, 1}";
type = Corner;
name = _corner.STM.btm.1;
options = 1;
},
{
origin = "{0, 33}";
type = Corner;
name = _corner.STM.btm.1;
}
);
layerId = "DA6E3B65-83E7-4ECA-9A0A-4D60AB69C486";
name = "May 21 17, 00:43";
paths = (
{
closed = 1;
nodes = (
"667 593 OFFCURVE",
"650 552 OFFCURVE",
"627 505 CURVE SMOOTH",
"546 341 OFFCURVE",
"489 229 OFFCURVE",
"413 89 CURVE",
"446 102 LINE",
"362 251 OFFCURVE",
"292 383 OFFCURVE",
"211 547 CURVE SMOOTH",
"173 624 OFFCURVE",
"162 648 OFFCURVE",
"149 655 CURVE",
"66 647 LINE",
"63 623 LINE",
"72 624 OFFCURVE",
"76 624 OFFCURVE",
"80 624 CURVE SMOOTH",
"105 624 OFFCURVE",
"114 579 OFFCURVE",
"112 518 CURVE SMOOTH",
"93 0 LINE",
"132 0 LINE",
"150 555 LINE",
"128 545 LINE",
"255 322 OFFCURVE",
"326 185 OFFCURVE",
"406 18 CURVE",
"424 18 LINE",
"529 238 OFFCURVE",
"623 417 OFFCURVE",
"703 567 CURVE",
"690 577 LINE",
"715 0 LINE",
"782 0 LINE",
"764 439 LINE SMOOTH",
"757 612 OFFCURVE",
"760 619 OFFCURVE",
"770 624 CURVE SMOOTH",
"774 626 OFFCURVE",
"782 627 OFFCURVE",
"791 627 CURVE",
"790 651 LINE",
"758 650 OFFCURVE",
"722 649 OFFCURVE",
"688 649 CURVE"
);
}
);
width = 871;
}
);
leftKerningGroup = M;
rightKerningGroup = M;
unicode = 004D;
},
{
glyphname = N;
lastChange = "2017-05-26 10:57:44 +0000";
layers = (
{
anchors = (
{
name = bottom;
position = "{344, 0}";
},
{
name = top;
position = "{344, 650}";
}
);
hints = (
{
origin = "{0, 23}";
type = Corner;
name = _corner.STM.btm.1;
},
{
origin = "{0, 4}";
type = Corner;
name = _corner.STM.top.1;
},
{
origin = "{0, 5}";
scale = "{-1, 1}";
type = Corner;
name = _corner.STM.top.1;
},
{
origin = "{0, 24}";
scale = "{-1, 1}";
type = Corner;
name = _corner.STM.btm.1;
options = 1;
}
);
layerId = "4A3087DE-C6CF-4F86-8B90-A264D0797279";
paths = (
{
closed = 1;
nodes = (
"610 -11 LINE",
"608 89 OFFCURVE",
"607 261 OFFCURVE",
"607 332 CURVE SMOOTH",
"607 650 LINE",
"567 650 LINE",
"567 302 LINE SMOOTH",
"567 235 OFFCURVE",
"567 183 OFFCURVE",
"570 93 CURVE",
"592 111 LINE",
"269 499 LINE SMOOTH",
"169 619 OFFCURVE",
"148 638 OFFCURVE",
"120 650 CURVE",
"40 647 LINE",
"41 623 LINE",
"50 624 OFFCURVE",
"55 624 OFFCURVE",
"60 624 CURVE SMOOTH",
"78 624 OFFCURVE",
"106 602 OFFCURVE",
"106 482 CURVE SMOOTH",
"106 0 LINE",
"146 0 LINE",
"146 347 LINE SMOOTH",
"146 465 OFFCURVE",
"146 532 OFFCURVE",
"142 582 CURVE",
"127 544 LINE",
"261 399 OFFCURVE",
"433 191 OFFCURVE",
"597 -12 CURVE"
);
}
);
width = 700;
}
);
leftKerningGroup = H;
rightKerningGroup = H;
rightMetricsKey = "=H-5";
unicode = 004E;
},
{
glyphname = Eng;
lastChange = "2017-05-25 15:40:52 +0000";
layers = (
{
anchors = (
{
name = top;
position = "{344, 650}";
}
);
hints = (
{
origin = "{1, 2}";
type = Corner;
name = _corner.STM.top.1;
},
{
origin = "{1, 3}";
scale = "{-1, 1}";
type = Corner;
name = _corner.STM.top.1;
},
{
origin = "{1, 19}";
type = Corner;
name = _corner.STM.btm.1;
},
{
origin = "{1, 20}";
scale = "{-1, 1}";
type = Corner;
name = _corner.STM.btm.1;
options = 1;
}
);
layerId = "4A3087DE-C6CF-4F86-8B90-A264D0797279";
paths = (
{
closed = 1;
nodes = (
"430 -173 LINE",
"430 -227 OFFCURVE",
"440 -235 OFFCURVE",
"469 -235 CURVE SMOOTH",
"572 -235 OFFCURVE",
"607 -173 OFFCURVE",
"607 -81 CURVE SMOOTH",
"607 255 LINE",
"567 303 LINE",
"567 34 LINE SMOOTH",
"567 -158 OFFCURVE",
"560 -189 OFFCURVE",
"495 -189 CURVE SMOOTH",
"474 -189 OFFCURVE",
"451 -182 OFFCURVE",
"439 -171 CURVE"
);
},
{
closed = 1;
nodes = (
"607 -11 LINE",
"607 255 LINE",
"607 650 LINE",
"567 650 LINE",
"567 336 LINE",
"570 93 LINE",
"592 111 LINE",
"269 499 LINE SMOOTH",
"169 619 OFFCURVE",
"148 638 OFFCURVE",
"120 650 CURVE",
"40 647 LINE",
"41 623 LINE",
"50 624 OFFCURVE",
"55 624 OFFCURVE",
"60 624 CURVE SMOOTH",
"78 624 OFFCURVE",
"106 602 OFFCURVE",
"106 482 CURVE SMOOTH",
"106 0 LINE",
"146 0 LINE",
"146 347 LINE SMOOTH",
"146 465 OFFCURVE",
"146 532 OFFCURVE",
"142 582 CURVE",
"127 544 LINE",
"261 399 OFFCURVE",
"433 191 OFFCURVE",
"597 -12 CURVE"
);
}
);
width = 700;
}
);
leftKerningGroup = Eng;
leftMetricsKey = N;
rightKerningGroup = Eng;
rightMetricsKey = N;
unicode = 014A;
},
{
glyphname = O;
lastChange = "2017-05-26 10:59:35 +0000";
layers = (
{
anchors = (
{
name = bottom;
position = "{374, 0}";
},
{
name = center;
position = "{374, 325}";
},
{
name = ogonek;
position = "{673, 10}";
},
{
name = top;
position = "{374, 650}";
},
{
name = topleft;
position = "{20, 650}";
},
{
name = topright;
position = "{728, 650}";
}
);
layerId = "4A3087DE-C6CF-4F86-8B90-A264D0797279";
paths = (
{
closed = 1;
nodes = (
"181 670 OFFCURVE",
"48 529 OFFCURVE",
"48 324 CURVE SMOOTH",
"48 126 OFFCURVE",
"173 -14 OFFCURVE",
"370 -14 CURVE SMOOTH",
"568 -14 OFFCURVE",
"700 127 OFFCURVE",
"700 330 CURVE SMOOTH",
"700 534 OFFCURVE",
"567 670 OFFCURVE",
"376 670 CURVE SMOOTH"
);
},
{
closed = 1;
nodes = (
"223 23 OFFCURVE",
"124 163 OFFCURVE",
"124 343 CURVE SMOOTH",
"124 499 OFFCURVE",
"199 632 OFFCURVE",
"359 632 CURVE SMOOTH",
"523 632 OFFCURVE",
"624 493 OFFCURVE",
"624 313 CURVE SMOOTH",
"624 157 OFFCURVE",
"548 23 OFFCURVE",
"387 23 CURVE SMOOTH"
);
}
);
width = 748;
}
);
leftKerningGroup = O;
rightKerningGroup = O;
unicode = 004F;
},
{
glyphname = Oslash;
lastChange = "2017-05-25 15:40:52 +0000";
layers = (
{
components = (
{
name = O;
}
);
layerId = "4A3087DE-C6CF-4F86-8B90-A264D0797279";
paths = (
{
closed = 1;
nodes = (
"585 691 LINE",
"173 51 LINE SMOOTH",
"156 24 OFFCURVE",
"141 4 OFFCURVE",
"121 -21 CURVE",
"161 -35 LINE",
"571 601 LINE SMOOTH",
"588 628 OFFCURVE",
"611 652 OFFCURVE",
"631 677 CURVE"
);
}
);
width = 748;
}
);
leftKerningGroup = O;
rightKerningGroup = O;
unicode = 00D8;
},
{
glyphname = OE;
lastChange = "2017-05-25 15:40:52 +0000";
layers = (
{
layerId = "4A3087DE-C6CF-4F86-8B90-A264D0797279";
paths = (
{
closed = 1;
nodes = (
"559 37 OFFCURVE",
"527 28 OFFCURVE",
"402 28 CURVE SMOOTH",
"211 28 OFFCURVE",
"126 162 OFFCURVE",
"126 338 CURVE SMOOTH",
"126 498 OFFCURVE",
"201 624 OFFCURVE",
"402 624 CURVE SMOOTH",
"547 624 OFFCURVE",
"559 616 OFFCURVE",
"559 559 CURVE",
"599 650 LINE",
"514 650 OFFCURVE",
"460 658 OFFCURVE",
"412 658 CURVE SMOOTH",
"179 658 OFFCURVE",
"48 529 OFFCURVE",
"48 323 CURVE SMOOTH",
"48 123 OFFCURVE",
"179 -6 OFFCURVE",
"392 -6 CURVE SMOOTH",
"458 -6 OFFCURVE",
"514 0 OFFCURVE",
"593 0 CURVE",
"559 94 LINE"
);
},
{
closed = 1;
nodes = (
"625 650 LINE",
"559 650 LINE",
"559 0 LINE",
"625 0 LINE"
);
},
{
closed = 1;
nodes = (
"703 34 OFFCURVE",
"665 38 OFFCURVE",
"646 53 CURVE SMOOTH",
"629 66 OFFCURVE",
"625 91 OFFCURVE",
"625 164 CURVE",
"618 0 LINE",
"745 0 LINE SMOOTH",
"789 0 OFFCURVE",
"828 1 OFFCURVE",
"878 -2 CURVE SMOOTH",
"894 -3 OFFCURVE",
"910 0 OFFCURVE",
"912 5 CURVE SMOOTH",
"927 43 OFFCURVE",
"931 73 OFFCURVE",
"935 91 CURVE",
"917 97 LINE",
"907 83 LINE SMOOTH",
"878 43 OFFCURVE",
"850 34 OFFCURVE",
"755 34 CURVE SMOOTH"
);
},
{
closed = 1;
nodes = (
"615 334 LINE",
"840 334 LINE",
"845 334 OFFCURVE",
"846 336 OFFCURVE",
"846 370 CURVE",
"817 369 OFFCURVE",
"792 368 OFFCURVE",
"760 368 CURVE SMOOTH",
"615 368 LINE"
);
},
{
closed = 1;
nodes = (
"636 615 OFFCURVE",
"660 616 OFFCURVE",
"708 616 CURVE SMOOTH",
"784 616 OFFCURVE",
"818 608 OFFCURVE",
"841 574 CURVE SMOOTH",
"854 555 LINE",
"876 561 LINE",
"873 579 OFFCURVE",
"867 611 OFFCURVE",
"853 647 CURVE SMOOTH",
"851 652 OFFCURVE",
"842 654 OFFCURVE",
"824 653 CURVE SMOOTH",
"774 650 OFFCURVE",
"735 650 OFFCURVE",
"686 650 CURVE SMOOTH",
"596 650 LINE",
"607 612 LINE"
);
}
);
width = 953;
}
);
leftKerningGroup = O;
leftMetricsKey = O;
rightKerningGroup = E;
rightMetricsKey = E;
unicode = 0152;
},
{
glyphname = P;
lastChange = "2017-05-26 10:57:44 +0000";
layers = (
{
hints = (
{
origin = "{1, 1}";
type = Corner;
name = _corner.STM.btm.1;
},
{
origin = "{1, 2}";
scale = "{-1, 1}";
type = Corner;
name = _corner.STM.btm.1;
},
{
origin = "{1, 0}";
scale = "{-1, 1}";
type = Corner;
name = _corner.STM.top.1;
}
);
layerId = "4A3087DE-C6CF-4F86-8B90-A264D0797279";
paths = (
{
closed = 1;
nodes = (
"346 301 OFFCURVE",
"451 376 OFFCURVE",
"451 492 CURVE SMOOTH",
"451 595 OFFCURVE",
"371 654 OFFCURVE",
"263 654 CURVE SMOOTH",
"227 654 OFFCURVE",
"162 650 OFFCURVE",
"126 650 CURVE",
"147 615 LINE",
"164 617 OFFCURVE",
"208 618 OFFCURVE",
"230 618 CURVE SMOOTH",
"307 618 OFFCURVE",
"378 571 OFFCURVE",
"378 472 CURVE SMOOTH",
"378 377 OFFCURVE",
"317 342 OFFCURVE",
"246 342 CURVE SMOOTH",
"235 342 OFFCURVE",
"220 344 OFFCURVE",
"206 349 CURVE",
"206 319 OFFCURVE",
"211 309 OFFCURVE",
"225 308 CURVE SMOOTH"
);
},
{
closed = 1;
nodes = (
"99 650 LINE",
"99 0 LINE",
"165 0 LINE",
"165 650 LINE"
);
}
);
width = 486;
}
);
leftKerningGroup = H;
leftMetricsKey = H;
rightKerningGroup = P;
unicode = 0050;
},
{
glyphname = Thorn;
lastChange = "2017-05-25 15:40:52 +0000";
layers = (
{
hints = (
{
origin = "{1, 0}";
scale = "{-1, 1}";
type = Corner;
name = _corner.STM.top.1;
},
{
origin = "{1, 1}";
type = Corner;
name = _corner.STM.btm.1;
},
{
origin = "{1, 2}";
scale = "{-1, 1}";
type = Corner;
name = _corner.STM.btm.1;
},
{
origin = "{1, 3}";
type = Corner;
name = _corner.STM.top.1;
}
);
layerId = "4A3087DE-C6CF-4F86-8B90-A264D0797279";
paths = (
{
closed = 1;
nodes = (
"339 155 OFFCURVE",
"445 236 OFFCURVE",
"445 339 CURVE SMOOTH",
"445 442 OFFCURVE",
"365 494 OFFCURVE",
"237 494 CURVE SMOOTH",
"207 494 OFFCURVE",
"174 491 OFFCURVE",
"130 491 CURVE",
"151 448 LINE",
"168 454 OFFCURVE",
"190 459 OFFCURVE",
"214 459 CURVE SMOOTH",
"322 459 OFFCURVE",
"375 402 OFFCURVE",
"375 321 CURVE SMOOTH",
"375 237 OFFCURVE",
"311 204 OFFCURVE",
"240 204 CURVE SMOOTH",
"229 204 OFFCURVE",
"214 206 OFFCURVE",
"200 211 CURVE",
"200 183 OFFCURVE",
"210 169 OFFCURVE",
"219 168 CURVE SMOOTH"
);
},
{
closed = 1;
nodes = (
"99 650 LINE",
"99 0 LINE",
"165 0 LINE",
"165 650 LINE"
);
}
);
width = 498;
}
);
leftKerningGroup = H;
leftMetricsKey = H;
rightKerningGroup = Thorn;
unicode = 00DE;
},
{
glyphname = Q;
lastChange = "2017-05-26 11:01:53 +0000";
layers = (
{
layerId = "4A3087DE-C6CF-4F86-8B90-A264D0797279";
paths = (
{
closed = 1;
nodes = (
"940 -125 OFFCURVE",
"874 -150 OFFCURVE",
"812 -150 CURVE SMOOTH",
"755 -150 OFFCURVE",
"705 -139 OFFCURVE",
"619 -80 CURVE SMOOTH",
"562 -41 OFFCURVE",
"505 -8 OFFCURVE",
"441 7 CURVE",
"457 -1 LINE",
"603 35 OFFCURVE",
"700 166 OFFCURVE",
"700 330 CURVE",
"624 313 LINE",
"622 165 OFFCURVE",
"543 24 OFFCURVE",
"387 24 CURVE",
"370 -14 LINE",
"421 -14 OFFCURVE",
"479 -55 OFFCURVE",
"537 -99 CURVE SMOOTH",
"620 -162 OFFCURVE",
"682 -195 OFFCURVE",
"756 -195 CURVE SMOOTH",
"852 -195 OFFCURVE",
"994 -143 OFFCURVE",
"994 -95 CURVE SMOOTH",
"994 -87 OFFCURVE",
"990 -82 OFFCURVE",
"980 -71 CURVE"
);
},
{
closed = 1;
nodes = (
"700 534 OFFCURVE",
"567 670 OFFCURVE",
"376 670 CURVE SMOOTH",
"181 670 OFFCURVE",
"48 529 OFFCURVE",
"48 324 CURVE SMOOTH",
"48 126 OFFCURVE",
"173 -14 OFFCURVE",
"370 -14 CURVE",
"387 24 LINE",
"223 24 OFFCURVE",
"124 163 OFFCURVE",
"124 343 CURVE SMOOTH",
"124 499 OFFCURVE",
"199 632 OFFCURVE",
"359 632 CURVE SMOOTH",
"523 632 OFFCURVE",
"624 493 OFFCURVE",
"624 313 CURVE",
"700 330 LINE"
);
}
);
width = 755;
}
);
leftKerningGroup = O;
leftMetricsKey = O;
rightKerningGroup = O;
unicode = 0051;
},
{
glyphname = R;
lastChange = "2017-05-26 10:57:44 +0000";
layers = (
{
anchors = (
{
name = bottom;
position = "{286, 0}";
},
{
name = top;
position = "{246, 650}";
}
);
hints = (
{
origin = "{1, 1}";
type = Corner;
name = _corner.STM.btm.1;
},
{
origin = "{1, 2}";
scale = "{-1, 1}";
type = Corner;
name = _corner.STM.btm.1;
},
{
origin = "{1, 0}";
scale = "{-1, 1}";
type = Corner;
name = _corner.STM.top.1;
}
);
layerId = "4A3087DE-C6CF-4F86-8B90-A264D0797279";
paths = (
{
closed = 1;
nodes = (
"291 323 LINE",
"374 344 OFFCURVE",
"443 405 OFFCURVE",
"443 492 CURVE SMOOTH",
"443 592 OFFCURVE",
"360 652 OFFCURVE",
"252 652 CURVE SMOOTH",
"221 652 OFFCURVE",
"186 650 OFFCURVE",
"135 650 CURVE",
"156 615 LINE",
"173 617 OFFCURVE",
"187 618 OFFCURVE",
"219 618 CURVE SMOOTH",
"301 618 OFFCURVE",
"369 576 OFFCURVE",
"369 475 CURVE SMOOTH",
"369 409 OFFCURVE",
"321 341 OFFCURVE",
"225 341 CURVE SMOOTH",
"156 341 LINE",
"156 309 LINE",
"298 309 LINE"
);
},
{
closed = 1;
nodes = (
"99 650 LINE",
"99 0 LINE",
"165 0 LINE",
"165 650 LINE"
);
},
{
closed = 1;
nodes = (
"436 1 OFFCURVE",
"452 -4 OFFCURVE",
"475 -4 CURVE SMOOTH",
"490 -4 OFFCURVE",
"512 0 OFFCURVE",
"550 -1 CURVE",
"553 19 LINE",
"523 22 OFFCURVE",
"492 40 OFFCURVE",
"419 206 CURVE SMOOTH",
"385 283 OFFCURVE",
"350 334 OFFCURVE",
"271 333 CURVE",
"213 309 LINE",
"257 309 OFFCURVE",
"298 300 OFFCURVE",
"334 222 CURVE SMOOTH",
"406 65 LINE SMOOTH"
);
}
);
width = 554;
}
);
leftKerningGroup = H;
leftMetricsKey = H;
rightKerningGroup = R;
unicode = 0052;
},
{
glyphname = S;
lastChange = "2017-05-26 11:01:07 +0000";
layers = (
{
anchors = (
{
name = bottom;
position = "{231, 0}";
},
{
name = top;
position = "{242, 650}";
}
);
layerId = "4A3087DE-C6CF-4F86-8B90-A264D0797279";
paths = (
{
closed = 1;
nodes = (
"150 31 OFFCURVE",
"97 55 OFFCURVE",
"52 143 CURVE",
"37 143 LINE",
"33 122 OFFCURVE",
"32 107 OFFCURVE",
"32 95 CURVE SMOOTH",
"32 74 OFFCURVE",
"37 52 OFFCURVE",
"45 39 CURVE SMOOTH",
"67 3 OFFCURVE",
"122 -7 OFFCURVE",
"177 -7 CURVE SMOOTH",
"307 -7 OFFCURVE",
"409 84 OFFCURVE",
"409 184 CURVE SMOOTH",
"409 263 OFFCURVE",
"374 307 OFFCURVE",
"245 397 CURVE SMOOTH",
"188 436 OFFCURVE",
"154 480 OFFCURVE",
"154 537 CURVE SMOOTH",
"154 589 OFFCURVE",
"196 631 OFFCURVE",
"243 631 CURVE SMOOTH",
"288 631 OFFCURVE",
"336 604 OFFCURVE",
"364 543 CURVE",
"379 543 LINE",
"380 589 OFFCURVE",
"381 614 OFFCURVE",
"368 634 CURVE SMOOTH",
"354 655 OFFCURVE",
"327 670 OFFCURVE",
"278 670 CURVE SMOOTH",
"170 670 OFFCURVE",
"98 592 OFFCURVE",
"98 496 CURVE SMOOTH",
"98 424 OFFCURVE",
"138 379 OFFCURVE",
"210 324 CURVE SMOOTH",
"311 247 OFFCURVE",
"342 211 OFFCURVE",
"342 154 CURVE SMOOTH",
"342 81 OFFCURVE",
"283 31 OFFCURVE",
"209 31 CURVE SMOOTH"
);
}
);
width = 457;
}
);
leftKerningGroup = S;
rightKerningGroup = S;
unicode = 0053;
},
{
glyphname = T;
lastChange = "2017-05-26 11:00:22 +0000";
layers = (
{
anchors = (
{
name = bottom;
position = "{274, 0}";
},
{
name = "center#2";
position = "{274, 325}";
},
{
name = top;
position = "{274, 650}";
}
);
hints = (
{
origin = "{0, 8}";
type = Corner;
name = _corner.STM.btm.1;
},
{
origin = "{0, 9}";
scale = "{-1, 1}";
type = Corner;
name = _corner.STM.btm.1;
}
);
layerId = "4A3087DE-C6CF-4F86-8B90-A264D0797279";
paths = (
{
closed = 1;
nodes = (
"307 452 LINE SMOOTH",
"307 520 OFFCURVE",
"308 573 OFFCURVE",
"311 635 CURVE",
"237 635 LINE",
"240 573 OFFCURVE",
"241 520 OFFCURVE",
"241 452 CURVE SMOOTH",
"241 0 LINE",
"307 0 LINE"
);
},
{
closed = 1;
nodes = (
"296 650 LINE",
"153 650 LINE SMOOTH",
"97 650 OFFCURVE",
"61 650 OFFCURVE",
"50 651 CURVE SMOOTH",
"24 653 OFFCURVE",
"20 649 OFFCURVE",
"19 644 CURVE SMOOTH",
"6 549 LINE",
"25 547 LINE",
"30 557 LINE SMOOTH",
"55 608 OFFCURVE",
"74 616 OFFCURVE",
"174 616 CURVE SMOOTH",
"257 616 LINE"
);
},
{
closed = 1;
nodes = (
"374 616 LINE SMOOTH",
"474 616 OFFCURVE",
"493 608 OFFCURVE",
"518 557 CURVE SMOOTH",
"523 547 LINE",
"542 549 LINE",
"529 644 LINE SMOOTH",
"528 649 OFFCURVE",
"524 653 OFFCURVE",
"498 651 CURVE SMOOTH",
"487 650 OFFCURVE",
"451 650 OFFCURVE",
"395 650 CURVE SMOOTH",
"252 650 LINE",
"291 616 LINE"
);
}
);
width = 548;
}
);
leftKerningGroup = T;
rightKerningGroup = T;
unicode = 0054;
},
{
glyphname = U;
lastChange = "2017-05-26 11:00:35 +0000";
layers = (
{
anchors = (
{
name = bottom;
position = "{324, 0}";
},
{
name = ogonek;
position = "{584, 10}";
},
{
name = top;
position = "{324, 650}";
},
{
name = topright;
position = "{629, 650}";
}
);
hints = (
{
origin = "{0, 23}";
scale = "{-1, 1}";
type = Corner;
name = _corner.STM.top.1;
},
{
origin = "{0, 14}";
scale = "{-1, 1}";
type = Corner;
name = _corner.STM.top.1;
},
{
origin = "{0, 22}";
type = Corner;
name = _corner.STM.top.1;
},
{
origin = "{0, 13}";
type = Corner;
name = _corner.STM.top.1;
}
);
layerId = "4A3087DE-C6CF-4F86-8B90-A264D0797279";
paths = (
{
closed = 1;
nodes = (
"92 249 LINE SMOOTH",
"92 175 OFFCURVE",
"104 125 OFFCURVE",
"124 90 CURVE SMOOTH",
"159 27 OFFCURVE",
"230 -15 OFFCURVE",
"322 -15 CURVE SMOOTH",
"419 -15 OFFCURVE",
"479 20 OFFCURVE",
"514 73 CURVE SMOOTH",
"547 123 OFFCURVE",
"556 179 OFFCURVE",
"556 256 CURVE SMOOTH",
"556 650 LINE",
"516 650 LINE",
"516 251 LINE SMOOTH",
"516 105 OFFCURVE",
"457 38 OFFCURVE",
"342 38 CURVE SMOOTH",
"227 38 OFFCURVE",
"158 109 OFFCURVE",
"158 265 CURVE SMOOTH",
"158 650 LINE",
"92 650 LINE"
);
}
);
width = 642;
}
);
leftKerningGroup = U;
leftMetricsKey = "=H-6";
rightKerningGroup = U;
rightMetricsKey = "=H-12";
unicode = 0055;
},
{
glyphname = Uogonek;
lastChange = "2017-05-25 15:40:52 +0000";
layers = (
{
anchors = (
{
name = _ogonek;
position = "{585, 10}";
}
);
components = (
{
name = U;
}
);
layerId = "4A3087DE-C6CF-4F86-8B90-A264D0797279";
paths = (
{
closed = 1;
nodes = (
"388 -202 OFFCURVE",
"363 -181 OFFCURVE",
"363 -126 CURVE SMOOTH",
"363 -62 OFFCURVE",
"411 -15 OFFCURVE",
"482 35 CURVE",
"452 28 LINE",
"374 -5 OFFCURVE",
"307 -70 OFFCURVE",
"307 -137 CURVE SMOOTH",
"307 -198 OFFCURVE",
"348 -228 OFFCURVE",
"390 -228 CURVE SMOOTH",
"428 -228 OFFCURVE",
"451 -217 OFFCURVE",
"474 -198 CURVE",
"467 -187 LINE",
"448 -198 OFFCURVE",
"433 -202 OFFCURVE",
"416 -202 CURVE SMOOTH"
);
}
);
width = 650;
}
);
leftKerningGroup = U;
rightKerningGroup = U;
unicode = 0172;
},
{
glyphname = V;
lastChange = "2017-05-26 11:01:02 +0000";
layers = (
{
hints = (
{
origin = "{0, 7}";
scale = "{-1, 1}";
type = Corner;
name = _corner.STM.top.1;
options = 1;
},
{
origin = "{0, 10}";
type = Corner;
name = _corner.STM.top.1;
}
);
layerId = "4A3087DE-C6CF-4F86-8B90-A264D0797279";
paths = (
{
closed = 1;
nodes = (
"470 456 OFFCURVE",
"409 286 OFFCURVE",
"326 92 CURVE",
"343 92 LINE",
"268 256 OFFCURVE",
"187 456 OFFCURVE",
"122 650 CURVE",
"39 650 LINE",
"310 -10 LINE",
"329 -10 LINE",
"599 650 LINE",
"534 650 LINE"
);
}
);
width = 631;
}
);
leftKerningGroup = V;
rightKerningGroup = V;
unicode = 0056;
},
{
glyphname = W;
lastChange = "2017-05-26 11:04:55 +0000";
layers = (
{
anchors = (
{
name = bottom;
position = "{511, 0}";
},
{
name = top;
position = "{500, 650}";
}
);
hints = (
{
origin = "{0, 15}";
scale = "{-1, 1}";
type = Corner;
name = _corner.STM.top.1;
options = 1;
},
{
origin = "{0, 26}";
type = Corner;
name = _corner.STM.top.1;
}
);
layerId = "4A3087DE-C6CF-4F86-8B90-A264D0797279";
paths = (
{
closed = 1;
nodes = (
"871 507 OFFCURVE",
"823 343 OFFCURVE",
"740 80 CURVE",
"765 93 LINE",
"686 258 OFFCURVE",
"612 437 OFFCURVE",
"531 637 CURVE",
"503 637 LINE",
"429 449 OFFCURVE",
"361 291 OFFCURVE",
"262 86 CURVE",
"285 103 LINE",
"228 262 OFFCURVE",
"160 498 OFFCURVE",
"126 648 CURVE",
"41 648 LINE",
"249 -12 LINE",
"273 -12 LINE",
"362 194 OFFCURVE",
"460 420 OFFCURVE",
"529 575 CURVE",
"485 552 LINE",
"553 412 OFFCURVE",
"662 146 OFFCURVE",
"725 -12 CURVE",
"753 -12 LINE",
"966 648 LINE",
"906 648 LINE"
);
}
);
width = 1000;
}
);
leftKerningGroup = W;
rightKerningGroup = W;
unicode = 0057;
},
{
glyphname = X;
lastChange = "2017-05-26 10:57:44 +0000";
layers = (
{
hints = (
{
origin = "{0, 1}";
type = Corner;
name = _corner.STM.top.1;
},
{
origin = "{2, 8}";
scale = "{-1, 1}";
type = Corner;
name = _corner.STM.top.1;
options = 1;
},
{
origin = "{2, 3}";
scale = "{-1, 1}";
type = Corner;
name = _corner.STM.btm.1;
options = 1;
},
{
origin = "{1, 1}";
type = Corner;
name = _corner.STM.btm.1;
}
);
layerId = "4A3087DE-C6CF-4F86-8B90-A264D0797279";
paths = (
{
closed = 1;
nodes = (
"318 332 LINE",
"540 650 LINE",
"478 650 LINE",
"406 523 OFFCURVE",
"362 456 OFFCURVE",
"303 378 CURVE"
);
},
{
closed = 1;
nodes = (
"280 353 LINE",
"39 0 LINE",
"95 0 LINE",
"149 92 OFFCURVE",
"222 203 OFFCURVE",
"309 324 CURVE"
);
},
{
closed = 1;
nodes = (
"353 203 OFFCURVE",
"433 70 OFFCURVE",
"473 0 CURVE",
"569 0 LINE",
"323 369 LINE",
"262 469 OFFCURVE",
"207 560 OFFCURVE",
"158 650 CURVE",
"65 650 LINE",
"281 311 LINE"
);
}
);
width = 605;
}
);
leftKerningGroup = X;
rightKerningGroup = X;
unicode = 0058;
},
{
glyphname = Y;
lastChange = "2017-05-26 10:57:44 +0000";
layers = (
{
anchors = (
{
name = bottom;
position = "{278, 0}";
},
{
name = top;
position = "{278, 650}";
},
{
name = topleft;
position = "{0, 650}";
}
);
hints = (
{
origin = "{0, 0}";
type = Corner;
name = _corner.STM.btm.1;
},
{
origin = "{0, 1}";
scale = "{-1, 1}";
type = Corner;
name = _corner.STM.btm.1;
}
);
layerId = "4A3087DE-C6CF-4F86-8B90-A264D0797279";
paths = (
{
closed = 1;
nodes = (
"258 0 LINE",
"324 0 LINE",
"324 335 LINE",
"304 291 LINE",
"258 282 LINE"
);
},
{
closed = 1;
nodes = (
"10 626 LINE",
"29 626 LINE SMOOTH",
"169 626 OFFCURVE",
"258 419 OFFCURVE",
"258 225 CURVE",
"324 225 LINE",
"324 427 OFFCURVE",
"414 553 OFFCURVE",
"513 613 CURVE SMOOTH",
"533 625 OFFCURVE",
"548 626 OFFCURVE",
"569 624 CURVE",
"569 650 LINE",
"470 647 LINE",
"355 550 OFFCURVE",
"299 425 OFFCURVE",
"297 279 CURVE",
"306 309 LINE",
"309 466 OFFCURVE",
"233 590 OFFCURVE",
"168 648 CURVE",
"8 650 LINE"
);
}
);
width = 568;
}
);
leftKerningGroup = Y;
rightKerningGroup = Y;
unicode = 0059;
},
{
glyphname = Z;
lastChange = "2017-05-26 11:01:39 +0000";
layers = (
{
anchors = (
{
name = bottom;
position = "{283, 0}";
},
{
name = top;
position = "{271, 650}";
}
);
layerId = "4A3087DE-C6CF-4F86-8B90-A264D0797279";
paths = (
{
closed = 1;
nodes = (
"492 647 LINE",
"342 411 OFFCURVE",
"227 214 OFFCURVE",
"122 19 CURVE",
"118 36 LINE",
"175 34 OFFCURVE",
"231 34 OFFCURVE",
"278 34 CURVE",
"340 0 LINE",
"270 0 OFFCURVE",
"157 0 OFFCURVE",
"27 -2 CURVE",
"24 6 LINE",
"156 215 OFFCURVE",
"283 424 OFFCURVE",
"394 630 CURVE",
"437 613 LINE",
"391 615 OFFCURVE",
"346 616 OFFCURVE",
"298 616 CURVE",
"273 650 LINE",
"342 650 OFFCURVE",
"390 650 OFFCURVE",
"489 653 CURVE"
);
},
{
closed = 1;
nodes = (
"398 0 OFFCURVE",
"456 0 OFFCURVE",
"483 -1 CURVE SMOOTH",
"499 -2 OFFCURVE",
"504 1 OFFCURVE",
"507 6 CURVE",
"544 86 LINE",
"528 92 LINE",
"451 41 OFFCURVE",
"398 34 OFFCURVE",
"325 34 CURVE SMOOTH",
"278 34 LINE",
"340 0 LINE"
);
},
{
closed = 1;
nodes = (
"259 616 LINE SMOOTH",
"166 616 OFFCURVE",
"140 603 OFFCURVE",
"85 548 CURVE",
"69 552 LINE",
"101 642 LINE SMOOTH",
"104 650 OFFCURVE",
"110 652 OFFCURVE",
"136 651 CURVE SMOOTH",
"165 650 OFFCURVE",
"199 650 OFFCURVE",
"231 650 CURVE SMOOTH",
"354 650 LINE",
"350 616 LINE"
);
}
);
width = 565;
}
);
leftKerningGroup = Z;
rightKerningGroup = Z;
unicode = 005A;
},
{
glyphname = a;
lastChange = "2017-05-26 11:30:34 +0000";
layers = (
{
anchors = (
{
name = bottom;
position = "{243, 0}";
},
{
name = ogonek;
position = "{430, 0}";
},
{
name = top;
position = "{233, 440}";
}
);
layerId = "4A3087DE-C6CF-4F86-8B90-A264D0797279";
paths = (
{
closed = 1;
nodes = (
"412 27 OFFCURVE",
"400 26 OFFCURVE",
"391 26 CURVE SMOOTH",
"373 26 OFFCURVE",
"367 53 OFFCURVE",
"366 95 CURVE SMOOTH",
"364 152 OFFCURVE",
"364 228 OFFCURVE",
"367 285 CURVE SMOOTH",
"373 399 OFFCURVE",
"331 454 OFFCURVE",
"232 454 CURVE SMOOTH",
"162 454 OFFCURVE",
"81 413 OFFCURVE",
"81 376 CURVE SMOOTH",
"81 361 OFFCURVE",
"85 342 OFFCURVE",
"97 311 CURVE",
"119 311 LINE",
"132 384 OFFCURVE",
"171 420 OFFCURVE",
"215 420 CURVE SMOOTH",
"280 420 OFFCURVE",
"306 371 OFFCURVE",
"306 279 CURVE SMOOTH",
"306 248 LINE SMOOTH",
"306 241 OFFCURVE",
"303 236 OFFCURVE",
"289 236 CURVE SMOOTH",
"135 234 OFFCURVE",
"49 187 OFFCURVE",
"49 105 CURVE SMOOTH",
"49 38 OFFCURVE",
"101 -14 OFFCURVE",
"168 -14 CURVE SMOOTH",
"232 -14 OFFCURVE",
"271 8 OFFCURVE",
"317 65 CURVE",
"302 78 LINE",
"304 12 OFFCURVE",
"311 -7 OFFCURVE",
"353 -7 CURVE SMOOTH",
"369 -7 OFFCURVE",
"393 0 OFFCURVE",
"419 9 CURVE",
"420 29 LINE"
);
},
{
closed = 1;
nodes = (
"261 45 OFFCURVE",
"237 31 OFFCURVE",
"204 31 CURVE SMOOTH",
"154 31 OFFCURVE",
"115 59 OFFCURVE",
"115 115 CURVE SMOOTH",
"115 178 OFFCURVE",
"192 220 OFFCURVE",
"323 196 CURVE",
"304 226 LINE",
"304 159 LINE SMOOTH",
"304 109 OFFCURVE",
"293 84 OFFCURVE",
"280 69 CURVE SMOOTH"
);
}
);
width = 454;
}
);
leftKerningGroup = a;
unicode = 0061;
},
{
glyphname = aogonek;
lastChange = "2017-05-25 15:40:52 +0000";
layers = (
{
anchors = (
{
name = _ogonek;
position = "{422, 0}";
}
);
components = (
{
name = a;
}
);
layerId = "4A3087DE-C6CF-4F86-8B90-A264D0797279";
paths = (
{
closed = 1;
nodes = (
"335 -202 OFFCURVE",
"310 -181 OFFCURVE",
"310 -126 CURVE SMOOTH",
"310 -62 OFFCURVE",
"358 -15 OFFCURVE",
"411 9 CURVE",
"399 19 LINE",
"321 -7 OFFCURVE",
"254 -70 OFFCURVE",
"254 -137 CURVE SMOOTH",
"254 -198 OFFCURVE",
"295 -228 OFFCURVE",
"337 -228 CURVE SMOOTH",
"375 -228 OFFCURVE",
"398 -217 OFFCURVE",
"421 -198 CURVE",
"414 -187 LINE",
"395 -198 OFFCURVE",
"380 -202 OFFCURVE",
"363 -202 CURVE SMOOTH"
);
}
);
width = 454;
}
);
leftKerningGroup = a;
rightKerningGroup = n;
unicode = 0105;
},
{
glyphname = ae;
lastChange = "2017-05-25 15:40:52 +0000";
layers = (
{
anchors = (
{
name = bottom;
position = "{243, 0}";
},
{
name = ogonek;
position = "{430, 0}";
},
{
name = top;
position = "{233, 440}";
}
);
layerId = "4A3087DE-C6CF-4F86-8B90-A264D0797279";
paths = (
{
closed = 1;
nodes = (
"364 131 CURVE",
"364 152 OFFCURVE",
"364 228 OFFCURVE",
"367 285 CURVE SMOOTH",
"373 399 OFFCURVE",
"324 454 OFFCURVE",
"222 454 CURVE SMOOTH",
"162 454 OFFCURVE",
"84 413 OFFCURVE",
"84 376 CURVE SMOOTH",
"84 361 OFFCURVE",
"88 342 OFFCURVE",
"97 311 CURVE",
"119 311 LINE",
"136 398 OFFCURVE",
"172 425 OFFCURVE",
"209 425 CURVE SMOOTH",
"280 425 OFFCURVE",
"306 371 OFFCURVE",
"306 289 CURVE SMOOTH",
"306 255 LINE SMOOTH",
"306 248 OFFCURVE",
"303 244 OFFCURVE",
"289 242 CURVE SMOOTH",
"125 221 OFFCURVE",
"49 187 OFFCURVE",
"49 105 CURVE SMOOTH",
"49 38 OFFCURVE",
"101 -14 OFFCURVE",
"178 -14 CURVE SMOOTH",
"254 -14 OFFCURVE",
"303 16 OFFCURVE"
);
},
{
closed = 1;
nodes = (
"261 41 OFFCURVE",
"237 29 OFFCURVE",
"204 29 CURVE SMOOTH",
"154 29 OFFCURVE",
"115 59 OFFCURVE",
"115 115 CURVE SMOOTH",
"115 173 OFFCURVE",
"162 203 OFFCURVE",
"323 214 CURVE",
"304 236 LINE",
"304 180 LINE SMOOTH",
"304 108 OFFCURVE",
"293 80 OFFCURVE",
"280 65 CURVE SMOOTH"
);
},
{
closed = 1;
nodes = (
"562 -14 OFFCURVE",
"614 7 OFFCURVE",
"650 31 CURVE SMOOTH",
"659 37 OFFCURVE",
"661 41 OFFCURVE",
"661 49 CURVE SMOOTH",
"661 54 OFFCURVE",
"660 61 OFFCURVE",
"655 71 CURVE",
"620 45 OFFCURVE",
"578 27 OFFCURVE",
"522 27 CURVE SMOOTH",
"435 27 OFFCURVE",
"363 93 OFFCURVE",
"367 256 CURVE",
"368 268 LINE",
"374 365 OFFCURVE",
"423 416 OFFCURVE",
"486 416 CURVE SMOOTH",
"556 416 OFFCURVE",
"603 364 OFFCURVE",
"603 282 CURVE SMOOTH",
"603 277 OFFCURVE",
"591 274 OFFCURVE",
"517 268 CURVE SMOOTH",
"350 255 LINE",
"350 225 LINE",
"658 245 LINE",
"662 258 OFFCURVE",
"664 276 OFFCURVE",
"664 298 CURVE SMOOTH",
"664 378 OFFCURVE",
"611 454 OFFCURVE",
"511 454 CURVE SMOOTH",
"418 454 OFFCURVE",
"346 391 OFFCURVE",
"317 298 CURVE",
"317 117 LINE",
"346 32 OFFCURVE",
"416 -14 OFFCURVE",
"505 -14 CURVE SMOOTH"
);
}
);
width = 711;
}
);
leftKerningGroup = a;
leftMetricsKey = a;
rightKerningGroup = e;
rightMetricsKey = e;
unicode = 00E6;
},
{
glyphname = c;
lastChange = "2017-05-25 15:40:52 +0000";
layers = (
{
anchors = (
{
name = bottom;
position = "{263, 0}";
},
{
name = top;
position = "{249, 450}";
}
);
layerId = "4A3087DE-C6CF-4F86-8B90-A264D0797279";
leftMetricsKey = "=o";
paths = (
{
closed = 1;
nodes = (
"303 409 OFFCURVE",
"353 373 OFFCURVE",
"381 300 CURVE",
"400 302 LINE",
"400 372 OFFCURVE",
"398 387 OFFCURVE",
"382 408 CURVE SMOOTH",
"359 438 OFFCURVE",
"320 454 OFFCURVE",
"272 454 CURVE SMOOTH",
"144 454 OFFCURVE",
"42 346 OFFCURVE",
"42 207 CURVE SMOOTH",
"42 60 OFFCURVE",
"134 -14 OFFCURVE",
"244 -14 CURVE SMOOTH",
"300 -14 OFFCURVE",
"343 2 OFFCURVE",
"391 34 CURVE SMOOTH",
"397 38 OFFCURVE",
"401 42 OFFCURVE",
"401 48 CURVE SMOOTH",
"401 53 OFFCURVE",
"398 64 OFFCURVE",
"394 73 CURVE",
"356 46 OFFCURVE",
"317 29 OFFCURVE",
"263 29 CURVE SMOOTH",
"202 29 OFFCURVE",
"107 76 OFFCURVE",
"107 236 CURVE SMOOTH",
"107 355 OFFCURVE",
"168 409 OFFCURVE",
"237 409 CURVE SMOOTH"
);
}
);
width = 451;
}
);
leftKerningGroup = o;
leftMetricsKey = O;
rightKerningGroup = c;
unicode = 0063;
},
{
glyphname = d;
lastChange = "2017-05-26 11:51:32 +0000";
layers = (
{
anchors = (
{
name = bottom;
position = "{273, 0}";
},
{
name = "center#2";
position = "{411, 570}";
},
{
name = top;
position = "{273, 450}";
},
{
name = topright;
position = "{525, 450}";
}
);
components = (
{
alignment = 1;
name = _bowl.1;
transform = "{-1, 0, 0, -1, 397, 440}";
},
{
alignment = 1;
name = _stem.2;
transform = "{1, 0, 0, 1, 294, 0}";
}
);
layerId = "4A3087DE-C6CF-4F86-8B90-A264D0797279";
leftMetricsKey = "=o";
width = 525;
},
{
associatedMasterId = "4A3087DE-C6CF-4F86-8B90-A264D0797279";
layerId = "E9E01D4A-BE8A-44BC-AA02-5111E66867E3";
leftMetricsKey = "=o";
name = "Regular Dec 5 13, 10:41";
paths = (
{
closed = 1;
nodes = (
"444 363 LINE",
"372 363 LINE",
"372 313 LINE",
"444 313 LINE"
);
},
{
closed = 1;
nodes = (
"418 371 LINE",
"400 445 OFFCURVE",
"348 474 OFFCURVE",
"274 474 CURVE SMOOTH",
"162 474 OFFCURVE",
"26 405 OFFCURVE",
"26 217 CURVE SMOOTH",
"26 71 OFFCURVE",
"102 -14 OFFCURVE",
"228 -14 CURVE SMOOTH",
"319 -14 OFFCURVE",
"386 33 OFFCURVE",
"398 110 CURVE",
"372 158 LINE",
"372 89 OFFCURVE",
"328 35 OFFCURVE",
"260 35 CURVE SMOOTH",
"179 35 OFFCURVE",
"108 95 OFFCURVE",
"108 253 CURVE SMOOTH",
"108 373 OFFCURVE",
"169 423 OFFCURVE",
"246 422 CURVE SMOOTH",
"339 421 OFFCURVE",
"372 368 OFFCURVE",
"372 333 CURVE"
);
},
{
closed = 1;
nodes = (
"444 363 LINE",
"444 575 OFFCURVE",
"451 638 OFFCURVE",
"466 725 CURVE",
"440 721 OFFCURVE",
"415 718 OFFCURVE",
"387 716 CURVE",
"378 640 OFFCURVE",
"372 570 OFFCURVE",
"372 363 CURVE"
);
},
{
closed = 1;
nodes = (
"372 95 LINE",
"391 -5 LINE",
"410 -1 OFFCURVE",
"440 3 OFFCURVE",
"464 3 CURVE",
"448 93 OFFCURVE",
"444 139 OFFCURVE",
"444 313 CURVE",
"372 313 LINE"
);
}
);
width = 518;
}
);
leftKerningGroup = o;
leftMetricsKey = o;
rightKerningGroup = l;
unicode = 0064;
},
{
glyphname = eth;
lastChange = "2017-05-25 15:40:52 +0000";
layers = (
{
anchors = (
{
name = bottom;
position = "{273, 0}";
},
{
name = entry;
position = "{386, 450}";
},
{
name = top;
position = "{273, 450}";
},
{
name = topright;
position = "{525, 450}";
}
);
layerId = "4A3087DE-C6CF-4F86-8B90-A264D0797279";
paths = (
{
closed = 1;
nodes = (
"178 675 OFFCURVE",
"224 637 OFFCURVE",
"266 590 CURVE SMOOTH",
"347 499 OFFCURVE",
"391 360 OFFCURVE",
"391 239 CURVE SMOOTH",
"391 87 OFFCURVE",
"326 20 OFFCURVE",
"250 20 CURVE SMOOTH",
"163 20 OFFCURVE",
"109 97 OFFCURVE",
"109 233 CURVE SMOOTH",
"109 367 OFFCURVE",
"199 416 OFFCURVE",
"256 416 CURVE SMOOTH",
"312 416 OFFCURVE",
"338 405 OFFCURVE",
"386 358 CURVE",
"382 403 LINE",
"372 436 OFFCURVE",
"337 454 OFFCURVE",
"297 454 CURVE SMOOTH",
"163 454 OFFCURVE",
"39 361 OFFCURVE",
"39 205 CURVE SMOOTH",
"39 73 OFFCURVE",
"127 -14 OFFCURVE",
"231 -14 CURVE SMOOTH",
"371 -14 OFFCURVE",
"462 87 OFFCURVE",
"462 247 CURVE SMOOTH",
"462 422 OFFCURVE",
"361 613 OFFCURVE",
"167 734 CURVE",
"105 720 LINE",
"104 716 LINE"
);
},
{
closed = 1;
nodes = (
"168 533 LINE",
"250 567 OFFCURVE",
"332 596 OFFCURVE",
"414 622 CURVE",
"409 655 LINE",
"328 622 OFFCURVE",
"246 592 OFFCURVE",
"163 565 CURVE"
);
}
);
width = 502;
}
);
leftKerningGroup = eth;
rightKerningGroup = eth;
unicode = 00F0;
},
{
glyphname = e;
lastChange = "2017-05-25 21:35:43 +0000";
layers = (
{
anchors = (
{
name = bottom;
position = "{214, 0}";
},
{
name = ogonek;
position = "{391, 0}";
},
{
name = top;
position = "{235, 440}";
}
);
layerId = "4A3087DE-C6CF-4F86-8B90-A264D0797279";
leftMetricsKey = "=o";
paths = (
{
closed = 1;
nodes = (
"300 -14 OFFCURVE",
"352 8 OFFCURVE",
"388 31 CURVE SMOOTH",
"397 37 OFFCURVE",
"399 41 OFFCURVE",
"399 49 CURVE SMOOTH",
"399 54 OFFCURVE",
"398 61 OFFCURVE",
"393 71 CURVE",
"358 45 OFFCURVE",
"316 27 OFFCURVE",
"260 27 CURVE SMOOTH",
"173 27 OFFCURVE",
"103 93 OFFCURVE",
"107 256 CURVE",
"108 268 LINE",
"114 365 OFFCURVE",
"161 416 OFFCURVE",
"224 416 CURVE SMOOTH",
"294 416 OFFCURVE",
"339 364 OFFCURVE",
"339 282 CURVE SMOOTH",
"339 277 OFFCURVE",
"320 275 OFFCURVE",
"246 275 CURVE SMOOTH",
"88 275 LINE",
"88 245 LINE",
"396 245 LINE",
"400 258 OFFCURVE",
"402 276 OFFCURVE",
"402 298 CURVE SMOOTH",
"402 378 OFFCURVE",
"349 454 OFFCURVE",
"249 454 CURVE SMOOTH",
"128 454 OFFCURVE",
"42 346 OFFCURVE",
"42 207 CURVE SMOOTH",
"42 64 OFFCURVE",
"127 -14 OFFCURVE",
"243 -14 CURVE SMOOTH"
);
}
);
width = 449;
},
{
associatedMasterId = "4A3087DE-C6CF-4F86-8B90-A264D0797279";
layerId = "23D74DE1-3D11-4F35-90C2-BC2C4A35B5F9";
leftMetricsKey = "=o";
name = "Regular May 11 15, 22:14";
paths = (
{
closed = 1;
nodes = (
"138 444 OFFCURVE",
"46 360 OFFCURVE",
"46 207 CURVE SMOOTH",
"46 57 OFFCURVE",
"131 -8 OFFCURVE",
"251 -8 CURVE SMOOTH",
"305 -8 OFFCURVE",
"366 14 OFFCURVE",
"399 45 CURVE",
"388 79 LINE",
"354 57 OFFCURVE",
"318 47 OFFCURVE",
"281 47 CURVE SMOOTH",
"198 47 OFFCURVE",
"128 99 OFFCURVE",
"124 223 CURVE",
"126 241 LINE",
"126 354 OFFCURVE",
"169 390 OFFCURVE",
"228 390 CURVE SMOOTH",
"301 390 OFFCURVE",
"334 337 OFFCURVE",
"334 258 CURVE",
"268 253 OFFCURVE",
"191 252 OFFCURVE",
"113 253 CURVE",
"112 210 LINE",
"199 214 OFFCURVE",
"311 216 OFFCURVE",
"408 217 CURVE",
"411 228 OFFCURVE",
"412 241 OFFCURVE",
"412 254 CURVE SMOOTH",
"412 364 OFFCURVE",
"351 444 OFFCURVE",
"253 444 CURVE SMOOTH"
);
},
{
closed = 0;
nodes = (
"399 45 LINE"
);
}
);
width = 453;
}
);
leftKerningGroup = e;
leftMetricsKey = o;
rightKerningGroup = e;
unicode = 0065;
},
{
glyphname = eogonek;
lastChange = "2017-05-25 15:40:52 +0000";
layers = (
{
anchors = (
{
name = _ogonek;
position = "{395, 0}";
}
);
components = (
{
name = e;
}
);
layerId = "4A3087DE-C6CF-4F86-8B90-A264D0797279";
paths = (
{
closed = 1;
nodes = (
"295 -202 OFFCURVE",
"270 -181 OFFCURVE",
"270 -126 CURVE SMOOTH",
"270 -62 OFFCURVE",
"318 -13 OFFCURVE",
"392 31 CURVE",
"362 19 LINE",
"284 -7 OFFCURVE",
"214 -70 OFFCURVE",
"214 -137 CURVE SMOOTH",
"214 -198 OFFCURVE",
"255 -228 OFFCURVE",
"297 -228 CURVE SMOOTH",
"335 -228 OFFCURVE",
"358 -217 OFFCURVE",
"381 -198 CURVE",
"374 -187 LINE",
"355 -198 OFFCURVE",
"340 -202 OFFCURVE",
"323 -202 CURVE SMOOTH"
);
}
);
width = 451;
}
);
leftKerningGroup = o;
rightKerningGroup = e;
unicode = 0119;
},
{
glyphname = f;
lastChange = "2017-05-25 21:57:23 +0000";
layers = (
{
anchors = (
{
name = bottom;
position = "{160, 0}";
},
{
name = top;
position = "{160, 430}";
}
);
hints = (
{
origin = "{0, 13}";
target = "{0, 14}";
type = Cap;
name = _cap.stm.btm.3;
}
);
layerId = "4A3087DE-C6CF-4F86-8B90-A264D0797279";
paths = (
{
closed = 1;
nodes = (
"331 627 LINE",
"332 634 OFFCURVE",
"333 646 OFFCURVE",
"333 655 CURVE SMOOTH",
"333 710 OFFCURVE",
"305 734 OFFCURVE",
"257 734 CURVE SMOOTH",
"203 734 OFFCURVE",
"160 705 OFFCURVE",
"132 656 CURVE SMOOTH",
"111 619 OFFCURVE",
"106 583 OFFCURVE",
"106 503 CURVE SMOOTH",
"106 0 LINE",
"168 0 LINE",
"168 550 LINE SMOOTH",
"168 653 OFFCURVE",
"180 697 OFFCURVE",
"222 697 CURVE SMOOTH",
"255 697 OFFCURVE",
"291 677 OFFCURVE",
"315 624 CURVE"
);
},
{
closed = 1;
nodes = (
"48 410 LINE",
"283 410 LINE SMOOTH",
"286 410 OFFCURVE",
"287 412 OFFCURVE",
"287 442 CURVE",
"226 440 OFFCURVE",
"127 440 OFFCURVE",
"50 440 CURVE"
);
}
);
width = 297;
}
);
leftKerningGroup = f;
rightKerningGroup = f;
unicode = 0066;
},
{
glyphname = g;
lastChange = "2017-05-26 11:44:09 +0000";
layers = (
{
anchors = (
{
name = bottom;
position = "{223, 0}";
},
{
name = top;
position = "{223, 450}";
}
);
layerId = "4A3087DE-C6CF-4F86-8B90-A264D0797279";
paths = (
{
closed = 1;
nodes = (
"412 410 LINE SMOOTH",
"417 410 OFFCURVE",
"418 415 OFFCURVE",
"418 441 CURVE",
"387 440 OFFCURVE",
"352 440 OFFCURVE",
"334 440 CURVE SMOOTH",
"271 440 OFFCURVE",
"257 454 OFFCURVE",
"214 454 CURVE SMOOTH",
"124 454 OFFCURVE",
"47 394 OFFCURVE",
"47 297 CURVE SMOOTH",
"47 223 OFFCURVE",
"110 165 OFFCURVE",
"183 165 CURVE",
"171 175 LINE",
"124 152 LINE SMOOTH",
"100 140 OFFCURVE",
"93 126 OFFCURVE",
"93 108 CURVE SMOOTH",
"93 74 OFFCURVE",
"115 37 OFFCURVE",
"159 23 CURVE",
"149 52 LINE",
"119 31 OFFCURVE",
"90 11 OFFCURVE",
"63 -4 CURVE SMOOTH",
"36 -19 OFFCURVE",
"23 -45 OFFCURVE",
"23 -72 CURVE SMOOTH",
"23 -161 OFFCURVE",
"93 -213 OFFCURVE",
"175 -213 CURVE SMOOTH",
"249 -213 OFFCURVE",
"294 -195 OFFCURVE",
"341 -163 CURVE SMOOTH",
"385 -133 OFFCURVE",
"417 -86 OFFCURVE",
"417 -33 CURVE SMOOTH",
"417 35 OFFCURVE",
"371 73 OFFCURVE",
"244 75 CURVE SMOOTH",
"182 76 OFFCURVE",
"154 91 OFFCURVE",
"154 120 CURVE SMOOTH",
"154 135 OFFCURVE",
"167 150 OFFCURVE",
"201 153 CURVE SMOOTH",
"297 162 OFFCURVE",
"381 218 OFFCURVE",
"381 308 CURVE SMOOTH",
"381 345 OFFCURVE",
"371 383 OFFCURVE",
"331 414 CURVE",
"325 410 LINE"
);
},
{
closed = 1;
nodes = (
"158 190 OFFCURVE",
"111 242 OFFCURVE",
"111 314 CURVE SMOOTH",
"111 377 OFFCURVE",
"147 422 OFFCURVE",
"207 422 CURVE SMOOTH",
"281 422 OFFCURVE",
"317 354 OFFCURVE",
"317 293 CURVE SMOOTH",
"317 232 OFFCURVE",
"281 190 OFFCURVE",
"223 190 CURVE SMOOTH"
);
},
{
closed = 1;
nodes = (
"356 -130 OFFCURVE",
"290 -175 OFFCURVE",
"215 -175 CURVE SMOOTH",
"132 -175 OFFCURVE",
"89 -127 OFFCURVE",
"89 -65 CURVE SMOOTH",
"89 -45 OFFCURVE",
"98 -21 OFFCURVE",
"123 -3 CURVE SMOOTH",
"146 12 OFFCURVE",
"178 21 OFFCURVE",
"216 21 CURVE SMOOTH",
"313 21 OFFCURVE",
"356 -2 OFFCURVE",
"356 -60 CURVE SMOOTH"
);
}
);
width = 446;
}
);
leftKerningGroup = g;
rightKerningGroup = g;
unicode = 0067;
},
{
glyphname = idotless;
lastChange = "2017-05-25 15:40:52 +0000";
layers = (
{
anchors = (
{
name = bottom;
position = "{124, 0}";
},
{
name = ogonek;
position = "{216, 10}";
},
{
name = top;
position = "{119, 450}";
}
);
hints = (
{
origin = "{0, 2}";
target = "{0, 3}";
type = Cap;
name = _cap.stm.btm.2;
},
{
origin = "{0, 0}";
target = "{0, 1}";
type = Cap;
name = _cap.stm.mid.2;
}
);
layerId = "4A3087DE-C6CF-4F86-8B90-A264D0797279";
paths = (
{
closed = 1;
nodes = (
"150 440 LINE",
"88 440 LINE",
"88 0 LINE",
"150 0 LINE"
);
}
);
width = 239;
}
);
leftKerningGroup = idotless;
rightKerningGroup = idotless;
unicode = 0131;
},
{
glyphname = iogonek;
lastChange = "2017-05-25 15:40:52 +0000";
layers = (
{
anchors = (
{
name = _ogonek;
position = "{208, 10}";
}
);
components = (
{
name = idotless;
},
{
name = dotaccent;
transform = "{1, 0, 0, 1, -39, 0}";
}
);
layerId = "4A3087DE-C6CF-4F86-8B90-A264D0797279";
paths = (
{
closed = 1;
nodes = (
"110 -202 OFFCURVE",
"85 -181 OFFCURVE",
"85 -126 CURVE SMOOTH",
"85 -62 OFFCURVE",
"133 -15 OFFCURVE",
"196 5 CURVE",
"174 12 LINE",
"96 -7 OFFCURVE",
"29 -70 OFFCURVE",
"29 -137 CURVE SMOOTH",
"29 -198 OFFCURVE",
"70 -228 OFFCURVE",
"112 -228 CURVE SMOOTH",
"150 -228 OFFCURVE",
"173 -217 OFFCURVE",
"196 -198 CURVE",
"189 -187 LINE",
"170 -198 OFFCURVE",
"155 -202 OFFCURVE",
"138 -202 CURVE SMOOTH"
);
}
);
width = 231;
}
);
leftKerningGroup = i;
rightKerningGroup = i;
unicode = 012F;
},
{
glyphname = jdotless;
lastChange = "2017-05-25 15:40:52 +0000";
layers = (
{
anchors = (
{
name = bottom;
position = "{105, 0}";
},
{
name = top;
position = "{113, 450}";
}
);
hints = (
{
origin = "{0, 13}";
target = "{0, 14}";
type = Cap;
name = _cap.stm.mid.2;
}
);
layerId = "4A3087DE-C6CF-4F86-8B90-A264D0797279";
paths = (
{
closed = 1;
nodes = (
"82 0 LINE SMOOTH",
"82 -135 OFFCURVE",
"38 -171 OFFCURVE",
"-22 -191 CURVE",
"-13 -208 OFFCURVE",
"-10 -213 OFFCURVE",
"-7 -212 CURVE SMOOTH",
"92 -174 OFFCURVE",
"147 -135 OFFCURVE",
"145 0 CURVE SMOOTH",
"144 62 OFFCURVE",
"144 124 OFFCURVE",
"144 186 CURVE SMOOTH",
"144 440 LINE",
"82 440 LINE"
);
}
);
width = 210;
}
);
leftKerningGroup = jdotless;
rightKerningGroup = jdotless;
unicode = 0237;
},
{
glyphname = k;
lastChange = "2017-05-25 21:21:22 +0000";
layers = (
{
anchors = (
{
name = bottom;
position = "{249, 0}";
},
{
name = top;
position = "{244, 430}";
}
);
components = (
{
alignment = 1;
name = _stem.4;
}
);
layerId = "4A3087DE-C6CF-4F86-8B90-A264D0797279";
paths = (
{
closed = 1;
nodes = (
"237 168 OFFCURVE",
"286 116 OFFCURVE",
"347 38 CURVE SMOOTH",
"377 0 OFFCURVE",
"384 -5 OFFCURVE",
"404 -5 CURVE SMOOTH",
"414 -5 OFFCURVE",
"426 -3 OFFCURVE",
"436 0 CURVE SMOOTH",
"493 15 LINE",
"492 34 LINE",
"476 31 OFFCURVE",
"472 30 OFFCURVE",
"467 30 CURVE SMOOTH",
"454 30 OFFCURVE",
"442 34 OFFCURVE",
"334 158 CURVE SMOOTH",
"231 277 LINE",
"224 250 LINE",
"297 327 OFFCURVE",
"351 376 OFFCURVE",
"397 406 CURVE SMOOTH",
"417 419 OFFCURVE",
"424 420 OFFCURVE",
"438 420 CURVE",
"437 440 LINE",
"380 447 LINE",
"329 397 OFFCURVE",
"253 323 OFFCURVE",
"170 250 CURVE",
"169 235 LINE",
"175 234 OFFCURVE",
"181 230 OFFCURVE",
"192 218 CURVE SMOOTH"
);
}
);
width = 479;
}
);
leftKerningGroup = h;
leftMetricsKey = h;
rightKerningGroup = k;
unicode = 006B;
},
{
glyphname = l;
lastChange = "2017-05-25 21:57:45 +0000";
layers = (
{
anchors = (
{
name = bottom;
position = "{113, 0}";
},
{
name = center;
position = "{108, 450}";
},
{
name = top;
position = "{108, 727}";
},
{
name = topright;
position = "{222, 430}";
}
);
hints = (
{
origin = "{0, 1}";
target = "{0, 2}";
type = Cap;
name = _cap.stm.top.1;
},
{
origin = "{0, 3}";
target = "{0, 0}";
type = Cap;
name = _cap.stm.btm.2;
}
);
layerId = "4A3087DE-C6CF-4F86-8B90-A264D0797279";
paths = (
{
closed = 1;
nodes = (
"135 0 LINE",
"135 727 LINE",
"73 727 LINE",
"73 0 LINE"
);
}
);
width = 225;
}
);
leftKerningGroup = b;
leftMetricsKey = b;
rightKerningGroup = l;
unicode = 006C;
},
{
glyphname = m;
lastChange = "2017-05-26 11:50:45 +0000";
layers = (
{
anchors = (
{
name = bottom;
position = "{388, 0}";
},
{
name = entry;
position = "{458, 0}";
},
{
name = top;
position = "{388, 430}";
}
);
hints = (
{
origin = "{0, 0}";
target = "{0, 2}";
type = Cap;
name = _cap.stm.mid.1;
},
{
origin = "{0, 2}";
target = "{0, 3}";
type = Cap;
name = _cap.stm.btm.3;
},
{
origin = "{2, 10}";
target = "{2, 11}";
type = Cap;
name = _cap.stm.btm.3;
},
{
origin = "{1, 19}";
target = "{1, 0}";
type = Cap;
name = _cap.stm.btm.3;
}
);
layerId = "4A3087DE-C6CF-4F86-8B90-A264D0797279";
leftMetricsKey = "=n";
rightMetricsKey = "=n";
paths = (
{
closed = 1;
nodes = (
"156 440 LINE",
"94 440 LINE",
"94 0 LINE",
"156 0 LINE"
);
},
{
closed = 1;
nodes = (
"716 0 LINE",
"716 244 LINE SMOOTH",
"716 289 OFFCURVE",
"713 329 OFFCURVE",
"705 359 CURVE SMOOTH",
"690 416 OFFCURVE",
"642 454 OFFCURVE",
"567 454 CURVE SMOOTH",
"506 454 OFFCURVE",
"449 420 OFFCURVE",
"397 372 CURVE",
"436 197 LINE",
"436 280 LINE SMOOTH",
"436 371 OFFCURVE",
"481 411 OFFCURVE",
"538 411 CURVE SMOOTH",
"607 411 OFFCURVE",
"654 374 OFFCURVE",
"654 245 CURVE SMOOTH",
"654 0 LINE"
);
},
{
closed = 1;
nodes = (
"227 454 OFFCURVE",
"179 433 OFFCURVE",
"127 388 CURVE",
"156 305 LINE",
"156 390 OFFCURVE",
"207 412 OFFCURVE",
"251 412 CURVE SMOOTH",
"329 412 OFFCURVE",
"374 367 OFFCURVE",
"374 238 CURVE SMOOTH",
"374 0 LINE",
"436 0 LINE",
"436 247 LINE",
"421 367 LINE",
"398 429 OFFCURVE",
"341 454 OFFCURVE",
"279 454 CURVE SMOOTH"
);
}
);
width = 792;
}
);
leftKerningGroup = n;
leftMetricsKey = n;
rightKerningGroup = n;
rightMetricsKey = n;
unicode = 006D;
},
{
glyphname = eng;
lastChange = "2017-05-25 15:40:52 +0000";
layers = (
{
anchors = (
{
name = entry;
position = "{156, 0}";
}
);
components = (
{
alignment = -1;
name = _stem.6;
}
);
layerId = "4A3087DE-C6CF-4F86-8B90-A264D0797279";
paths = (
{
closed = 1;
nodes = (
"388 242 LINE",
"388 7 LINE SMOOTH",
"388 -128 OFFCURVE",
"374 -176 OFFCURVE",
"300 -176 CURVE",
"300 -199 OFFCURVE",
"302 -203 OFFCURVE",
"305 -203 CURVE SMOOTH",
"357 -203 OFFCURVE",
"391 -189 OFFCURVE",
"416 -158 CURVE SMOOTH",
"441 -127 OFFCURVE",
"454 -77 OFFCURVE",
"451 20 CURVE SMOOTH",
"450 55 OFFCURVE",
"450 101 OFFCURVE",
"450 156 CURVE SMOOTH",
"450 251 LINE"
);
},
{
closed = 1;
nodes = (
"239 454 OFFCURVE",
"179 426 OFFCURVE",
"127 361 CURVE",
"155 282 LINE",
"155 364 OFFCURVE",
"201 405 OFFCURVE",
"262 405 CURVE SMOOTH",
"339 405 OFFCURVE",
"388 360 OFFCURVE",
"388 233 CURVE",
"450 251 LINE",
"450 296 OFFCURVE",
"446 337 OFFCURVE",
"435 367 CURVE SMOOTH",
"412 429 OFFCURVE",
"355 454 OFFCURVE",
"294 454 CURVE SMOOTH"
);
}
);
width = 511;
}
);
leftKerningGroup = n;
leftMetricsKey = n;
rightKerningGroup = j;
unicode = 014B;
},
{
glyphname = o;
lastChange = "2017-05-26 11:34:21 +0000";
layers = (
{
anchors = (
{
name = bottom;
position = "{260, 0}";
},
{
name = center;
position = "{260, 215}";
},
{
name = ogonek;
position = "{468, 10}";
},
{
name = top;
position = "{260, 440}";
},
{
name = topright;
position = "{500, 430}";
}
);
layerId = "4A3087DE-C6CF-4F86-8B90-A264D0797279";
paths = (
{
closed = 1;
nodes = (
"145 454 OFFCURVE",
"42 371 OFFCURVE",
"42 218 CURVE SMOOTH",
"42 69 OFFCURVE",
"140 -14 OFFCURVE",
"256 -14 CURVE SMOOTH",
"366 -14 OFFCURVE",
"478 60 OFFCURVE",
"478 217 CURVE SMOOTH",
"478 357 OFFCURVE",
"389 454 OFFCURVE",
"263 454 CURVE SMOOTH"
);
},
{
closed = 1;
nodes = (
"167 22 OFFCURVE",
"114 114 OFFCURVE",
"114 223 CURVE SMOOTH",
"114 347 OFFCURVE",
"166 418 OFFCURVE",
"258 418 CURVE SMOOTH",
"353 418 OFFCURVE",
"406 325 OFFCURVE",
"406 210 CURVE SMOOTH",
"406 89 OFFCURVE",
"356 22 OFFCURVE",
"261 22 CURVE SMOOTH"
);
}
);
width = 520;
}
);
leftKerningGroup = o;
rightKerningGroup = o;
unicode = 006F;
},
{
glyphname = oslash;
lastChange = "2017-05-26 11:52:42 +0000";
layers = (
{
anchors = (
{
name = bottom;
position = "{266, 0}";
},
{
name = center;
position = "{266, 215}";
},
{
name = ogonek;
position = "{474, 10}";
},
{
name = top;
position = "{266, 450}";
},
{
name = topright;
position = "{506, 430}";
}
);
components = (
{
name = o;
}
);
layerId = "4A3087DE-C6CF-4F86-8B90-A264D0797279";
paths = (
{
closed = 1;
nodes = (
"423 485 LINE",
"118 55 LINE SMOOTH",
"99 28 OFFCURVE",
"82 4 OFFCURVE",
"62 -21 CURVE",
"95 -35 LINE",
"400 395 LINE SMOOTH",
"418 421 OFFCURVE",
"436 446 OFFCURVE",
"456 471 CURVE"
);
}
);
width = 520;
}
);
leftKerningGroup = o;
leftMetricsKey = o;
rightKerningGroup = o;
rightMetricsKey = o;
unicode = 00F8;
},
{
glyphname = oe;
lastChange = "2017-05-25 15:40:52 +0000";
layers = (
{
anchors = (
{
name = bottom;
position = "{746, 0}";
},
{
name = center;
position = "{262, 215}";
},
{
name = ogonek;
position = "{923, 0}";
},
{
name = top;
position = "{767, 450}";
},
{
name = topright;
position = "{502, 430}";
}
);
components = (
{
name = e;
transform = "{1, 0, 0, 1, 371, 0}";
}
);
layerId = "4A3087DE-C6CF-4F86-8B90-A264D0797279";
paths = (
{
closed = 1;
nodes = (
"144 464 OFFCURVE",
"42 373 OFFCURVE",
"42 225 CURVE SMOOTH",
"42 77 OFFCURVE",
"124 -14 OFFCURVE",
"252 -14 CURVE SMOOTH",
"356 -14 OFFCURVE",
"443 45 OFFCURVE",
"472 148 CURVE",
"471 313 LINE",
"444 408 OFFCURVE",
"372 464 OFFCURVE",
"272 464 CURVE SMOOTH"
);
},
{
closed = 1;
nodes = (
"179 19 OFFCURVE",
"111 94 OFFCURVE",
"111 255 CURVE SMOOTH",
"111 356 OFFCURVE",
"165 432 OFFCURVE",
"256 432 CURVE SMOOTH",
"348 432 OFFCURVE",
"417 356 OFFCURVE",
"417 195 CURVE SMOOTH",
"417 89 OFFCURVE",
"356 19 OFFCURVE",
"271 19 CURVE SMOOTH"
);
}
);
width = 820;
}
);
leftKerningGroup = o;
leftMetricsKey = o;
rightKerningGroup = e;
rightMetricsKey = e;
unicode = 0153;
},
{
glyphname = thorn;
lastChange = "2017-05-26 11:52:22 +0000";
layers = (
{
anchors = (
{
name = entry;
position = "{133, 0}";
},
{
name = exit;
position = "{133, 0}";
}
);
components = (
{
alignment = 1;
name = _bowl.1;
transform = "{1, 0, 0, 1, 111, 0}";
}
);
hints = (
{
origin = "{0, 7}";
target = "{0, 0}";
type = Cap;
name = _cap.stm.btm.3;
},
{
origin = "{0, 5}";
target = "{0, 6}";
type = Cap;
name = _cap.stm.top.1;
}
);
layerId = "4A3087DE-C6CF-4F86-8B90-A264D0797279";
paths = (
{
closed = 1;
nodes = (
"135 -219 LINE",
"135 114 LINE",
"133 113 LINE",
"133 337 LINE",
"135 336 LINE",
"135 727 LINE",
"73 727 LINE",
"73 -219 LINE"
);
}
);
width = 508;
}
);
leftKerningGroup = h;
leftMetricsKey = b;
rightKerningGroup = o;
rightMetricsKey = o;
unicode = 00FE;
},
{
glyphname = r;
lastChange = "2017-05-25 21:35:06 +0000";
layers = (
{
anchors = (
{
name = bottom;
position = "{125, 0}";
},
{
name = top;
position = "{170, 440}";
}
);
components = (
{
name = _stem.6;
}
);
layerId = "4A3087DE-C6CF-4F86-8B90-A264D0797279";
leftMetricsKey = "=n";
paths = (
{
closed = 1;
nodes = (
"161 454 OFFCURVE",
"137 358 OFFCURVE",
"142 304 CURVE",
"156 301 LINE",
"156 368 OFFCURVE",
"185 397 OFFCURVE",
"226 397 CURVE SMOOTH",
"246 397 OFFCURVE",
"269 394 OFFCURVE",
"287 390 CURVE",
"290 437 LINE",
"283 448 OFFCURVE",
"270 454 OFFCURVE",
"253 454 CURVE SMOOTH"
);
}
);
width = 310;
}
);
leftKerningGroup = n;
leftMetricsKey = n;
rightKerningGroup = r;
unicode = 0072;
},
{
glyphname = s;
lastChange = "2017-05-26 11:08:00 +0000";
layers = (
{
anchors = (
{
name = bottom;
position = "{166, 0}";
},
{
name = top;
position = "{184, 440}";
}
);
layerId = "4A3087DE-C6CF-4F86-8B90-A264D0797279";
paths = (
{
closed = 1;
nodes = (
"120 25 OFFCURVE",
"86 38 OFFCURVE",
"50 98 CURVE",
"34 96 LINE",
"35 14 OFFCURVE",
"59 -14 OFFCURVE",
"121 -14 CURVE SMOOTH",
"220 -14 OFFCURVE",
"304 52 OFFCURVE",
"304 128 CURVE SMOOTH",
"304 182 OFFCURVE",
"275 213 OFFCURVE",
"192 270 CURVE SMOOTH",
"139 310 OFFCURVE",
"119 332 OFFCURVE",
"119 357 CURVE SMOOTH",
"119 379 OFFCURVE",
"138 408 OFFCURVE",
"178 408 CURVE SMOOTH",
"210 408 OFFCURVE",
"238 400 OFFCURVE",
"272 368 CURVE",
"288 370 LINE",
"286 434 OFFCURVE",
"248 454 OFFCURVE",
"211 454 CURVE SMOOTH",
"144 454 OFFCURVE",
"73 389 OFFCURVE",
"73 327 CURVE SMOOTH",
"73 271 OFFCURVE",
"99 245 OFFCURVE",
"154 205 CURVE SMOOTH",
"228 151 OFFCURVE",
"247 120 OFFCURVE",
"247 94 CURVE SMOOTH",
"247 56 OFFCURVE",
"208 25 OFFCURVE",
"160 25 CURVE SMOOTH"
);
}
);
width = 348;
},
{
associatedMasterId = "4A3087DE-C6CF-4F86-8B90-A264D0797279";
layerId = "CDBEBA36-1D7A-4F71-A968-671435AC6B2F";
name = "Oct 5 16, 04:01";
paths = (
{
closed = 1;
nodes = (
"129 25 OFFCURVE",
"99 48 OFFCURVE",
"68 89 CURVE",
"49 87 OFFCURVE",
"37 74 OFFCURVE",
"37 50 CURVE SMOOTH",
"37 9 OFFCURVE",
"86 -14 OFFCURVE",
"141 -14 CURVE SMOOTH",
"217 -14 OFFCURVE",
"305 48 OFFCURVE",
"305 118 CURVE SMOOTH",
"305 169 OFFCURVE",
"273 204 OFFCURVE",
"189 270 CURVE SMOOTH",
"142 307 OFFCURVE",
"126 327 OFFCURVE",
"126 354 CURVE SMOOTH",
"126 388 OFFCURVE",
"147 404 OFFCURVE",
"175 404 CURVE SMOOTH",
"210 404 OFFCURVE",
"238 390 OFFCURVE",
"269 352 CURVE",
"277 352 OFFCURVE",
"290 364 OFFCURVE",
"290 392 CURVE SMOOTH",
"290 425 OFFCURVE",
"260 444 OFFCURVE",
"204 444 CURVE SMOOTH",
"143 444 OFFCURVE",
"66 383 OFFCURVE",
"66 315 CURVE SMOOTH",
"66 274 OFFCURVE",
"98 241 OFFCURVE",
"163 191 CURVE SMOOTH",
"215 151 OFFCURVE",
"240 116 OFFCURVE",
"240 81 CURVE SMOOTH",
"240 54 OFFCURVE",
"221 25 OFFCURVE",
"179 25 CURVE SMOOTH"
);
}
);
width = 358;
}
);
leftKerningGroup = s;
rightKerningGroup = s;
unicode = 0073;
},
{
glyphname = germandbls;
lastChange = "2017-05-25 15:43:43 +0000";
layers = (
{
hints = (
{
origin = "{0, 18}";
target = "{0, 19}";
type = Cap;
name = _cap.stm.btm.3;
}
);
layerId = "4A3087DE-C6CF-4F86-8B90-A264D0797279";
paths = (
{
closed = 1;
nodes = (
"334 355 OFFCURVE",
"307 394 OFFCURVE",
"307 420 CURVE SMOOTH",
"307 443 OFFCURVE",
"329 461 OFFCURVE",
"369 472 CURVE",
"409 501 OFFCURVE",
"438 552 OFFCURVE",
"438 604 CURVE SMOOTH",
"438 680 OFFCURVE",
"370 734 OFFCURVE",
"298 734 CURVE SMOOTH",
"234 734 OFFCURVE",
"177 705 OFFCURVE",
"144 656 CURVE SMOOTH",
"120 621 OFFCURVE",
"104 563 OFFCURVE",
"104 483 CURVE SMOOTH",
"104 0 LINE",
"166 0 LINE",
"166 512 LINE SMOOTH",
"166 651 OFFCURVE",
"208 694 OFFCURVE",
"269 694 CURVE SMOOTH",
"334 694 OFFCURVE",
"376 633 OFFCURVE",
"376 563 CURVE SMOOTH",
"376 525 OFFCURVE",
"369 506 OFFCURVE",
"353 499 CURVE SMOOTH",
"292 472 OFFCURVE",
"256 440 OFFCURVE",
"256 386 CURVE SMOOTH",
"256 330 OFFCURVE",
"306 281 OFFCURVE",
"365 235 CURVE SMOOTH",
"429 185 OFFCURVE",
"465 148 OFFCURVE",
"465 94 CURVE SMOOTH",
"465 53 OFFCURVE",
"429 22 OFFCURVE",
"381 22 CURVE SMOOTH",
"341 22 OFFCURVE",
"303 38 OFFCURVE",
"275 101 CURVE",
"255 96 LINE",
"256 14 OFFCURVE",
"290 -14 OFFCURVE",
"342 -14 CURVE SMOOTH",
"441 -14 OFFCURVE",
"523 43 OFFCURVE",
"523 131 CURVE SMOOTH",
"523 191 OFFCURVE",
"492 236 OFFCURVE",
"407 300 CURVE SMOOTH"
);
}
);
width = 564;
}
);
unicode = 00DF;
},
{
glyphname = t;
lastChange = "2017-05-25 21:37:05 +0000";
layers = (
{
anchors = (
{
name = bottom;
position = "{165, 0}";
},
{
name = center;
position = "{120, 265}";
},
{
name = top;
position = "{165, 430}";
},
{
name = topright;
position = "{188, 483}";
}
);
layerId = "4A3087DE-C6CF-4F86-8B90-A264D0797279";
paths = (
{
closed = 1;
nodes = (
"275 410 LINE SMOOTH",
"279 410 OFFCURVE",
"280 412 OFFCURVE",
"280 441 CURVE",
"239 440 OFFCURVE",
"193 440 OFFCURVE",
"145 440 CURVE",
"145 462 OFFCURVE",
"146 485 OFFCURVE",
"148 521 CURVE",
"85 509 LINE",
"83 441 LINE",
"30 433 LINE SMOOTH",
"27 433 OFFCURVE",
"27 426 OFFCURVE",
"27 410 CURVE",
"83 410 LINE",
"83 180 LINE SMOOTH",
"83 96 OFFCURVE",
"85 69 OFFCURVE",
"95 43 CURVE SMOOTH",
"111 0 OFFCURVE",
"139 -10 OFFCURVE",
"183 -10 CURVE SMOOTH",
"217 -10 OFFCURVE",
"247 -1 OFFCURVE",
"280 14 CURVE",
"281 42 LINE",
"262 33 OFFCURVE",
"240 27 OFFCURVE",
"215 27 CURVE SMOOTH",
"167 27 OFFCURVE",
"145 47 OFFCURVE",
"145 178 CURVE SMOOTH",
"145 410 LINE"
);
}
);
width = 312;
}
);
leftKerningGroup = t;
rightKerningGroup = t;
unicode = 0074;
},
{
glyphname = u;
lastChange = "2017-05-26 11:51:54 +0000";
layers = (
{
anchors = (
{
name = bottom;
position = "{259, 0}";
},
{
name = ogonek;
position = "{481, 0}";
},
{
name = top;
position = "{239, 440}";
},
{
name = topright;
position = "{498, 430}";
}
);
hints = (
{
origin = "{0, 2}";
target = "{0, 3}";
type = Cap;
name = _cap.stm.mid.2;
},
{
origin = "{0, 0}";
target = "{0, 1}";
type = Cap;
name = _cap.stm.btm.4;
},
{
origin = "{1, 13}";
target = "{1, 14}";
type = Cap;
name = _cap.stm.mid.2;
}
);
layerId = "4A3087DE-C6CF-4F86-8B90-A264D0797279";
paths = (
{
closed = 1;
nodes = (
"363 0 LINE",
"425 0 LINE",
"425 440 LINE",
"363 440 LINE"
);
},
{
closed = 1;
nodes = (
"279 -14 OFFCURVE",
"339 8 OFFCURVE",
"391 53 CURVE",
"363 118 LINE",
"363 63 OFFCURVE",
"308 25 OFFCURVE",
"247 25 CURVE SMOOTH",
"207 25 OFFCURVE",
"179 39 OFFCURVE",
"159 72 CURVE SMOOTH",
"140 103 OFFCURVE",
"135 140 OFFCURVE",
"135 211 CURVE SMOOTH",
"135 440 LINE",
"73 440 LINE",
"73 189 LINE SMOOTH",
"73 144 OFFCURVE",
"77 103 OFFCURVE",
"88 73 CURVE SMOOTH",
"111 11 OFFCURVE",
"168 -14 OFFCURVE",
"227 -14 CURVE SMOOTH"
);
}
);
width = 513;
}
);
leftKerningGroup = u;
leftMetricsKey = "=|n-10";
rightKerningGroup = u;
rightMetricsKey = "=|n-15";
unicode = 0075;
},
{
glyphname = uogonek;
lastChange = "2017-05-25 15:40:52 +0000";
layers = (
{
anchors = (
{
name = _ogonek;
position = "{498, 0}";
}
);
components = (
{
name = u;
}
);
layerId = "4A3087DE-C6CF-4F86-8B90-A264D0797279";
paths = (
{
closed = 1;
nodes = (
"391 -202 OFFCURVE",
"366 -181 OFFCURVE",
"366 -126 CURVE SMOOTH",
"366 -62 OFFCURVE",
"414 -15 OFFCURVE",
"479 10 CURVE",
"455 15 LINE",
"377 -7 OFFCURVE",
"310 -70 OFFCURVE",
"310 -137 CURVE SMOOTH",
"310 -198 OFFCURVE",
"351 -228 OFFCURVE",
"393 -228 CURVE SMOOTH",
"431 -228 OFFCURVE",
"454 -217 OFFCURVE",
"477 -198 CURVE",
"470 -187 LINE",
"451 -198 OFFCURVE",
"436 -202 OFFCURVE",
"419 -202 CURVE SMOOTH"
);
}
);
width = 552;
}
);
leftKerningGroup = u;
rightKerningGroup = u;
unicode = 0173;
},
{
glyphname = v;
lastChange = "2017-05-26 11:05:35 +0000";
layers = (
{
anchors = (
{
name = bottom;
position = "{236, 0}";
},
{
name = top;
position = "{236, 440}";
}
);
hints = (
{
origin = "{0, 1}";
type = Corner;
name = _corner.stm.out.1;
},
{
origin = "{0, 10}";
scale = "{-1, 1}";
type = Corner;
name = _corner.stm.out.1;
options = 1;
}
);
layerId = "4A3087DE-C6CF-4F86-8B90-A264D0797279";
paths = (
{
closed = 1;
nodes = (
"240 -6 LINE",
"429 440 LINE",
"379 440 LINE",
"332 310 OFFCURVE",
"277 170 OFFCURVE",
"218 30 CURVE",
"258 51 LINE",
"202 185 OFFCURVE",
"151 320 OFFCURVE",
"111 440 CURVE",
"35 440 LINE",
"216 -6 LINE"
);
}
);
width = 455;
}
);
leftKerningGroup = v;
rightKerningGroup = v;
unicode = 0076;
},
{
glyphname = w;
lastChange = "2017-05-26 11:05:32 +0000";
layers = (
{
anchors = (
{
name = bottom;
position = "{360, 0}";
},
{
name = top;
position = "{364, 440}";
}
);
hints = (
{
origin = "{0, 16}";
scale = "{-1, 1}";
type = Corner;
name = _corner.stm.out.1;
options = 1;
},
{
origin = "{0, 27}";
type = Corner;
name = _corner.stm.out.1;
}
);
layerId = "4A3087DE-C6CF-4F86-8B90-A264D0797279";
leftMetricsKey = "=v";
paths = (
{
closed = 1;
nodes = (
"628 440 LINE",
"591 313 OFFCURVE",
"551 187 OFFCURVE",
"506 70 CURVE",
"524 77 LINE",
"481 164 OFFCURVE",
"429 289 OFFCURVE",
"374 430 CURVE",
"353 430 LINE",
"299 282 OFFCURVE",
"256 171 OFFCURVE",
"206 63 CURVE",
"231 76 LINE",
"184 198 OFFCURVE",
"145 319 OFFCURVE",
"112 440 CURVE",
"37 440 LINE",
"193 -6 LINE",
"213 -6 LINE",
"248 87 OFFCURVE",
"304 214 OFFCURVE",
"362 340 CURVE",
"342 334 LINE",
"394 230 OFFCURVE",
"443 119 OFFCURVE",
"493 -6 CURVE",
"513 -6 LINE",
"681 440 LINE"
);
}
);
width = 709;
}
);
leftKerningGroup = w;
leftMetricsKey = v;
rightKerningGroup = w;
rightMetricsKey = v;
unicode = 0077;
},
{
glyphname = x;
lastChange = "2017-05-25 15:40:52 +0000";
layers = (
{
anchors = (
{
name = bottom;
position = "{242, 0}";
},
{
name = top;
position = "{234, 430}";
}
);
hints = (
{
origin = "{2, 9}";
scale = "{-1, 1}";
type = Corner;
name = _corner.stm.out.1;
options = 1;
},
{
origin = "{2, 4}";
scale = "{-1, 1}";
type = Corner;
name = _corner.stm.out.1;
options = 1;
},
{
origin = "{1, 1}";
type = Corner;
name = _corner.stm.out.1;
},
{
origin = "{0, 1}";
type = Corner;
name = _corner.stm.out.1;
}
);
layerId = "4A3087DE-C6CF-4F86-8B90-A264D0797279";
paths = (
{
closed = 1;
nodes = (
"206 241 LINE",
"29 0 LINE",
"86 0 LINE",
"123 69 OFFCURVE",
"167 136 OFFCURVE",
"219 207 CURVE"
);
},
{
closed = 1;
nodes = (
"230 221 LINE",
"389 440 LINE",
"336 440 LINE",
"293 364 OFFCURVE",
"258 311 OFFCURVE",
"217 251 CURVE"
);
},
{
closed = 1;
nodes = (
"246 258 LINE",
"201 322 OFFCURVE",
"165 376 OFFCURVE",
"128 440 CURVE",
"44 440 LINE",
"205 214 LINE",
"255 140 OFFCURVE",
"299 71 OFFCURVE",
"339 0 CURVE",
"424 0 LINE"
);
}
);
width = 448;
}
);
leftKerningGroup = x;
rightKerningGroup = x;
unicode = 0078;
},
{
glyphname = y;
lastChange = "2017-05-26 11:05:50 +0000";
layers = (
{
anchors = (
{
name = bottom;
position = "{211, 0}";
},
{
name = top;
position = "{239, 440}";
}
);
hints = (
{
origin = "{0, 7}";
scale = "{-1, 1}";
type = Corner;
name = _corner.stm.out.1;
options = 1;
},
{
origin = "{0, 18}";
type = Corner;
name = _corner.stm.out.1;
}
);
layerId = "4A3087DE-C6CF-4F86-8B90-A264D0797279";
rightMetricsKey = "=v";
paths = (
{
closed = 1;
nodes = (
"323 299 OFFCURVE",
"276 178 OFFCURVE",
"225 54 CURVE",
"251 53 LINE",
"196 185 OFFCURVE",
"150 307 OFFCURVE",
"104 440 CURVE",
"29 440 LINE",
"208 -3 LINE",
"219 50 LINE",
"161 -94 OFFCURVE",
"90 -151 OFFCURVE",
"4 -157 CURVE",
"1 -160 LINE",
"41 -213 LINE",
"118 -203 OFFCURVE",
"165 -169 OFFCURVE",
"234 -6 CURVE SMOOTH",
"423 440 LINE",
"374 440 LINE"
);
}
);
width = 449;
}
);
leftKerningGroup = y;
leftMetricsKey = "=v-10";
rightKerningGroup = y;
rightMetricsKey = v;
unicode = 0079;
},
{
glyphname = z;
lastChange = "2017-05-25 21:33:19 +0000";
layers = (
{
anchors = (
{
name = bottom;
position = "{214, 0}";
},
{
name = top;
position = "{215, 440}";
}
);
layerId = "4A3087DE-C6CF-4F86-8B90-A264D0797279";
paths = (
{
closed = 1;
nodes = (
"255 410 OFFCURVE",
"211 410 OFFCURVE",
"186 410 CURVE SMOOTH",
"128 410 OFFCURVE",
"90 406 OFFCURVE",
"75 386 CURVE SMOOTH",
"61 368 LINE",
"41 373 LINE",
"46 392 OFFCURVE",
"51 407 OFFCURVE",
"57 420 CURVE SMOOTH",
"65 438 OFFCURVE",
"78 440 OFFCURVE",
"107 440 CURVE SMOOTH",
"148 440 LINE SMOOTH",
"245 440 OFFCURVE",
"293 440 OFFCURVE",
"350 442 CURVE",
"352 437 LINE",
"274 311 OFFCURVE",
"188 155 OFFCURVE",
"118 18 CURVE",
"112 30 LINE",
"151 28 OFFCURVE",
"197 28 OFFCURVE",
"229 28 CURVE SMOOTH",
"321 28 OFFCURVE",
"351 35 OFFCURVE",
"378 69 CURVE SMOOTH",
"386 79 LINE",
"402 75 LINE",
"397 53 OFFCURVE",
"391 33 OFFCURVE",
"383 13 CURVE SMOOTH",
"379 3 OFFCURVE",
"369 0 OFFCURVE",
"347 0 CURVE SMOOTH",
"135 0 OFFCURVE",
"91 0 OFFCURVE",
"31 -2 CURVE",
"30 2 LINE",
"110 133 OFFCURVE",
"207 308 OFFCURVE",
"266 425 CURVE",
"280 408 LINE"
);
}
);
width = 417;
}
);
leftKerningGroup = z;
rightKerningGroup = z;
unicode = 007A;
},
{
export = 0;
glyphname = t.forliga.1;
lastChange = "2017-05-25 15:42:42 +0000";
layers = (
{
layerId = "4A3087DE-C6CF-4F86-8B90-A264D0797279";
paths = (
{
closed = 1;
nodes = (
"248 410 LINE SMOOTH",
"252 410 OFFCURVE",
"253 414 OFFCURVE",
"253 441 CURVE",
"212 440 OFFCURVE",
"166 440 OFFCURVE",
"118 440 CURVE",
"56 441 LINE",
"3 433 LINE SMOOTH",
"0 433 OFFCURVE",
"0 426 OFFCURVE",
"0 410 CURVE",
"56 410 LINE",
"56 180 LINE SMOOTH",
"56 96 OFFCURVE",
"58 69 OFFCURVE",
"68 43 CURVE SMOOTH",
"84 0 OFFCURVE",
"112 -10 OFFCURVE",
"156 -10 CURVE SMOOTH",
"190 -10 OFFCURVE",
"220 -1 OFFCURVE",
"253 14 CURVE",
"254 42 LINE",
"235 33 OFFCURVE",
"213 27 OFFCURVE",
"188 27 CURVE SMOOTH",
"140 27 OFFCURVE",
"118 47 OFFCURVE",
"118 178 CURVE SMOOTH",
"118 410 LINE"
);
}
);
width = 254;
}
);
},
{
glyphname = T_h;
lastChange = "2017-05-26 11:52:27 +0000";
layers = (
{
anchors = (
{
name = bottom;
position = "{801, 0}";
},
{
name = center;
position = "{659, 570}";
},
{
name = "center#2";
position = "{274, 325}";
},
{
name = exit;
position = "{690, 0}";
},
{
name = top;
position = "{659, 727}";
}
);
components = (
{
name = _shoulder.1;
transform = "{1, 0, 0, 1, 449, 0}";
}
);
hints = (
{
origin = "{0, 25}";
target = "{0, 0}";
type = Cap;
name = _cap.stm.btm.3;
},
{
origin = "{1, 8}";
type = Corner;
name = _corner.STM.btm.1;
},
{
origin = "{1, 9}";
scale = "{-1, 1}";
type = Corner;
name = _corner.STM.btm.1;
}
);
layerId = "4A3087DE-C6CF-4F86-8B90-A264D0797279";
paths = (
{
closed = 1;
nodes = (
"604 0 LINE",
"604 482 LINE SMOOTH",
"604 560 OFFCURVE",
"605 642 OFFCURVE",
"610 727 CURVE",
"529 709 LINE",
"534 694 OFFCURVE",
"538 682 OFFCURVE",
"537 635 CURVE",
"577 653 LINE",
"536 651 OFFCURVE",
"499 650 OFFCURVE",
"443 650 CURVE SMOOTH",
"252 650 LINE",
"291 616 LINE",
"352 616 LINE SMOOTH",
"414 616 OFFCURVE",
"442 616 OFFCURVE",
"506 615 CURVE SMOOTH",
"530 614 OFFCURVE",
"536 607 OFFCURVE",
"538 588 CURVE SMOOTH",
"541 556 OFFCURVE",
"542 493 OFFCURVE",
"542 405 CURVE SMOOTH",
"542 0 LINE"
);
},
{
closed = 1;
nodes = (
"307 452 LINE SMOOTH",
"307 520 OFFCURVE",
"308 573 OFFCURVE",
"311 635 CURVE",
"237 635 LINE",
"240 573 OFFCURVE",
"241 520 OFFCURVE",
"241 452 CURVE SMOOTH",
"241 0 LINE",
"307 0 LINE"
);
},
{
closed = 1;
nodes = (
"296 650 LINE",
"153 650 LINE SMOOTH",
"97 650 OFFCURVE",
"61 650 OFFCURVE",
"50 651 CURVE SMOOTH",
"24 653 OFFCURVE",
"20 649 OFFCURVE",
"19 644 CURVE SMOOTH",
"14 621 OFFCURVE",
"8 577 OFFCURVE",
"6 549 CURVE",
"27 547 LINE",
"32 557 LINE SMOOTH",
"57 608 OFFCURVE",
"74 616 OFFCURVE",
"174 616 CURVE SMOOTH",
"257 616 LINE"
);
}
);
width = 975;
}
);
leftKerningGroup = T;
leftMetricsKey = T;
rightKerningGroup = _stem.4;
rightMetricsKey = h;
},
{
glyphname = c_t;
lastChange = "2017-05-25 15:40:52 +0000";
layers = (
{
components = (
{
name = c;
},
{
name = t.forliga.1;
transform = "{1, 0, 0, 1, 480, 0}";
}
);
layerId = "4A3087DE-C6CF-4F86-8B90-A264D0797279";
paths = (
{
closed = 1;
nodes = (
"400 302 LINE",
"408 379 OFFCURVE",
"381 421 OFFCURVE",
"381 496 CURVE SMOOTH",
"381 566 OFFCURVE",
"419 591 OFFCURVE",
"464 591 CURVE SMOOTH",
"506 591 OFFCURVE",
"536 550 OFFCURVE",
"536 483 CURVE SMOOTH",
"536 441 LINE",
"598 440 LINE",
"598 479 LINE SMOOTH",
"598 507 OFFCURVE",
"596 533 OFFCURVE",
"592 546 CURVE SMOOTH",
"578 592 OFFCURVE",
"544 624 OFFCURVE",
"473 624 CURVE SMOOTH",
"423 624 OFFCURVE",
"346 594 OFFCURVE",
"346 493 CURVE SMOOTH",
"346 455 OFFCURVE",
"362 400 OFFCURVE",
"369 367 CURVE"
);
}
);
width = 765;
}
);
leftKerningGroup = o;
leftMetricsKey = c;
rightKerningGroup = t;
rightMetricsKey = t;
},
{
glyphname = f_f_i;
lastChange = "2017-05-25 15:40:52 +0000";
layers = (
{
anchors = (
{
name = bottom;
position = "{168, 0}";
},
{
name = top;
position = "{168, 430}";
}
);
components = (
{
alignment = -1;
name = f_i;
transform = "{1, 0, 0, 1, 253, 0}";
}
);
hints = (
{
origin = "{0, 10}";
target = "{0, 11}";
type = Cap;
name = _cap.stm.btm.3;
}
);
layerId = "4A3087DE-C6CF-4F86-8B90-A264D0797279";
paths = (
{
closed = 1;
nodes = (
"412 632 LINE",
"401 696 OFFCURVE",
"349 734 OFFCURVE",
"284 734 CURVE SMOOTH",
"220 734 OFFCURVE",
"170 705 OFFCURVE",
"142 656 CURVE SMOOTH",
"121 619 OFFCURVE",
"114 583 OFFCURVE",
"114 533 CURVE SMOOTH",
"114 0 LINE",
"176 0 LINE",
"176 550 LINE SMOOTH",
"176 659 OFFCURVE",
"209 702 OFFCURVE",
"262 702 CURVE SMOOTH",
"321 702 OFFCURVE",
"355 653 OFFCURVE",
"362 592 CURVE SMOOTH",
"366 559 OFFCURVE",
"367 536 OFFCURVE",
"367 473 CURVE"
);
},
{
closed = 1;
nodes = (
"48 410 LINE",
"313 410 LINE",
"313 440 LINE",
"50 440 LINE"
);
}
);
width = 771;
}
);
leftKerningGroup = f;
leftMetricsKey = f;
rightKerningGroup = idotless;
rightMetricsKey = i;
},
{
glyphname = f_f_l;
lastChange = "2017-05-25 15:40:52 +0000";
layers = (
{
anchors = (
{
name = bottom;
position = "{772, 0}";
},
{
name = center;
position = "{767, 450}";
},
{
name = top;
position = "{767, 727}";
},
{
name = topright;
position = "{881, 430}";
}
);
components = (
{
name = f_l;
transform = "{1, 0, 0, 1, 289, 0}";
}
);
hints = (
{
origin = "{0, 10}";
target = "{0, 11}";
type = Cap;
name = _cap.stm.btm.3;
}
);
layerId = "4A3087DE-C6CF-4F86-8B90-A264D0797279";
paths = (
{
closed = 1;
nodes = (
"440 619 LINE",
"429 693 OFFCURVE",
"380 734 OFFCURVE",
"292 734 CURVE SMOOTH",
"221 734 OFFCURVE",
"170 705 OFFCURVE",
"142 656 CURVE SMOOTH",
"121 619 OFFCURVE",
"114 583 OFFCURVE",
"114 533 CURVE SMOOTH",
"114 0 LINE",
"176 0 LINE",
"176 550 LINE SMOOTH",
"176 659 OFFCURVE",
"208 704 OFFCURVE",
"271 704 CURVE SMOOTH",
"340 704 OFFCURVE",
"384 645 OFFCURVE",
"390 592 CURVE SMOOTH",
"394 559 OFFCURVE",
"395 536 OFFCURVE",
"395 473 CURVE"
);
},
{
closed = 1;
nodes = (
"48 410 LINE",
"371 410 LINE",
"371 440 LINE",
"50 440 LINE"
);
}
);
width = 828;
}
);
leftKerningGroup = f;
leftMetricsKey = f;
rightKerningGroup = l;
rightMetricsKey = l;
},
{
glyphname = f_i;
lastChange = "2017-05-25 15:40:52 +0000";
layers = (
{
anchors = (
{
name = bottom;
position = "{168, 0}";
},
{
name = ogonek;
position = "{489, 10}";
},
{
name = top;
position = "{168, 430}";
}
);
hints = (
{
origin = "{0, 13}";
target = "{0, 14}";
type = Cap;
name = _cap.stm.btm.3;
},
{
place = "{373, 54}";
type = Cap;
name = _cap.stm.btm.2;
},
{
place = "{427, -54}";
type = Cap;
name = _cap.stm.mid.2;
},
{
origin = "{2, 2}";
target = "{2, 3}";
type = Cap;
name = _cap.stm.btm.2;
}
);
layerId = "4A3087DE-C6CF-4F86-8B90-A264D0797279";
paths = (
{
closed = 1;
nodes = (
"417 598 LINE",
"420 628 OFFCURVE",
"420 638 OFFCURVE",
"420 645 CURVE SMOOTH",
"420 696 OFFCURVE",
"390 734 OFFCURVE",
"303 734 CURVE SMOOTH",
"229 734 OFFCURVE",
"177 704 OFFCURVE",
"147 656 CURVE SMOOTH",
"124 619 OFFCURVE",
"114 576 OFFCURVE",
"114 513 CURVE SMOOTH",
"114 0 LINE",
"176 0 LINE",
"176 530 LINE SMOOTH",
"176 654 OFFCURVE",
"208 700 OFFCURVE",
"279 700 CURVE SMOOTH",
"329 700 OFFCURVE",
"376 672 OFFCURVE",
"401 594 CURVE"
);
},
{
closed = 1;
nodes = (
"48 410 LINE",
"249 410 LINE SMOOTH",
"349 410 OFFCURVE",
"362 407 OFFCURVE",
"364 390 CURVE SMOOTH",
"366 372 OFFCURVE",
"367 351 OFFCURVE",
"367 325 CURVE SMOOTH",
"367 197 LINE",
"429 203 LINE",
"429 287 OFFCURVE",
"430 370 OFFCURVE",
"434 440 CURVE",
"429 443 LINE",
"361 440 OFFCURVE",
"125 440 OFFCURVE",
"50 440 CURVE"
);
},
{
closed = 1;
nodes = (
"429 204 LINE",
"367 204 LINE",
"367 0 LINE",
"429 0 LINE"
);
}
);
width = 518;
}
);
leftKerningGroup = f;
leftMetricsKey = f;
rightKerningGroup = idotless;
rightMetricsKey = i;
},
{
glyphname = f_l;
lastChange = "2017-05-25 15:40:52 +0000";
layers = (
{
hints = (
{
origin = "{1, 13}";
target = "{1, 14}";
type = Cap;
name = _cap.stm.btm.3;
},
{
origin = "{0, 3}";
target = "{0, 0}";
type = Cap;
name = _cap.stm.btm.2;
}
);
layerId = "4A3087DE-C6CF-4F86-8B90-A264D0797279";
paths = (
{
closed = 1;
nodes = (
"449 0 LINE",
"449 494 LINE",
"387 502 LINE",
"387 0 LINE"
);
},
{
closed = 1;
nodes = (
"449 494 LINE",
"449 550 OFFCURVE",
"445 594 OFFCURVE",
"434 628 CURVE SMOOTH",
"414 692 OFFCURVE",
"361 730 OFFCURVE",
"285 730 CURVE SMOOTH",
"220 730 OFFCURVE",
"165 705 OFFCURVE",
"137 656 CURVE SMOOTH",
"112 612 OFFCURVE",
"106 573 OFFCURVE",
"106 503 CURVE SMOOTH",
"106 0 LINE",
"168 0 LINE",
"168 550 LINE SMOOTH",
"168 654 OFFCURVE",
"206 698 OFFCURVE",
"266 698 CURVE SMOOTH",
"342 698 OFFCURVE",
"387 639 OFFCURVE",
"387 502 CURVE"
);
},
{
closed = 1;
nodes = (
"48 410 LINE",
"283 410 LINE SMOOTH",
"286 410 OFFCURVE",
"287 412 OFFCURVE",
"287 442 CURVE",
"226 440 OFFCURVE",
"127 440 OFFCURVE",
"50 440 CURVE"
);
}
);
width = 539;
}
);
leftKerningGroup = f;
leftMetricsKey = f;
rightKerningGroup = l;
rightMetricsKey = l;
},
{
glyphname = s_t;
lastChange = "2017-05-26 11:09:28 +0000";
layers = (
{
components = (
{
name = s;
},
{
name = t.forliga.1;
transform = "{1, 0, 0, 1, 380, 0}";
}
);
layerId = "4A3087DE-C6CF-4F86-8B90-A264D0797279";
paths = (
{
closed = 1;
nodes = (
"281 370 LINE",
"281 416 OFFCURVE",
"261 450 OFFCURVE",
"261 496 CURVE SMOOTH",
"261 566 OFFCURVE",
"301 591 OFFCURVE",
"346 591 CURVE SMOOTH",
"408 591 OFFCURVE",
"439 545 OFFCURVE",
"436 441 CURVE",
"498 440 LINE",
"509 589 OFFCURVE",
"449 624 OFFCURVE",
"368 624 CURVE SMOOTH",
"308 624 OFFCURVE",
"226 594 OFFCURVE",
"226 493 CURVE SMOOTH",
"226 468 OFFCURVE",
"231 439 OFFCURVE",
"242 406 CURVE"
);
}
);
width = 665;
}
);
leftKerningGroup = s;
leftMetricsKey = s;
rightKerningGroup = t;
rightMetricsKey = t;
},
{
glyphname = zero;
lastChange = "2017-05-26 10:34:27 +0000";
layers = (
{
layerId = "4A3087DE-C6CF-4F86-8B90-A264D0797279";
paths = (
{
closed = 1;
nodes = (
"161 524 OFFCURVE",
"54 401 OFFCURVE",
"54 250 CURVE SMOOTH",
"54 99 OFFCURVE",
"166 -14 OFFCURVE",
"312 -14 CURVE SMOOTH",
"454 -14 OFFCURVE",
"563 109 OFFCURVE",
"563 260 CURVE SMOOTH",
"563 411 OFFCURVE",
"449 524 OFFCURVE",
"308 524 CURVE SMOOTH"
);
},
{
closed = 1;
nodes = (
"186 49 OFFCURVE",
"93 120 OFFCURVE",
"93 239 CURVE SMOOTH",
"93 383 OFFCURVE",
"206 459 OFFCURVE",
"318 459 CURVE SMOOTH",
"427 459 OFFCURVE",
"526 389 OFFCURVE",
"526 271 CURVE SMOOTH",
"526 132 OFFCURVE",
"403 49 OFFCURVE",
"302 49 CURVE SMOOTH"
);
}
);
width = 617;
}
);
leftKerningGroup = zero;
rightKerningGroup = zero;
unicode = 0030;
},
{
glyphname = one;
lastChange = "2017-05-26 10:40:37 +0000";
layers = (
{
hints = (
{
origin = "{0, 5}";
target = "{0, 6}";
type = Cap;
name = _cap.stm.btm.3;
}
);
layerId = "4A3087DE-C6CF-4F86-8B90-A264D0797279";
paths = (
{
closed = 1;
nodes = (
"55 405 OFFCURVE",
"55 398 OFFCURVE",
"62 378 CURVE",
"266 450 LINE",
"250 462 LINE",
"250 0 LINE",
"312 0 LINE",
"312 271 LINE SMOOTH",
"312 367 OFFCURVE",
"315 441 OFFCURVE",
"321 510 CURVE",
"303 515 OFFCURVE",
"288 515 OFFCURVE",
"273 507 CURVE SMOOTH",
"206 471 OFFCURVE",
"145 445 OFFCURVE",
"64 409 CURVE SMOOTH"
);
}
);
width = 427;
}
);
leftKerningGroup = one;
rightKerningGroup = one;
unicode = 0031;
},
{
glyphname = two;
lastChange = "2017-05-26 10:35:51 +0000";
layers = (
{
layerId = "4A3087DE-C6CF-4F86-8B90-A264D0797279";
paths = (
{
closed = 1;
nodes = (
"133 60 LINE",
"134 42 LINE",
"247 172 LINE SMOOTH",
"338 277 OFFCURVE",
"371 338 OFFCURVE",
"371 393 CURVE SMOOTH",
"371 469 OFFCURVE",
"314 524 OFFCURVE",
"226 524 CURVE SMOOTH",
"149 524 OFFCURVE",
"85 478 OFFCURVE",
"85 418 CURVE SMOOTH",
"85 403 OFFCURVE",
"91 390 OFFCURVE",
"106 364 CURVE",
"128 364 LINE",
"132 443 OFFCURVE",
"155 494 OFFCURVE",
"209 494 CURVE SMOOTH",
"261 494 OFFCURVE",
"302 437 OFFCURVE",
"302 369 CURVE SMOOTH",
"302 313 OFFCURVE",
"282 263 OFFCURVE",
"217 189 CURVE SMOOTH",
"140 101 OFFCURVE",
"104 69 OFFCURVE",
"48 30 CURVE",
"41 0 LINE",
"282 0 LINE SMOOTH",
"325 0 OFFCURVE",
"367 0 OFFCURVE",
"410 -2 CURVE SMOOTH",
"428 -3 OFFCURVE",
"436 -1 OFFCURVE",
"440 7 CURVE SMOOTH",
"458 43 OFFCURVE",
"473 79 OFFCURVE",
"487 115 CURVE",
"470 123 LINE",
"458 107 LINE SMOOTH",
"426 64 OFFCURVE",
"392 60 OFFCURVE",
"343 60 CURVE SMOOTH"
);
}
);
width = 505;
}
);
leftKerningGroup = two;
rightKerningGroup = two;
unicode = 0032;
},
{
glyphname = three;
lastChange = "2017-05-26 10:41:22 +0000";
layers = (
{
layerId = "4A3087DE-C6CF-4F86-8B90-A264D0797279";
paths = (
{
closed = 1;
nodes = (
"73 405 OFFCURVE",
"80 384 OFFCURVE",
"92 352 CURVE",
"113 352 LINE",
"118 457 OFFCURVE",
"156 494 OFFCURVE",
"208 494 CURVE SMOOTH",
"262 494 OFFCURVE",
"318 454 OFFCURVE",
"318 373 CURVE SMOOTH",
"318 308 OFFCURVE",
"273 266 OFFCURVE",
"210 247 CURVE SMOOTH",
"155 230 LINE",
"164 203 OFFCURVE",
"168 200 OFFCURVE",
"175 202 CURVE SMOOTH",
"207 209 LINE SMOOTH",
"279 225 OFFCURVE",
"330 182 OFFCURVE",
"330 91 CURVE SMOOTH",
"330 -43 OFFCURVE",
"172 -139 OFFCURVE",
"-20 -139 CURVE",
"-14 -183 OFFCURVE",
"-10 -191 OFFCURVE",
"5 -191 CURVE SMOOTH",
"176 -191 OFFCURVE",
"403 -35 OFFCURVE",
"403 107 CURVE SMOOTH",
"403 194 OFFCURVE",
"335 244 OFFCURVE",
"242 244 CURVE",
"212 222 LINE",
"314 246 OFFCURVE",
"384 303 OFFCURVE",
"384 387 CURVE SMOOTH",
"384 465 OFFCURVE",
"323 524 OFFCURVE",
"222 524 CURVE SMOOTH",
"161 524 OFFCURVE",
"73 489 OFFCURVE",
"73 425 CURVE SMOOTH"
);
}
);
width = 479;
}
);
leftKerningGroup = three;
rightKerningGroup = three;
unicode = 0033;
},
{
glyphname = four;
lastChange = "2017-05-26 10:36:46 +0000";
layers = (
{
layerId = "4A3087DE-C6CF-4F86-8B90-A264D0797279";
paths = (
{
closed = 1;
nodes = (
"329 507 OFFCURVE",
"322 505 OFFCURVE",
"310 488 CURVE SMOOTH",
"211 348 OFFCURVE",
"124 237 OFFCURVE",
"25 110 CURVE",
"34 97 LINE",
"108 97 OFFCURVE",
"176 98 OFFCURVE",
"361 98 CURVE",
"500 98 LINE SMOOTH",
"507 98 OFFCURVE",
"507 101 OFFCURVE",
"507 134 CURVE",
"477 130 OFFCURVE",
"443 128 OFFCURVE",
"394 128 CURVE SMOOTH",
"61 128 LINE",
"88 108 LINE",
"145 206 OFFCURVE",
"201 288 OFFCURVE",
"339 462 CURVE",
"324 460 LINE",
"324 -14 LINE SMOOTH",
"324 -85 OFFCURVE",
"322 -135 OFFCURVE",
"318 -200 CURVE",
"380 -200 OFFCURVE",
"391 -196 OFFCURVE",
"391 -190 CURVE SMOOTH",
"391 -127 OFFCURVE",
"386 -69 OFFCURVE",
"386 -10 CURVE SMOOTH",
"386 214 LINE SMOOTH",
"386 303 OFFCURVE",
"389 383 OFFCURVE",
"399 512 CURVE",
"355 509 LINE SMOOTH"
);
}
);
width = 534;
}
);
leftKerningGroup = four;
rightKerningGroup = four;
unicode = 0034;
},
{
glyphname = five;
lastChange = "2017-05-26 10:41:18 +0000";
layers = (
{
layerId = "4A3087DE-C6CF-4F86-8B90-A264D0797279";
paths = (
{
closed = 1;
nodes = (
"383 454 OFFCURVE",
"387 459 OFFCURVE",
"400 517 CURVE",
"396 520 LINE",
"264 511 OFFCURVE",
"161 506 OFFCURVE",
"95 506 CURVE",
"79 375 OFFCURVE",
"75 338 OFFCURVE",
"75 315 CURVE SMOOTH",
"75 281 OFFCURVE",
"92 265 OFFCURVE",
"146 240 CURVE SMOOTH",
"264 185 OFFCURVE",
"304 137 OFFCURVE",
"304 68 CURVE SMOOTH",
"304 -60 OFFCURVE",
"133 -157 OFFCURVE",
"-25 -149 CURVE",
"-20 -187 OFFCURVE",
"-18 -197 OFFCURVE",
"-8 -197 CURVE SMOOTH",
"152 -197 OFFCURVE",
"374 -44 OFFCURVE",
"374 109 CURVE SMOOTH",
"374 189 OFFCURVE",
"298 247 OFFCURVE",
"192 296 CURVE SMOOTH",
"122 328 OFFCURVE",
"114 342 OFFCURVE",
"114 368 CURVE SMOOTH",
"114 383 OFFCURVE",
"117 409 OFFCURVE",
"122 446 CURVE",
"371 454 LINE SMOOTH"
);
}
);
width = 440;
}
);
leftKerningGroup = five;
rightKerningGroup = five;
unicode = 0035;
},
{
glyphname = six;
lastChange = "2017-05-26 10:38:58 +0000";
layers = (
{
layerId = "4A3087DE-C6CF-4F86-8B90-A264D0797279";
paths = (
{
closed = 1;
nodes = (
"73 55 OFFCURVE",
"172 -16 OFFCURVE",
"273 -16 CURVE SMOOTH",
"382 -16 OFFCURVE",
"501 72 OFFCURVE",
"501 203 CURVE SMOOTH",
"501 322 OFFCURVE",
"422 382 OFFCURVE",
"331 382 CURVE SMOOTH",
"285 382 OFFCURVE",
"237 371 OFFCURVE",
"195 341 CURVE SMOOTH",
"185 334 OFFCURVE",
"183 343 OFFCURVE",
"189 301 CURVE",
"217 321 OFFCURVE",
"256 338 OFFCURVE",
"288 338 CURVE SMOOTH",
"392 338 OFFCURVE",
"435 271 OFFCURVE",
"435 180 CURVE SMOOTH",
"435 82 OFFCURVE",
"368 25 OFFCURVE",
"295 25 CURVE SMOOTH",
"215 25 OFFCURVE",
"140 90 OFFCURVE",
"140 255 CURVE SMOOTH",
"140 497 OFFCURVE",
"341 674 OFFCURVE",
"535 674 CURVE",
"530 723 OFFCURVE",
"527 727 OFFCURVE",
"516 727 CURVE SMOOTH",
"326 727 OFFCURVE",
"73 469 OFFCURVE",
"73 240 CURVE SMOOTH"
);
}
);
width = 561;
}
);
leftKerningGroup = six;
rightKerningGroup = six;
unicode = 0036;
},
{
glyphname = seven;
lastChange = "2017-05-26 10:39:06 +0000";
layers = (
{
layerId = "4A3087DE-C6CF-4F86-8B90-A264D0797279";
paths = (
{
closed = 1;
nodes = (
"80 511 OFFCURVE",
"69 511 OFFCURVE",
"62 496 CURVE SMOOTH",
"48 467 OFFCURVE",
"37 439 OFFCURVE",
"28 410 CURVE",
"50 403 LINE",
"54 411 LINE SMOOTH",
"71 445 OFFCURVE",
"91 450 OFFCURVE",
"235 450 CURVE SMOOTH",
"295 450 OFFCURVE",
"356 450 OFFCURVE",
"416 448 CURVE",
"395 458 LINE",
"216 101 LINE SMOOTH",
"138 -55 OFFCURVE",
"105 -130 OFFCURVE",
"78 -207 CURVE",
"151 -210 OFFCURVE",
"159 -208 OFFCURVE",
"162 -194 CURVE SMOOTH",
"183 -97 OFFCURVE",
"217 2 OFFCURVE",
"272 129 CURVE SMOOTH",
"333 270 OFFCURVE",
"391 381 OFFCURVE",
"467 505 CURVE",
"462 512 LINE",
"382 510 OFFCURVE",
"318 510 OFFCURVE",
"261 510 CURVE SMOOTH",
"212 510 OFFCURVE",
"162 511 OFFCURVE",
"107 511 CURVE SMOOTH"
);
}
);
width = 472;
}
);
leftKerningGroup = seven;
rightKerningGroup = seven;
unicode = 0037;
},
{
glyphname = eight;
lastChange = "2017-05-25 15:40:52 +0000";
layers = (
{
layerId = "4A3087DE-C6CF-4F86-8B90-A264D0797279";
paths = (
{
closed = 1;
nodes = (
"185 664 OFFCURVE",
"102 595 OFFCURVE",
"102 492 CURVE SMOOTH",
"102 410 OFFCURVE",
"186 345 OFFCURVE",
"238 325 CURVE",
"243 347 LINE",
"146 317 OFFCURVE",
"65 248 OFFCURVE",
"65 151 CURVE SMOOTH",
"65 34 OFFCURVE",
"160 -14 OFFCURVE",
"255 -14 CURVE SMOOTH",
"378 -14 OFFCURVE",
"476 58 OFFCURVE",
"476 158 CURVE SMOOTH",
"476 252 OFFCURVE",
"401 310 OFFCURVE",
"296 359 CURVE",
"279 337 LINE",
"360 346 OFFCURVE",
"451 419 OFFCURVE",
"451 507 CURVE SMOOTH",
"451 617 OFFCURVE",
"363 664 OFFCURVE",
"285 664 CURVE SMOOTH"
);
},
{
closed = 1;
nodes = (
"344 628 OFFCURVE",
"393 566 OFFCURVE",
"393 491 CURVE SMOOTH",
"393 424 OFFCURVE",
"336 378 OFFCURVE",
"266 357 CURVE",
"320 350 LINE",
"208 394 OFFCURVE",
"160 446 OFFCURVE",
"160 523 CURVE SMOOTH",
"160 582 OFFCURVE",
"202 628 OFFCURVE",
"260 628 CURVE SMOOTH"
);
},
{
closed = 1;
nodes = (
"330 288 OFFCURVE",
"410 234 OFFCURVE",
"410 143 CURVE SMOOTH",
"410 81 OFFCURVE",
"364 24 OFFCURVE",
"273 24 CURVE SMOOTH",
"189 24 OFFCURVE",
"123 86 OFFCURVE",
"123 177 CURVE SMOOTH",
"123 259 OFFCURVE",
"193 302 OFFCURVE",
"272 326 CURVE",
"230 321 LINE"
);
}
);
width = 541;
}
);
leftKerningGroup = eight;
rightKerningGroup = eight;
unicode = 0038;
},
{
glyphname = nine;
lastChange = "2017-05-26 10:36:54 +0000";
layers = (
{
layerId = "4A3087DE-C6CF-4F86-8B90-A264D0797279";
paths = (
{
closed = 1;
nodes = (
"484 443 OFFCURVE",
"382 524 OFFCURVE",
"271 524 CURVE SMOOTH",
"155 524 OFFCURVE",
"52 435 OFFCURVE",
"52 310 CURVE SMOOTH",
"52 191 OFFCURVE",
"134 136 OFFCURVE",
"233 136 CURVE SMOOTH",
"275 136 OFFCURVE",
"312 148 OFFCURVE",
"359 181 CURVE SMOOTH",
"369 188 OFFCURVE",
"369 199 OFFCURVE",
"361 219 CURVE",
"323 189 OFFCURVE",
"298 180 OFFCURVE",
"252 180 CURVE SMOOTH",
"175 180 OFFCURVE",
"119 235 OFFCURVE",
"119 330 CURVE SMOOTH",
"119 426 OFFCURVE",
"178 490 OFFCURVE",
"251 490 CURVE SMOOTH",
"341 490 OFFCURVE",
"417 408 OFFCURVE",
"417 253 CURVE SMOOTH",
"417 -13 OFFCURVE",
"251 -131 OFFCURVE",
"52 -133 CURVE",
"61 -181 OFFCURVE",
"66 -196 OFFCURVE",
"75 -196 CURVE SMOOTH",
"255 -196 OFFCURVE",
"484 19 OFFCURVE",
"484 268 CURVE SMOOTH"
);
}
);
width = 549;
}
);
leftKerningGroup = nine;
rightKerningGroup = nine;
unicode = 0039;
},
{
glyphname = zero.tf;
lastChange = "2017-05-25 15:40:52 +0000";
layers = (
{
layerId = "4A3087DE-C6CF-4F86-8B90-A264D0797279";
paths = (
{
closed = 1;
nodes = (
"137 664 OFFCURVE",
"59 555 OFFCURVE",
"59 310 CURVE SMOOTH",
"59 98 OFFCURVE",
"133 -14 OFFCURVE",
"252 -14 CURVE SMOOTH",
"380 -14 OFFCURVE",
"471 96 OFFCURVE",
"471 330 CURVE SMOOTH",
"471 496 OFFCURVE",
"413 664 OFFCURVE",
"269 664 CURVE SMOOTH"
);
},
{
closed = 1;
nodes = (
"357 628 OFFCURVE",
"392 476 OFFCURVE",
"392 303 CURVE SMOOTH",
"392 119 OFFCURVE",
"357 22 OFFCURVE",
"270 22 CURVE SMOOTH",
"190 22 OFFCURVE",
"137 107 OFFCURVE",
"137 335 CURVE SMOOTH",
"137 530 OFFCURVE",
"167 628 OFFCURVE",
"254 628 CURVE SMOOTH"
);
}
);
width = 530;
}
);
leftKerningGroup = zero.tf;
rightKerningGroup = zero.tf;
},
{
glyphname = one.tf;
lastChange = "2017-05-26 10:32:12 +0000";
layers = (
{
hints = (
{
origin = "{0, 8}";
type = Corner;
name = _corner.STM.btm.1;
},
{
origin = "{0, 9}";
scale = "{-1, 1}";
type = Corner;
name = _corner.STM.btm.1;
}
);
layerId = "4A3087DE-C6CF-4F86-8B90-A264D0797279";
paths = (
{
closed = 1;
nodes = (
"113 545 OFFCURVE",
"113 538 OFFCURVE",
"120 518 CURVE",
"324 590 LINE",
"297 602 LINE",
"299 536 OFFCURVE",
"300 489 OFFCURVE",
"300 403 CURVE SMOOTH",
"300 0 LINE",
"366 0 LINE",
"366 411 LINE SMOOTH",
"366 507 OFFCURVE",
"370 581 OFFCURVE",
"377 650 CURVE",
"358 655 OFFCURVE",
"346 655 OFFCURVE",
"331 647 CURVE SMOOTH",
"264 611 OFFCURVE",
"203 585 OFFCURVE",
"122 549 CURVE SMOOTH"
);
}
);
width = 530;
}
);
leftKerningGroup = one.tf;
rightKerningGroup = one.tf;
},
{
glyphname = two.tf;
lastChange = "2017-05-25 15:40:52 +0000";
layers = (
{
layerId = "4A3087DE-C6CF-4F86-8B90-A264D0797279";
paths = (
{
closed = 1;
nodes = (
"305 623 OFFCURVE",
"345 560 OFFCURVE",
"345 480 CURVE SMOOTH",
"345 416 OFFCURVE",
"322 364 OFFCURVE",
"263 277 CURVE SMOOTH",
"185 162 OFFCURVE",
"126 88 OFFCURVE",
"72 30 CURVE",
"65 19 OFFCURVE",
"62 11 OFFCURVE",
"61 0 CURVE",
"299 0 LINE SMOOTH",
"342 0 OFFCURVE",
"384 0 OFFCURVE",
"427 -2 CURVE SMOOTH",
"445 -3 OFFCURVE",
"453 -1 OFFCURVE",
"457 7 CURVE SMOOTH",
"475 43 OFFCURVE",
"490 79 OFFCURVE",
"504 115 CURVE",
"487 123 LINE",
"475 107 LINE SMOOTH",
"443 64 OFFCURVE",
"409 60 OFFCURVE",
"360 60 CURVE SMOOTH",
"134 60 LINE",
"145 34 LINE",
"189 107 OFFCURVE",
"239 180 OFFCURVE",
"293 253 CURVE SMOOTH",
"391 386 OFFCURVE",
"425 438 OFFCURVE",
"425 507 CURVE SMOOTH",
"425 602 OFFCURVE",
"346 664 OFFCURVE",
"258 664 CURVE SMOOTH",
"154 664 OFFCURVE",
"90 598 OFFCURVE",
"90 558 CURVE SMOOTH",
"90 542 OFFCURVE",
"96 521 OFFCURVE",
"111 484 CURVE",
"133 484 LINE",
"138 583 OFFCURVE",
"173 623 OFFCURVE",
"233 623 CURVE SMOOTH"
);
}
);
width = 530;
}
);
leftKerningGroup = two.tf;
rightKerningGroup = two.tf;
},
{
glyphname = three.tf;
lastChange = "2017-05-25 15:40:52 +0000";
layers = (
{
layerId = "4A3087DE-C6CF-4F86-8B90-A264D0797279";
paths = (
{
closed = 1;
nodes = (
"195 664 OFFCURVE",
"107 629 OFFCURVE",
"107 565 CURVE SMOOTH",
"107 545 OFFCURVE",
"114 524 OFFCURVE",
"126 492 CURVE",
"147 492 LINE",
"152 597 OFFCURVE",
"190 631 OFFCURVE",
"249 631 CURVE SMOOTH",
"303 631 OFFCURVE",
"357 594 OFFCURVE",
"357 513 CURVE SMOOTH",
"357 448 OFFCURVE",
"313 409 OFFCURVE",
"250 390 CURVE SMOOTH",
"195 373 LINE",
"204 346 OFFCURVE",
"209 340 OFFCURVE",
"216 342 CURVE SMOOTH",
"248 349 LINE SMOOTH",
"320 365 OFFCURVE",
"389 322 OFFCURVE",
"389 221 CURVE SMOOTH",
"389 67 OFFCURVE",
"230 -9 OFFCURVE",
"38 1 CURVE",
"44 -43 OFFCURVE",
"48 -51 OFFCURVE",
"63 -51 CURVE SMOOTH",
"244 -51 OFFCURVE",
"468 78 OFFCURVE",
"468 237 CURVE SMOOTH",
"468 334 OFFCURVE",
"386 384 OFFCURVE",
"283 384 CURVE",
"253 362 LINE",
"355 386 OFFCURVE",
"433 443 OFFCURVE",
"433 527 CURVE SMOOTH",
"433 605 OFFCURVE",
"364 664 OFFCURVE",
"263 664 CURVE SMOOTH"
);
}
);
width = 530;
}
);
leftKerningGroup = three.tf;
rightKerningGroup = three.tf;
},
{
glyphname = four.tf;
lastChange = "2017-05-25 15:40:52 +0000";
layers = (
{
hints = (
{
origin = "{0, 23}";
type = Corner;
name = _corner.STM.btm.1;
},
{
origin = "{0, 24}";
scale = "{-1, 1}";
type = Corner;
name = _corner.STM.btm.1;
}
);
layerId = "4A3087DE-C6CF-4F86-8B90-A264D0797279";
paths = (
{
closed = 1;
nodes = (
"321 647 OFFCURVE",
"313 645 OFFCURVE",
"302 628 CURVE SMOOTH",
"212 488 OFFCURVE",
"132 377 OFFCURVE",
"37 250 CURVE",
"46 237 LINE",
"120 237 OFFCURVE",
"188 238 OFFCURVE",
"353 238 CURVE",
"492 238 LINE SMOOTH",
"499 238 OFFCURVE",
"499 241 OFFCURVE",
"499 274 CURVE",
"469 270 OFFCURVE",
"435 268 OFFCURVE",
"386 268 CURVE SMOOTH",
"73 268 LINE",
"100 248 LINE",
"169 376 OFFCURVE",
"225 459 OFFCURVE",
"331 602 CURVE",
"312 600 LINE",
"312 0 LINE",
"378 0 LINE",
"378 354 LINE SMOOTH",
"378 443 OFFCURVE",
"381 523 OFFCURVE",
"391 652 CURVE",
"347 649 LINE SMOOTH"
);
}
);
width = 530;
}
);
leftKerningGroup = four.tf;
rightKerningGroup = four.tf;
},
{
glyphname = five.tf;
lastChange = "2017-05-25 15:40:52 +0000";
layers = (
{
layerId = "4A3087DE-C6CF-4F86-8B90-A264D0797279";
paths = (
{
closed = 1;
nodes = (
"411 594 OFFCURVE",
"415 599 OFFCURVE",
"428 657 CURVE",
"424 660 LINE",
"312 652 OFFCURVE",
"199 646 OFFCURVE",
"133 646 CURVE",
"116 515 OFFCURVE",
"112 463 OFFCURVE",
"112 440 CURVE SMOOTH",
"112 411 OFFCURVE",
"125 402 OFFCURVE",
"203 369 CURVE SMOOTH",
"336 313 OFFCURVE",
"381 275 OFFCURVE",
"381 194 CURVE SMOOTH",
"381 70 OFFCURVE",
"214 -17 OFFCURVE",
"59 -9 CURVE",
"61 -47 OFFCURVE",
"63 -57 OFFCURVE",
"73 -57 CURVE SMOOTH",
"233 -57 OFFCURVE",
"451 86 OFFCURVE",
"451 235 CURVE SMOOTH",
"451 319 OFFCURVE",
"400 375 OFFCURVE",
"257 431 CURVE SMOOTH",
"164 467 OFFCURVE",
"152 474 OFFCURVE",
"152 498 CURVE SMOOTH",
"152 513 OFFCURVE",
"156 549 OFFCURVE",
"164 586 CURVE",
"399 594 LINE SMOOTH"
);
}
);
width = 530;
}
);
leftKerningGroup = five.tf;
rightKerningGroup = five.tf;
},
{
glyphname = six.tf;
lastChange = "2017-05-25 15:40:52 +0000";
layers = (
{
layerId = "4A3087DE-C6CF-4F86-8B90-A264D0797279";
paths = (
{
closed = 1;
nodes = (
"60 41 OFFCURVE",
"162 -16 OFFCURVE",
"257 -16 CURVE SMOOTH",
"362 -16 OFFCURVE",
"473 56 OFFCURVE",
"473 201 CURVE SMOOTH",
"473 316 OFFCURVE",
"392 372 OFFCURVE",
"311 372 CURVE SMOOTH",
"265 372 OFFCURVE",
"217 361 OFFCURVE",
"175 331 CURVE SMOOTH",
"165 324 OFFCURVE",
"163 313 OFFCURVE",
"169 291 CURVE",
"197 311 OFFCURVE",
"236 328 OFFCURVE",
"268 328 CURVE SMOOTH",
"356 328 OFFCURVE",
"400 261 OFFCURVE",
"400 168 CURVE SMOOTH",
"400 74 OFFCURVE",
"346 19 OFFCURVE",
"274 19 CURVE SMOOTH",
"203 19 OFFCURVE",
"133 80 OFFCURVE",
"133 255 CURVE SMOOTH",
"133 497 OFFCURVE",
"213 608 OFFCURVE",
"461 611 CURVE",
"460 660 OFFCURVE",
"457 664 OFFCURVE",
"446 664 CURVE SMOOTH",
"219 664 OFFCURVE",
"60 469 OFFCURVE",
"60 240 CURVE SMOOTH"
);
}
);
width = 530;
}
);
leftKerningGroup = six.tf;
rightKerningGroup = six.tf;
},
{
glyphname = seven.tf;
lastChange = "2017-05-25 15:40:52 +0000";
layers = (
{
layerId = "4A3087DE-C6CF-4F86-8B90-A264D0797279";
paths = (
{
closed = 1;
nodes = (
"108 651 OFFCURVE",
"97 651 OFFCURVE",
"90 636 CURVE SMOOTH",
"76 607 OFFCURVE",
"65 579 OFFCURVE",
"56 550 CURVE",
"78 543 LINE",
"82 551 LINE SMOOTH",
"99 585 OFFCURVE",
"119 590 OFFCURVE",
"263 590 CURVE SMOOTH",
"323 590 OFFCURVE",
"384 590 OFFCURVE",
"444 588 CURVE",
"419 598 LINE",
"278 308 LINE SMOOTH",
"202 152 OFFCURVE",
"167 77 OFFCURVE",
"137 0 CURVE",
"210 -3 OFFCURVE",
"222 -1 OFFCURVE",
"225 13 CURVE SMOOTH",
"246 110 OFFCURVE",
"280 209 OFFCURVE",
"335 336 CURVE SMOOTH",
"396 477 OFFCURVE",
"419 521 OFFCURVE",
"495 645 CURVE",
"490 652 LINE",
"410 650 OFFCURVE",
"346 650 OFFCURVE",
"289 650 CURVE SMOOTH",
"250 650 OFFCURVE",
"190 651 OFFCURVE",
"135 651 CURVE SMOOTH"
);
}
);
width = 530;
}
);
leftKerningGroup = seven.tf;
rightKerningGroup = seven.tf;
},
{
glyphname = eight.tf;
lastChange = "2017-05-25 15:40:52 +0000";
layers = (
{
layerId = "4A3087DE-C6CF-4F86-8B90-A264D0797279";
paths = (
{
closed = 1;
nodes = (
"180 664 OFFCURVE",
"97 595 OFFCURVE",
"97 492 CURVE SMOOTH",
"97 403 OFFCURVE",
"174 348 OFFCURVE",
"231 328 CURVE",
"234 348 LINE",
"133 327 OFFCURVE",
"50 252 OFFCURVE",
"50 155 CURVE SMOOTH",
"50 38 OFFCURVE",
"149 -14 OFFCURVE",
"250 -14 CURVE SMOOTH",
"367 -14 OFFCURVE",
"481 61 OFFCURVE",
"481 175 CURVE SMOOTH",
"481 262 OFFCURVE",
"398 329 OFFCURVE",
"289 364 CURVE",
"276 340 LINE",
"357 349 OFFCURVE",
"446 420 OFFCURVE",
"446 507 CURVE SMOOTH",
"446 617 OFFCURVE",
"358 664 OFFCURVE",
"280 664 CURVE SMOOTH"
);
},
{
closed = 1;
nodes = (
"337 626 OFFCURVE",
"382 569 OFFCURVE",
"382 496 CURVE SMOOTH",
"382 422 OFFCURVE",
"339 381 OFFCURVE",
"269 360 CURVE",
"313 355 LINE",
"204 397 OFFCURVE",
"158 446 OFFCURVE",
"158 523 CURVE SMOOTH",
"158 582 OFFCURVE",
"196 626 OFFCURVE",
"255 626 CURVE SMOOTH"
);
},
{
closed = 1;
nodes = (
"322 298 OFFCURVE",
"410 238 OFFCURVE",
"410 147 CURVE SMOOTH",
"410 85 OFFCURVE",
"371 24 OFFCURVE",
"272 24 CURVE SMOOTH",
"178 24 OFFCURVE",
"113 90 OFFCURVE",
"113 181 CURVE SMOOTH",
"113 263 OFFCURVE",
"180 312 OFFCURVE",
"263 327 CURVE",
"223 327 LINE"
);
}
);
width = 530;
}
);
leftKerningGroup = eight.tf;
rightKerningGroup = eight.tf;
},
{
glyphname = nine.tf;
lastChange = "2017-05-25 15:40:52 +0000";
layers = (
{
layerId = "4A3087DE-C6CF-4F86-8B90-A264D0797279";
paths = (
{
closed = 1;
nodes = (
"470 597 OFFCURVE",
"368 664 OFFCURVE",
"267 664 CURVE SMOOTH",
"156 664 OFFCURVE",
"57 577 OFFCURVE",
"57 452 CURVE SMOOTH",
"57 340 OFFCURVE",
"138 276 OFFCURVE",
"239 276 CURVE SMOOTH",
"271 276 OFFCURVE",
"308 288 OFFCURVE",
"355 321 CURVE SMOOTH",
"365 328 OFFCURVE",
"365 339 OFFCURVE",
"357 359 CURVE",
"323 329 OFFCURVE",
"298 320 OFFCURVE",
"262 320 CURVE SMOOTH",
"174 320 OFFCURVE",
"130 387 OFFCURVE",
"130 472 CURVE SMOOTH",
"130 568 OFFCURVE",
"172 629 OFFCURVE",
"250 629 CURVE SMOOTH",
"327 629 OFFCURVE",
"397 558 OFFCURVE",
"397 393 CURVE SMOOTH",
"397 141 OFFCURVE",
"267 39 OFFCURVE",
"70 37 CURVE",
"75 -11 OFFCURVE",
"80 -16 OFFCURVE",
"89 -16 CURVE SMOOTH",
"261 -16 OFFCURVE",
"470 169 OFFCURVE",
"470 408 CURVE SMOOTH"
);
}
);
width = 530;
}
);
leftKerningGroup = nine.tf;
rightKerningGroup = nine.tf;
},
{
glyphname = fraction;
lastChange = "2017-05-25 15:40:52 +0000";
layers = (
{
layerId = "4A3087DE-C6CF-4F86-8B90-A264D0797279";
paths = (
{
closed = 1;
nodes = (
"132 196 LINE SMOOTH",
"79 126 OFFCURVE",
"31 63 OFFCURVE",
"-20 0 CURVE",
"38 0 LINE",
"76 56 OFFCURVE",
"117 111 OFFCURVE",
"159 167 CURVE SMOOTH",
"374 454 LINE SMOOTH",
"427 525 OFFCURVE",
"475 587 OFFCURVE",
"526 650 CURVE",
"468 650 LINE",
"430 594 OFFCURVE",
"389 539 OFFCURVE",
"347 483 CURVE SMOOTH"
);
}
);
width = 506;
}
);
leftKerningGroup = fraction;
rightKerningGroup = fraction;
unicode = 2044;
},
{
glyphname = asterisk;
lastChange = "2017-05-25 21:49:44 +0000";
layers = (
{
layerId = "4A3087DE-C6CF-4F86-8B90-A264D0797279";
paths = (
{
closed = 1;
nodes = (
"127 581 OFFCURVE",
"93 601 OFFCURVE",
"57 619 CURVE",
"68 639 LINE",
"98 620 OFFCURVE",
"134 600 OFFCURVE",
"174 582 CURVE",
"177 615 OFFCURVE",
"179 672 OFFCURVE",
"177 702 CURVE",
"201 702 LINE",
"199 672 OFFCURVE",
"201 615 OFFCURVE",
"204 582 CURVE",
"244 600 OFFCURVE",
"280 620 OFFCURVE",
"310 639 CURVE",
"321 619 LINE",
"285 601 OFFCURVE",
"251 581 OFFCURVE",
"217 556 CURVE",
"251 531 OFFCURVE",
"285 511 OFFCURVE",
"321 493 CURVE",
"310 473 LINE",
"280 492 OFFCURVE",
"244 512 OFFCURVE",
"204 530 CURVE",
"201 497 OFFCURVE",
"199 440 OFFCURVE",
"201 410 CURVE",
"177 410 LINE",
"179 440 OFFCURVE",
"177 497 OFFCURVE",
"174 530 CURVE",
"134 512 OFFCURVE",
"98 492 OFFCURVE",
"68 473 CURVE",
"57 493 LINE",
"93 511 OFFCURVE",
"127 531 OFFCURVE",
"161 556 CURVE"
);
}
);
width = 378;
}
);
leftKerningGroup = asterisk;
rightKerningGroup = asterisk;
unicode = 002A;
},
{
glyphname = bullet;
lastChange = "2017-05-25 15:40:52 +0000";
layers = (
{
layerId = "4A3087DE-C6CF-4F86-8B90-A264D0797279";
paths = (
{
closed = 1;
nodes = (
"274 222 OFFCURVE",
"325 273 OFFCURVE",
"325 337 CURVE SMOOTH",
"325 401 OFFCURVE",
"274 452 OFFCURVE",
"210 452 CURVE SMOOTH",
"146 452 OFFCURVE",
"95 401 OFFCURVE",
"95 337 CURVE SMOOTH",
"95 273 OFFCURVE",
"146 222 OFFCURVE",
"210 222 CURVE SMOOTH"
);
}
);
width = 420;
}
);
leftKerningGroup = bullet;
rightKerningGroup = bullet;
unicode = 2022;
},
{
glyphname = comma;
lastChange = "2017-05-26 10:40:33 +0000";
layers = (
{
layerId = "4A3087DE-C6CF-4F86-8B90-A264D0797279";
paths = (
{
closed = 1;
nodes = (
"79 -12 OFFCURVE",
"48 -90 OFFCURVE",
"-2 -148 CURVE",
"20 -157 LINE",
"48 -130 OFFCURVE",
"79 -93 OFFCURVE",
"99 -64 CURVE SMOOTH",
"139 -6 OFFCURVE",
"155 36 OFFCURVE",
"159 74 CURVE",
"88 54 LINE"
);
}
);
width = 240;
}
);
leftKerningGroup = comma;
rightKerningGroup = period;
unicode = 002C;
},
{
glyphname = exclam;
lastChange = "2017-05-25 21:56:15 +0000";
layers = (
{
components = (
{
name = period;
transform = "{1, 0, 0, 1, 3, 0}";
}
);
layerId = "4A3087DE-C6CF-4F86-8B90-A264D0797279";
paths = (
{
closed = 1;
nodes = (
"123 664 LINE",
"153 664 OFFCURVE",
"160 656 OFFCURVE",
"160 598 CURVE SMOOTH",
"160 538 OFFCURVE",
"135 359 OFFCURVE",
"135 178 CURVE",
"123 178 LINE"
);
},
{
closed = 1;
nodes = (
"111 178 LINE",
"111 359 OFFCURVE",
"86 538 OFFCURVE",
"86 598 CURVE SMOOTH",
"86 656 OFFCURVE",
"93 664 OFFCURVE",
"123 664 CURVE",
"123 178 LINE"
);
}
);
width = 246;
}
);
leftKerningGroup = exclam;
rightKerningGroup = exclam;
unicode = 0021;
},
{
glyphname = numbersign;
lastChange = "2017-05-25 15:40:52 +0000";
layers = (
{
layerId = "4A3087DE-C6CF-4F86-8B90-A264D0797279";
paths = (
{
closed = 1;
nodes = (
"218 357 OFFCURVE",
"244 433 OFFCURVE",
"272 510 CURVE",
"226 510 LINE",
"204 431 OFFCURVE",
"185 373 OFFCURVE",
"171 331 CURVE SMOOTH",
"123 190 LINE SMOOTH",
"110 153 OFFCURVE",
"85 77 OFFCURVE",
"57 0 CURVE",
"103 0 LINE",
"125 79 OFFCURVE",
"142 133 OFFCURVE",
"157 178 CURVE SMOOTH",
"205 319 LINE SMOOTH"
);
},
{
closed = 1;
nodes = (
"87 304 LINE",
"374 304 LINE",
"378 338 LINE",
"91 338 LINE"
);
},
{
closed = 1;
nodes = (
"61 172 LINE",
"348 172 LINE",
"352 206 LINE",
"65 206 LINE"
);
},
{
closed = 1;
nodes = (
"321 357 OFFCURVE",
"346 433 OFFCURVE",
"374 510 CURVE",
"328 510 LINE",
"306 431 OFFCURVE",
"286 373 OFFCURVE",
"272 330 CURVE SMOOTH",
"225 188 LINE SMOOTH",
"213 153 OFFCURVE",
"187 77 OFFCURVE",
"159 0 CURVE",
"205 0 LINE",
"227 79 OFFCURVE",
"244 133 OFFCURVE",
"259 176 CURVE SMOOTH",
"307 317 LINE SMOOTH"
);
}
);
width = 421;
}
);
leftKerningGroup = numbersign;
rightKerningGroup = numbersign;
unicode = 0023;
},
{
glyphname = period;
lastChange = "2017-05-26 10:40:02 +0000";
layers = (
{
layerId = "4A3087DE-C6CF-4F86-8B90-A264D0797279";
paths = (
{
closed = 1;
nodes = (
"144 -14 OFFCURVE",
"163 5 OFFCURVE",
"163 29 CURVE SMOOTH",
"163 53 OFFCURVE",
"144 72 OFFCURVE",
"120 72 CURVE SMOOTH",
"96 72 OFFCURVE",
"77 53 OFFCURVE",
"77 29 CURVE SMOOTH",
"77 5 OFFCURVE",
"96 -14 OFFCURVE",
"120 -14 CURVE SMOOTH"
);
}
);
width = 240;
}
);
leftKerningGroup = period;
rightKerningGroup = period;
unicode = 002E;
},
{
glyphname = question;
lastChange = "2017-05-25 21:55:48 +0000";
layers = (
{
components = (
{
name = period;
transform = "{1, 0, 0, 1, 7, 0}";
}
);
layerId = "4A3087DE-C6CF-4F86-8B90-A264D0797279";
paths = (
{
closed = 1;
nodes = (
"105 177 LINE",
"83 226 OFFCURVE",
"71 259 OFFCURVE",
"71 288 CURVE SMOOTH",
"71 339 OFFCURVE",
"95 358 OFFCURVE",
"155 390 CURVE SMOOTH",
"211 420 OFFCURVE",
"242 442 OFFCURVE",
"242 488 CURVE SMOOTH",
"242 547 OFFCURVE",
"172 588 OFFCURVE",
"52 590 CURVE",
"52 652 OFFCURVE",
"54 664 OFFCURVE",
"67 664 CURVE SMOOTH",
"191 664 OFFCURVE",
"275 569 OFFCURVE",
"275 478 CURVE SMOOTH",
"275 396 OFFCURVE",
"242 364 OFFCURVE",
"173 325 CURVE SMOOTH",
"125 298 OFFCURVE",
"111 284 OFFCURVE",
"111 257 CURVE SMOOTH",
"111 240 OFFCURVE",
"118 218 OFFCURVE",
"128 187 CURVE"
);
}
);
width = 323;
}
);
leftKerningGroup = question;
rightKerningGroup = question;
unicode = 003F;
},
{
glyphname = quotesingle;
lastChange = "2017-05-25 15:40:52 +0000";
layers = (
{
layerId = "4A3087DE-C6CF-4F86-8B90-A264D0797279";
paths = (
{
closed = 1;
nodes = (
"53 695 OFFCURVE",
"41 696 CURVE",
"49 618 OFFCURVE",
"54 541 OFFCURVE",
"56 470 CURVE",
"86 470 LINE",
"88 541 OFFCURVE",
"93 618 OFFCURVE",
"101 696 CURVE",
"89 695 OFFCURVE"
);
}
);
width = 159;
}
);
leftKerningGroup = quotesingle;
rightKerningGroup = quotesingle;
unicode = 0027;
},
{
glyphname = slash;
lastChange = "2017-05-25 21:57:22 +0000";
layers = (
{
layerId = "4A3087DE-C6CF-4F86-8B90-A264D0797279";
paths = (
{
closed = 1;
nodes = (
"273 562 OFFCURVE",
"300 638 OFFCURVE",
"328 715 CURVE",
"281 715 LINE",
"259 636 OFFCURVE",
"239 577 OFFCURVE",
"213 497 CURVE SMOOTH",
"71 66 LINE SMOOTH",
"46 -10 OFFCURVE",
"19 -87 OFFCURVE",
"-9 -164 CURVE",
"38 -164 LINE",
"60 -85 OFFCURVE",
"80 -26 OFFCURVE",
"106 54 CURVE SMOOTH",
"248 485 LINE SMOOTH"
);
}
);
width = 319;
}
);
leftKerningGroup = slash;
rightKerningGroup = slash;
unicode = 002F;
},
{
glyphname = underscore;
lastChange = "2017-05-25 15:40:52 +0000";
layers = (
{
hints = (
{
origin = "{0, 1}";
target = "{0, 2}";
type = Cap;
name = _cap.punction.1;
},
{
origin = "{0, 3}";
target = "{0, 0}";
type = Cap;
name = _cap.punction.1;
}
);
layerId = "4A3087DE-C6CF-4F86-8B90-A264D0797279";
paths = (
{
closed = 1;
nodes = (
"30 -57 LINE",
"280 -57 LINE",
"280 -21 LINE",
"30 -21 LINE"
);
}
);
width = 310;
}
);
leftKerningGroup = underscore;
rightKerningGroup = underscore;
unicode = 005F;
},
{
glyphname = numbersign.tf;
lastChange = "2017-05-25 15:40:52 +0000";
layers = (
{
layerId = "4A3087DE-C6CF-4F86-8B90-A264D0797279";
paths = (
{
closed = 1;
nodes = (
"271 497 OFFCURVE",
"297 573 OFFCURVE",
"325 650 CURVE",
"279 650 LINE",
"257 571 OFFCURVE",
"238 513 OFFCURVE",
"211 432 CURVE SMOOTH",
"144 230 LINE SMOOTH",
"119 154 OFFCURVE",
"92 77 OFFCURVE",
"64 0 CURVE",
"110 0 LINE",
"132 79 OFFCURVE",
"151 137 OFFCURVE",
"178 218 CURVE SMOOTH",
"245 420 LINE SMOOTH"
);
},
{
closed = 1;
nodes = (
"98 378 LINE",
"458 378 LINE",
"462 412 LINE",
"102 412 LINE"
);
},
{
closed = 1;
nodes = (
"70 238 LINE",
"430 238 LINE",
"434 272 LINE",
"74 272 LINE"
);
},
{
closed = 1;
nodes = (
"411 497 OFFCURVE",
"437 573 OFFCURVE",
"465 650 CURVE",
"419 650 LINE",
"397 571 OFFCURVE",
"378 513 OFFCURVE",
"351 432 CURVE SMOOTH",
"284 230 LINE SMOOTH",
"259 154 OFFCURVE",
"232 77 OFFCURVE",
"204 0 CURVE",
"250 0 LINE",
"272 79 OFFCURVE",
"291 137 OFFCURVE",
"318 218 CURVE SMOOTH",
"385 420 LINE SMOOTH"
);
}
);
width = 530;
}
);
leftKerningGroup = numbersign.tf;
rightKerningGroup = numbersign.tf;
},
{
glyphname = braceright;
lastChange = "2017-05-25 15:40:52 +0000";
layers = (
{
layerId = "4A3087DE-C6CF-4F86-8B90-A264D0797279";
paths = (
{
closed = 1;
nodes = (
"241 297 LINE",
"193 297 OFFCURVE",
"169 273 OFFCURVE",
"169 205 CURVE SMOOTH",
"169 180 OFFCURVE",
"172 150 OFFCURVE",
"176 114 CURVE SMOOTH",
"184 42 OFFCURVE",
"186 9 OFFCURVE",
"186 -17 CURVE SMOOTH",
"186 -74 OFFCURVE",
"143 -94 OFFCURVE",
"54 -94 CURVE",
"54 -116 LINE",
"105 -116 LINE SMOOTH",
"200 -116 OFFCURVE",
"237 -75 OFFCURVE",
"227 10 CURVE SMOOTH",
"214 121 OFFCURVE",
"210 180 OFFCURVE",
"210 208 CURVE SMOOTH",
"210 267 OFFCURVE",
"230 282 OFFCURVE",
"271 286 CURVE",
"271 308 LINE",
"230 312 OFFCURVE",
"207 330 OFFCURVE",
"207 389 CURVE SMOOTH",
"207 421 OFFCURVE",
"208 452 OFFCURVE",
"227 584 CURVE SMOOTH",
"239 669 OFFCURVE",
"200 716 OFFCURVE",
"105 716 CURVE SMOOTH",
"54 716 LINE",
"54 694 LINE",
"145 694 OFFCURVE",
"188 671 OFFCURVE",
"188 611 CURVE SMOOTH",
"188 585 OFFCURVE",
"182 529 OFFCURVE",
"176 480 CURVE SMOOTH",
"171 442 OFFCURVE",
"167 412 OFFCURVE",
"167 388 CURVE SMOOTH",
"167 322 OFFCURVE",
"194 300 OFFCURVE",
"242 295 CURVE"
);
}
);
width = 380;
}
);
leftKerningGroup = braceright;
rightKerningGroup = braceright;
unicode = 007D;
},
{
glyphname = bracketright;
lastChange = "2017-05-25 21:49:15 +0000";
layers = (
{
layerId = "4A3087DE-C6CF-4F86-8B90-A264D0797279";
paths = (
{
closed = 1;
nodes = (
"185 137 OFFCURVE",
"185 45 OFFCURVE",
"183 -13 CURVE SMOOTH",
"181 -82 OFFCURVE",
"172 -89 OFFCURVE",
"144 -91 CURVE SMOOTH",
"119 -93 OFFCURVE",
"83 -93 OFFCURVE",
"54 -93 CURVE",
"54 -115 LINE",
"118 -115 OFFCURVE",
"159 -115 OFFCURVE",
"221 -117 CURVE",
"219 -60 OFFCURVE",
"219 1 OFFCURVE",
"219 73 CURVE SMOOTH",
"219 300 LINE",
"185 300 LINE"
);
},
{
closed = 1;
nodes = (
"219 300 LINE",
"219 527 LINE SMOOTH",
"219 599 OFFCURVE",
"219 660 OFFCURVE",
"221 717 CURVE",
"159 715 OFFCURVE",
"118 715 OFFCURVE",
"54 715 CURVE",
"54 693 LINE",
"83 693 OFFCURVE",
"119 693 OFFCURVE",
"144 691 CURVE SMOOTH",
"172 689 OFFCURVE",
"181 682 OFFCURVE",
"183 613 CURVE SMOOTH",
"185 555 OFFCURVE",
"185 463 OFFCURVE",
"185 300 CURVE"
);
}
);
width = 315;
}
);
leftKerningGroup = bracketright;
rightKerningGroup = bracketright;
unicode = 005D;
},
{
glyphname = parenright;
lastChange = "2017-05-25 21:55:50 +0000";
layers = (
{
layerId = "4A3087DE-C6CF-4F86-8B90-A264D0797279";
paths = (
{
closed = 1;
nodes = (
"216 14 OFFCURVE",
"148 -90 OFFCURVE",
"37 -100 CURVE",
"40 -122 LINE",
"187 -122 OFFCURVE",
"264 64 OFFCURVE",
"264 297 CURVE",
"216 297 LINE"
);
},
{
closed = 1;
nodes = (
"264 297 LINE",
"264 530 OFFCURVE",
"187 716 OFFCURVE",
"40 716 CURVE",
"37 694 LINE",
"148 684 OFFCURVE",
"216 580 OFFCURVE",
"216 297 CURVE"
);
}
);
width = 354;
}
);
leftKerningGroup = parenright;
rightKerningGroup = parenright;
unicode = 0029;
},
{
glyphname = emdash;
lastChange = "2017-05-25 15:40:52 +0000";
layers = (
{
hints = (
{
origin = "{0, 0}";
target = "{0, 1}";
type = Cap;
name = _cap.punction.1;
},
{
origin = "{0, 2}";
target = "{0, 3}";
type = Cap;
name = _cap.punction.1;
}
);
layerId = "4A3087DE-C6CF-4F86-8B90-A264D0797279";
paths = (
{
closed = 1;
nodes = (
"70 304 LINE",
"70 268 LINE",
"930 268 LINE",
"930 304 LINE"
);
}
);
width = 1000;
}
);
leftKerningGroup = hyphen;
rightKerningGroup = hyphen;
unicode = 2014;
},
{
glyphname = endash;
lastChange = "2017-05-25 15:40:52 +0000";
layers = (
{
hints = (
{
origin = "{0, 3}";
target = "{0, 0}";
type = Cap;
name = _cap.punction.1;
},
{
origin = "{0, 1}";
target = "{0, 2}";
type = Cap;
name = _cap.punction.1;
}
);
layerId = "4A3087DE-C6CF-4F86-8B90-A264D0797279";
paths = (
{
closed = 1;
nodes = (
"70 268 LINE",
"430 268 LINE",
"430 304 LINE",
"70 304 LINE"
);
}
);
width = 500;
}
);
leftKerningGroup = hyphen;
rightKerningGroup = hyphen;
unicode = 2013;
},
{
glyphname = hyphen;
lastChange = "2017-05-26 10:59:05 +0000";
layers = (
{
hints = (
{
origin = "{0, 3}";
target = "{0, 0}";
type = Cap;
name = _cap.punction.1;
},
{
origin = "{0, 1}";
target = "{0, 2}";
type = Cap;
name = _cap.punction.1;
}
);
layerId = "4A3087DE-C6CF-4F86-8B90-A264D0797279";
paths = (
{
closed = 1;
nodes = (
"70 268 LINE",
"266 268 LINE",
"266 304 LINE",
"70 304 LINE"
);
}
);
width = 336;
}
);
leftKerningGroup = hyphen;
rightKerningGroup = hyphen;
unicode = 002D;
},
{
glyphname = guilsinglright;
lastChange = "2017-05-25 21:53:57 +0000";
layers = (
{
layerId = "4A3087DE-C6CF-4F86-8B90-A264D0797279";
paths = (
{
closed = 1;
nodes = (
"50 459 LINE",
"119 390 OFFCURVE",
"192 312 OFFCURVE",
"258 237 CURVE",
"324 237 LINE",
"324 246 LINE",
"237 319 OFFCURVE",
"150 395 OFFCURVE",
"65 473 CURVE"
);
},
{
closed = 1;
nodes = (
"150 79 OFFCURVE",
"237 155 OFFCURVE",
"324 228 CURVE",
"324 237 LINE",
"258 237 LINE",
"192 162 OFFCURVE",
"119 84 OFFCURVE",
"50 15 CURVE",
"65 1 LINE"
);
}
);
width = 424;
}
);
leftKerningGroup = guilsinglright;
rightKerningGroup = guilsinglright;
unicode = 203A;
},
{
glyphname = quoteright;
lastChange = "2017-05-25 15:40:52 +0000";
layers = (
{
layerId = "4A3087DE-C6CF-4F86-8B90-A264D0797279";
paths = (
{
closed = 1;
nodes = (
"119 614 OFFCURVE",
"88 536 OFFCURVE",
"38 478 CURVE",
"60 469 LINE",
"88 496 OFFCURVE",
"119 533 OFFCURVE",
"139 562 CURVE SMOOTH",
"179 620 OFFCURVE",
"195 662 OFFCURVE",
"199 700 CURVE",
"128 680 LINE"
);
}
);
width = 249;
}
);
leftKerningGroup = quotedblleft;
rightKerningGroup = quotedblleft;
unicode = 2019;
},
{
glyphname = cent;
lastChange = "2017-05-25 15:40:52 +0000";
layers = (
{
layerId = "4A3087DE-C6CF-4F86-8B90-A264D0797279";
paths = (
{
closed = 1;
nodes = (
"315 409 OFFCURVE",
"359 370 OFFCURVE",
"388 305 CURVE",
"407 307 LINE",
"407 377 OFFCURVE",
"405 392 OFFCURVE",
"389 413 CURVE SMOOTH",
"370 438 OFFCURVE",
"332 454 OFFCURVE",
"284 454 CURVE SMOOTH",
"156 454 OFFCURVE",
"54 346 OFFCURVE",
"54 207 CURVE SMOOTH",
"54 60 OFFCURVE",
"146 -14 OFFCURVE",
"250 -14 CURVE SMOOTH",
"306 -14 OFFCURVE",
"349 2 OFFCURVE",
"397 34 CURVE SMOOTH",
"403 38 OFFCURVE",
"407 42 OFFCURVE",
"407 48 CURVE SMOOTH",
"407 53 OFFCURVE",
"404 64 OFFCURVE",
"400 73 CURVE",
"362 46 OFFCURVE",
"323 29 OFFCURVE",
"269 29 CURVE SMOOTH",
"214 29 OFFCURVE",
"119 76 OFFCURVE",
"119 236 CURVE SMOOTH",
"119 355 OFFCURVE",
"180 409 OFFCURVE",
"249 409 CURVE SMOOTH"
);
},
{
closed = 1;
nodes = (
"214 -95 LINE",
"333 541 LINE",
"303 541 LINE",
"184 -95 LINE"
);
}
);
width = 465;
}
);
leftKerningGroup = o;
rightKerningGroup = c;
unicode = 00A2;
},
{
glyphname = currency;
lastChange = "2017-05-25 15:40:52 +0000";
layers = (
{
layerId = "4A3087DE-C6CF-4F86-8B90-A264D0797279";
paths = (
{
closed = 1;
nodes = (
"458 119 LINE",
"388 189 LINE",
"367 168 LINE",
"437 98 LINE"
);
},
{
closed = 1;
nodes = (
"445 301 LINE",
"445 401 OFFCURVE",
"365 481 OFFCURVE",
"265 481 CURVE",
"265 451 LINE",
"349 451 OFFCURVE",
"413 389 OFFCURVE",
"413 301 CURVE"
);
},
{
closed = 1;
nodes = (
"163 434 LINE",
"93 504 LINE",
"72 483 LINE",
"142 413 LINE"
);
},
{
closed = 1;
nodes = (
"163 168 LINE",
"142 189 LINE",
"72 119 LINE",
"93 98 LINE"
);
},
{
closed = 1;
nodes = (
"458 483 LINE",
"437 504 LINE",
"367 434 LINE",
"388 413 LINE"
);
},
{
closed = 1;
nodes = (
"117 389 OFFCURVE",
"181 451 OFFCURVE",
"265 451 CURVE",
"265 481 LINE",
"165 481 OFFCURVE",
"85 401 OFFCURVE",
"85 301 CURVE",
"117 301 LINE"
);
},
{
closed = 1;
nodes = (
"413 213 OFFCURVE",
"349 151 OFFCURVE",
"265 151 CURVE",
"265 121 LINE",
"365 121 OFFCURVE",
"445 201 OFFCURVE",
"445 301 CURVE",
"413 301 LINE"
);
},
{
closed = 1;
nodes = (
"85 301 LINE",
"85 201 OFFCURVE",
"165 121 OFFCURVE",
"265 121 CURVE",
"265 151 LINE",
"181 151 OFFCURVE",
"117 213 OFFCURVE",
"117 301 CURVE"
);
}
);
width = 530;
}
);
leftKerningGroup = currency;
rightKerningGroup = currency;
unicode = 00A4;
},
{
glyphname = dollar;
lastChange = "2017-05-25 15:40:52 +0000";
layers = (
{
layerId = "4A3087DE-C6CF-4F86-8B90-A264D0797279";
paths = (
{
closed = 1;
nodes = (
"143 -57 LINE",
"252 559 LINE",
"222 559 LINE",
"113 -57 LINE"
);
},
{
closed = 1;
nodes = (
"133 54 OFFCURVE",
"93 70 OFFCURVE",
"61 128 CURVE",
"45 126 LINE",
"46 44 OFFCURVE",
"80 16 OFFCURVE",
"139 16 CURVE SMOOTH",
"231 16 OFFCURVE",
"313 80 OFFCURVE",
"313 163 CURVE SMOOTH",
"313 220 OFFCURVE",
"283 256 OFFCURVE",
"200 310 CURVE",
"190 309 LINE",
"145 339 OFFCURVE",
"129 365 OFFCURVE",
"129 395 CURVE SMOOTH",
"129 430 OFFCURVE",
"159 454 OFFCURVE",
"205 450 CURVE",
"233 450 OFFCURVE",
"253 440 OFFCURVE",
"283 408 CURVE",
"299 410 LINE",
"297 474 OFFCURVE",
"259 494 OFFCURVE",
"222 494 CURVE SMOOTH",
"155 494 OFFCURVE",
"84 431 OFFCURVE",
"84 358 CURVE SMOOTH",
"84 311 OFFCURVE",
"108 277 OFFCURVE",
"167 238 CURVE",
"180 238 LINE",
"239 199 OFFCURVE",
"260 171 OFFCURVE",
"260 132 CURVE SMOOTH",
"260 81 OFFCURVE",
"221 54 OFFCURVE",
"173 54 CURVE SMOOTH"
);
}
);
width = 368;
}
);
leftKerningGroup = dollar;
rightKerningGroup = dollar;
unicode = 0024;
},
{
glyphname = euro;
lastChange = "2017-05-25 15:40:52 +0000";
layers = (
{
layerId = "4A3087DE-C6CF-4F86-8B90-A264D0797279";
paths = (
{
closed = 1;
nodes = (
"301 33 LINE",
"209 33 OFFCURVE",
"168 104 OFFCURVE",
"168 250 CURVE SMOOTH",
"168 400 OFFCURVE",
"207 487 OFFCURVE",
"276 487 CURVE",
"314 524 LINE",
"191 524 OFFCURVE",
"100 425 OFFCURVE",
"100 228 CURVE SMOOTH",
"100 65 OFFCURVE",
"169 -14 OFFCURVE",
"283 -14 CURVE"
);
},
{
closed = 1;
nodes = (
"389 186 LINE",
"399 216 LINE",
"41 216 LINE",
"31 186 LINE"
);
},
{
closed = 1;
nodes = (
"410 270 LINE",
"420 300 LINE",
"59 300 LINE",
"49 270 LINE"
);
},
{
closed = 1;
nodes = (
"336 487 OFFCURVE",
"369 456 OFFCURVE",
"413 376 CURVE",
"431 379 LINE",
"431 481 OFFCURVE",
"403 524 OFFCURVE",
"314 524 CURVE",
"276 487 LINE"
);
},
{
closed = 1;
nodes = (
"331 -14 OFFCURVE",
"370 -1 OFFCURVE",
"420 29 CURVE SMOOTH",
"430 35 OFFCURVE",
"435 39 OFFCURVE",
"435 47 CURVE SMOOTH",
"435 54 OFFCURVE",
"434 59 OFFCURVE",
"426 75 CURVE",
"381 44 OFFCURVE",
"352 33 OFFCURVE",
"301 33 CURVE",
"283 -14 LINE"
);
}
);
width = 485;
}
);
leftKerningGroup = euro;
rightKerningGroup = euro;
unicode = 20AC;
},
{
glyphname = sterling;
lastChange = "2017-05-25 15:40:52 +0000";
layers = (
{
layerId = "4A3087DE-C6CF-4F86-8B90-A264D0797279";
paths = (
{
closed = 1;
nodes = (
"371 233 LINE",
"375 263 LINE",
"61 263 LINE",
"57 233 LINE"
);
},
{
closed = 1;
nodes = (
"378 -6 OFFCURVE",
"385 -3 OFFCURVE",
"393 3 CURVE SMOOTH",
"445 45 LINE",
"432 61 LINE",
"406 48 OFFCURVE",
"391 46 OFFCURVE",
"376 46 CURVE SMOOTH",
"361 46 OFFCURVE",
"343 48 OFFCURVE",
"282 56 CURVE SMOOTH",
"252 60 OFFCURVE",
"221 63 OFFCURVE",
"203 63 CURVE SMOOTH",
"178 63 OFFCURVE",
"144 57 OFFCURVE",
"64 20 CURVE",
"88 27 LINE",
"163 96 OFFCURVE",
"184 170 OFFCURVE",
"192 250 CURVE SMOOTH",
"202 355 OFFCURVE",
"196 481 OFFCURVE",
"257 481 CURVE SMOOTH",
"282 481 OFFCURVE",
"320 461 OFFCURVE",
"320 407 CURVE",
"335 408 LINE",
"355 418 OFFCURVE",
"371 438 OFFCURVE",
"371 462 CURVE SMOOTH",
"371 494 OFFCURVE",
"343 524 OFFCURVE",
"277 524 CURVE SMOOTH",
"224 524 OFFCURVE",
"160 504 OFFCURVE",
"130 248 CURVE SMOOTH",
"112 96 OFFCURVE",
"97 62 OFFCURVE",
"41 18 CURVE SMOOTH",
"36 14 OFFCURVE",
"36 10 OFFCURVE",
"38 5 CURVE SMOOTH",
"41 -2 LINE",
"111 8 OFFCURVE",
"150 11 OFFCURVE",
"180 11 CURVE SMOOTH",
"210 11 OFFCURVE",
"234 8 OFFCURVE",
"264 4 CURVE SMOOTH",
"316 -3 OFFCURVE",
"340 -6 OFFCURVE",
"359 -6 CURVE SMOOTH"
);
}
);
width = 463;
}
);
leftKerningGroup = sterling;
rightKerningGroup = sterling;
unicode = 00A3;
},
{
glyphname = yen;
lastChange = "2017-05-25 15:40:52 +0000";
layers = (
{
hints = (
{
origin = "{0, 12}";
scale = "{-1, 1}";
type = Corner;
name = _corner.stm.out.1;
options = 1;
},
{
origin = "{0, 3}";
type = Corner;
name = _corner.stm.out.1;
},
{
origin = "{0, 15}";
target = "{0, 0}";
type = Cap;
name = _cap.stm.btm.3;
}
);
layerId = "4A3087DE-C6CF-4F86-8B90-A264D0797279";
paths = (
{
closed = 1;
nodes = (
"248 0 LINE",
"248 269 LINE",
"233 216 LINE",
"410 510 LINE",
"358 510 LINE",
"326 437 OFFCURVE",
"278 345 OFFCURVE",
"226 259 CURVE",
"236 259 LINE",
"189 345 OFFCURVE",
"151 430 OFFCURVE",
"120 510 CURVE",
"36 510 LINE",
"197 218 LINE",
"186 271 LINE",
"186 0 LINE"
);
},
{
closed = 1;
nodes = (
"374 166 LINE",
"378 196 LINE",
"76 196 LINE",
"72 166 LINE"
);
},
{
closed = 1;
nodes = (
"374 252 LINE",
"378 282 LINE",
"250 282 LINE",
"234 254 LINE",
"192 282 LINE",
"76 282 LINE",
"72 252 LINE"
);
}
);
width = 445;
}
);
leftKerningGroup = yen;
rightKerningGroup = yen;
unicode = 00A5;
},
{
glyphname = cent.tf;
lastChange = "2017-05-25 15:40:52 +0000";
layers = (
{
layerId = "4A3087DE-C6CF-4F86-8B90-A264D0797279";
paths = (
{
closed = 1;
nodes = (
"351 409 OFFCURVE",
"395 370 OFFCURVE",
"424 305 CURVE",
"443 307 LINE",
"443 377 OFFCURVE",
"441 392 OFFCURVE",
"425 413 CURVE SMOOTH",
"406 438 OFFCURVE",
"368 454 OFFCURVE",
"320 454 CURVE SMOOTH",
"192 454 OFFCURVE",
"90 346 OFFCURVE",
"90 207 CURVE SMOOTH",
"90 60 OFFCURVE",
"182 -14 OFFCURVE",
"286 -14 CURVE SMOOTH",
"342 -14 OFFCURVE",
"385 2 OFFCURVE",
"433 34 CURVE SMOOTH",
"439 38 OFFCURVE",
"443 42 OFFCURVE",
"443 48 CURVE SMOOTH",
"443 53 OFFCURVE",
"440 64 OFFCURVE",
"436 73 CURVE",
"398 46 OFFCURVE",
"359 29 OFFCURVE",
"305 29 CURVE SMOOTH",
"250 29 OFFCURVE",
"155 76 OFFCURVE",
"155 236 CURVE SMOOTH",
"155 355 OFFCURVE",
"216 409 OFFCURVE",
"285 409 CURVE SMOOTH"
);
},
{
closed = 1;
nodes = (
"250 -95 LINE",
"369 541 LINE",
"339 541 LINE",
"220 -95 LINE"
);
}
);
width = 530;
}
);
leftKerningGroup = cent.tf;
rightKerningGroup = cent.tf;
},
{
glyphname = dollar.tf;
lastChange = "2017-05-25 15:40:52 +0000";
layers = (
{
layerId = "4A3087DE-C6CF-4F86-8B90-A264D0797279";
paths = (
{
closed = 1;
nodes = (
"210 61 OFFCURVE",
"157 85 OFFCURVE",
"113 173 CURVE",
"98 173 LINE",
"94 152 OFFCURVE",
"93 137 OFFCURVE",
"93 125 CURVE SMOOTH",
"93 104 OFFCURVE",
"98 82 OFFCURVE",
"106 69 CURVE SMOOTH",
"128 33 OFFCURVE",
"183 23 OFFCURVE",
"229 23 CURVE SMOOTH",
"342 23 OFFCURVE",
"447 87 OFFCURVE",
"447 192 CURVE SMOOTH",
"447 271 OFFCURVE",
"406 316 OFFCURVE",
"276 401 CURVE",
"267 400 LINE",
"214 433 OFFCURVE",
"190 473 OFFCURVE",
"190 513 CURVE SMOOTH",
"190 571 OFFCURVE",
"240 604 OFFCURVE",
"304 600 CURVE",
"324 597 LINE",
"355 586 OFFCURVE",
"385 556 OFFCURVE",
"405 513 CURVE",
"420 513 LINE",
"421 559 OFFCURVE",
"422 584 OFFCURVE",
"409 604 CURVE SMOOTH",
"395 625 OFFCURVE",
"368 640 OFFCURVE",
"309 640 CURVE SMOOTH",
"229 640 OFFCURVE",
"134 577 OFFCURVE",
"134 481 CURVE SMOOTH",
"134 415 OFFCURVE",
"169 363 OFFCURVE",
"249 312 CURVE",
"260 313 LINE",
"346 258 OFFCURVE",
"380 209 OFFCURVE",
"380 158 CURVE SMOOTH",
"380 99 OFFCURVE",
"329 61 OFFCURVE",
"262 61 CURVE SMOOTH"
);
},
{
closed = 1;
nodes = (
"216 -58 LINE",
"352 714 LINE",
"318 714 LINE",
"182 -58 LINE"
);
}
);
width = 530;
}
);
leftKerningGroup = dollar.tf;
rightKerningGroup = dollar.tf;
},
{
glyphname = euro.tf;
lastChange = "2017-05-25 15:40:52 +0000";
layers = (
{
layerId = "4A3087DE-C6CF-4F86-8B90-A264D0797279";
paths = (
{
closed = 1;
nodes = (
"324 36 LINE",
"220 36 OFFCURVE",
"158 100 OFFCURVE",
"158 330 CURVE SMOOTH",
"158 515 OFFCURVE",
"201 623 OFFCURVE",
"302 623 CURVE",
"333 670 LINE",
"213 670 OFFCURVE",
"80 566 OFFCURVE",
"80 318 CURVE SMOOTH",
"80 90 OFFCURVE",
"159 -14 OFFCURVE",
"293 -14 CURVE"
);
},
{
closed = 1;
nodes = (
"420 254 LINE",
"429 288 LINE",
"17 288 LINE",
"7 254 LINE"
);
},
{
closed = 1;
nodes = (
"439 363 LINE",
"450 397 LINE",
"35 397 LINE",
"25 363 LINE"
);
},
{
closed = 1;
nodes = (
"365 623 OFFCURVE",
"416 592 OFFCURVE",
"452 502 CURVE",
"470 505 LINE",
"470 560 OFFCURVE",
"469 576 OFFCURVE",
"462 602 CURVE SMOOTH",
"450 647 OFFCURVE",
"400 670 OFFCURVE",
"333 670 CURVE",
"302 623 LINE"
);
},
{
closed = 1;
nodes = (
"363 -14 OFFCURVE",
"401 2 OFFCURVE",
"461 32 CURVE SMOOTH",
"471 37 OFFCURVE",
"476 42 OFFCURVE",
"476 50 CURVE SMOOTH",
"476 57 OFFCURVE",
"475 62 OFFCURVE",
"470 74 CURVE",
"422 47 OFFCURVE",
"377 36 OFFCURVE",
"324 36 CURVE",
"293 -14 LINE"
);
}
);
width = 530;
}
);
leftKerningGroup = euro.tf;
rightKerningGroup = euro.tf;
},
{
glyphname = sterling.tf;
lastChange = "2017-05-25 15:40:52 +0000";
layers = (
{
layerId = "4A3087DE-C6CF-4F86-8B90-A264D0797279";
paths = (
{
closed = 1;
nodes = (
"401 301 LINE",
"405 335 LINE",
"91 335 LINE",
"87 301 LINE"
);
},
{
closed = 1;
nodes = (
"431 -14 OFFCURVE",
"439 -13 OFFCURVE",
"463 8 CURVE SMOOTH",
"507 46 LINE",
"495 59 LINE",
"472 48 OFFCURVE",
"457 44 OFFCURVE",
"433 44 CURVE SMOOTH",
"418 44 OFFCURVE",
"389 48 OFFCURVE",
"351 55 CURVE SMOOTH",
"305 63 OFFCURVE",
"274 68 OFFCURVE",
"242 68 CURVE SMOOTH",
"189 68 OFFCURVE",
"130 49 OFFCURVE",
"64 18 CURVE",
"88 19 LINE",
"182 88 OFFCURVE",
"225 180 OFFCURVE",
"232 319 CURVE SMOOTH",
"245 574 OFFCURVE",
"259 615 OFFCURVE",
"315 615 CURVE SMOOTH",
"354 615 OFFCURVE",
"399 592 OFFCURVE",
"426 536 CURVE",
"441 537 LINE",
"441 561 OFFCURVE",
"440 589 OFFCURVE",
"438 608 CURVE SMOOTH",
"433 651 OFFCURVE",
"408 664 OFFCURVE",
"339 664 CURVE SMOOTH",
"217 664 OFFCURVE",
"171 491 OFFCURVE",
"162 320 CURVE SMOOTH",
"156 209 OFFCURVE",
"155 109 OFFCURVE",
"37 15 CURVE SMOOTH",
"32 11 OFFCURVE",
"32 9 OFFCURVE",
"38 -5 CURVE",
"109 6 OFFCURVE",
"151 11 OFFCURVE",
"192 11 CURVE SMOOTH",
"237 11 OFFCURVE",
"289 4 OFFCURVE",
"339 -5 CURVE SMOOTH",
"379 -12 OFFCURVE",
"400 -14 OFFCURVE",
"419 -14 CURVE SMOOTH"
);
}
);
width = 530;
}
);
leftKerningGroup = sterling.tf;
rightKerningGroup = sterling.tf;
},
{
glyphname = yen.tf;
lastChange = "2017-05-25 15:40:52 +0000";
layers = (
{
hints = (
{
origin = "{0, 0}";
scale = "{-1, 1}";
type = Corner;
name = _corner.STM.btm.1;
},
{
origin = "{0, 3}";
type = Corner;
name = _corner.STM.top.1;
},
{
origin = "{0, 12}";
scale = "{-1, 1}";
type = Corner;
name = _corner.STM.top.1;
options = 1;
},
{
origin = "{0, 15}";
type = Corner;
name = _corner.STM.btm.1;
}
);
layerId = "4A3087DE-C6CF-4F86-8B90-A264D0797279";
paths = (
{
closed = 1;
nodes = (
"291 0 LINE",
"291 329 LINE",
"274 254 LINE",
"477 650 LINE",
"431 650 LINE",
"380 536 OFFCURVE",
"328 431 OFFCURVE",
"273 330 CURVE",
"277 330 LINE",
"225 440 OFFCURVE",
"178 545 OFFCURVE",
"137 650 CURVE",
"53 650 LINE",
"238 256 LINE",
"225 331 LINE",
"225 0 LINE"
);
},
{
closed = 1;
nodes = (
"423 224 LINE",
"427 258 LINE",
"105 258 LINE",
"101 224 LINE"
);
},
{
closed = 1;
nodes = (
"427 310 LINE",
"431 344 LINE",
"289 344 LINE",
"273 312 LINE",
"231 344 LINE",
"109 344 LINE",
"105 310 LINE"
);
}
);
width = 530;
}
);
leftKerningGroup = yen.tf;
rightKerningGroup = yen.tf;
},
{
glyphname = plus;
lastChange = "2017-05-25 15:40:52 +0000";
layers = (
{
components = (
{
name = minus;
}
);
hints = (
{
origin = "{0, 3}";
target = "{0, 0}";
type = Cap;
name = _cap.punction.2;
},
{
origin = "{0, 1}";
target = "{0, 2}";
type = Cap;
name = _cap.punction.2;
}
);
layerId = "4A3087DE-C6CF-4F86-8B90-A264D0797279";
paths = (
{
closed = 1;
nodes = (
"284 94 LINE",
"284 484 LINE",
"246 484 LINE",
"246 94 LINE"
);
}
);
width = 530;
}
);
leftKerningGroup = plus;
rightKerningGroup = plus;
unicode = 002B;
},
{
glyphname = minus;
lastChange = "2017-05-25 15:40:52 +0000";
layers = (
{
hints = (
{
origin = "{0, 2}";
target = "{0, 3}";
type = Cap;
name = _cap.punction.1;
},
{
origin = "{0, 0}";
target = "{0, 1}";
type = Cap;
name = _cap.punction.1;
}
);
layerId = "4A3087DE-C6CF-4F86-8B90-A264D0797279";
paths = (
{
closed = 1;
nodes = (
"450 271 LINE",
"450 307 LINE",
"80 307 LINE",
"80 271 LINE"
);
}
);
width = 530;
}
);
leftKerningGroup = minus;
rightKerningGroup = minus;
unicode = 2212;
},
{
glyphname = multiply;
lastChange = "2017-05-25 15:40:52 +0000";
layers = (
{
layerId = "4A3087DE-C6CF-4F86-8B90-A264D0797279";
paths = (
{
closed = 1;
nodes = (
"439 145 LINE",
"329 247 OFFCURVE",
"223 353 OFFCURVE",
"121 463 CURVE",
"91 433 LINE",
"201 331 OFFCURVE",
"307 225 OFFCURVE",
"409 115 CURVE"
);
},
{
closed = 1;
nodes = (
"223 225 OFFCURVE",
"329 331 OFFCURVE",
"439 433 CURVE",
"409 463 LINE",
"307 353 OFFCURVE",
"201 247 OFFCURVE",
"91 145 CURVE",
"121 115 LINE"
);
}
);
width = 530;
}
);
leftKerningGroup = multiply;
rightKerningGroup = multiply;
unicode = 00D7;
},
{
glyphname = divide;
lastChange = "2017-05-25 15:40:52 +0000";
layers = (
{
components = (
{
name = minus;
}
);
layerId = "4A3087DE-C6CF-4F86-8B90-A264D0797279";
paths = (
{
closed = 1;
nodes = (
"286 101 OFFCURVE",
"303 118 OFFCURVE",
"303 139 CURVE SMOOTH",
"303 160 OFFCURVE",
"286 177 OFFCURVE",
"265 177 CURVE SMOOTH",
"244 177 OFFCURVE",
"227 160 OFFCURVE",
"227 139 CURVE SMOOTH",
"227 118 OFFCURVE",
"244 101 OFFCURVE",
"265 101 CURVE SMOOTH"
);
},
{
closed = 1;
nodes = (
"286 401 OFFCURVE",
"303 418 OFFCURVE",
"303 439 CURVE SMOOTH",
"303 460 OFFCURVE",
"286 477 OFFCURVE",
"265 477 CURVE SMOOTH",
"244 477 OFFCURVE",
"227 460 OFFCURVE",
"227 439 CURVE SMOOTH",
"227 418 OFFCURVE",
"244 401 OFFCURVE",
"265 401 CURVE SMOOTH"
);
}
);
width = 530;
}
);
leftKerningGroup = divide;
rightKerningGroup = divide;
unicode = 00F7;
},
{
glyphname = equal;
lastChange = "2017-05-25 15:40:52 +0000";
layers = (
{
hints = (
{
origin = "{0, 3}";
target = "{0, 0}";
type = Cap;
name = _cap.punction.1;
},
{
origin = "{1, 3}";
target = "{1, 0}";
type = Cap;
name = _cap.punction.1;
},
{
origin = "{1, 1}";
target = "{1, 2}";
type = Cap;
name = _cap.punction.1;
},
{
origin = "{0, 1}";
target = "{0, 2}";
type = Cap;
name = _cap.punction.1;
}
);
layerId = "4A3087DE-C6CF-4F86-8B90-A264D0797279";
paths = (
{
closed = 1;
nodes = (
"97 338 LINE",
"433 338 LINE",
"433 374 LINE",
"97 374 LINE"
);
},
{
closed = 1;
nodes = (
"97 198 LINE",
"433 198 LINE",
"433 234 LINE",
"97 234 LINE"
);
}
);
width = 530;
}
);
leftKerningGroup = equal;
rightKerningGroup = equal;
unicode = 003D;
},
{
glyphname = notequal;
lastChange = "2017-05-25 15:40:52 +0000";
layers = (
{
components = (
{
name = equal;
}
);
layerId = "4A3087DE-C6CF-4F86-8B90-A264D0797279";
paths = (
{
closed = 1;
nodes = (
"314 405 OFFCURVE",
"341 481 OFFCURVE",
"369 558 CURVE",
"322 558 LINE",
"300 479 OFFCURVE",
"280 420 OFFCURVE",
"254 340 CURVE SMOOTH",
"223 245 LINE SMOOTH",
"198 169 OFFCURVE",
"171 92 OFFCURVE",
"143 15 CURVE",
"190 15 LINE",
"212 94 OFFCURVE",
"232 153 OFFCURVE",
"258 233 CURVE SMOOTH",
"289 328 LINE SMOOTH"
);
}
);
width = 530;
}
);
leftKerningGroup = notequal;
rightKerningGroup = notequal;
unicode = 2260;
},
{
glyphname = greater;
lastChange = "2017-05-25 15:40:52 +0000";
layers = (
{
layerId = "4A3087DE-C6CF-4F86-8B90-A264D0797279";
paths = (
{
closed = 1;
nodes = (
"72 436 LINE",
"205 378 OFFCURVE",
"325 319 OFFCURVE",
"465 244 CURVE",
"465 273 LINE",
"335 206 OFFCURVE",
"204 143 OFFCURVE",
"72 82 CURVE",
"76 41 LINE",
"212 114 OFFCURVE",
"350 182 OFFCURVE",
"490 247 CURVE",
"490 273 LINE",
"338 345 OFFCURVE",
"212 408 OFFCURVE",
"76 479 CURVE"
);
}
);
width = 560;
}
);
leftKerningGroup = greater;
rightKerningGroup = greater;
unicode = 003E;
},
{
glyphname = greaterequal;
lastChange = "2017-05-25 15:40:52 +0000";
layers = (
{
hints = (
{
origin = "{0, 2}";
target = "{0, 3}";
type = Cap;
name = _cap.punction.1;
},
{
origin = "{0, 0}";
target = "{0, 1}";
type = Cap;
name = _cap.punction.1;
}
);
layerId = "4A3087DE-C6CF-4F86-8B90-A264D0797279";
paths = (
{
closed = 1;
nodes = (
"510 0 LINE",
"510 36 LINE",
"90 36 LINE",
"90 0 LINE"
);
},
{
closed = 1;
nodes = (
"92 458 LINE",
"225 402 OFFCURVE",
"356 345 OFFCURVE",
"485 286 CURVE",
"485 314 LINE",
"355 255 OFFCURVE",
"224 198 OFFCURVE",
"92 143 CURVE",
"96 101 LINE",
"232 165 OFFCURVE",
"370 227 OFFCURVE",
"510 287 CURVE",
"510 313 LINE",
"370 374 OFFCURVE",
"232 436 OFFCURVE",
"96 499 CURVE"
);
}
);
width = 600;
}
);
leftKerningGroup = greaterequal;
rightKerningGroup = greaterequal;
unicode = 2265;
},
{
glyphname = lessequal;
lastChange = "2017-05-25 15:40:52 +0000";
layers = (
{
hints = (
{
origin = "{1, 2}";
target = "{1, 3}";
type = Cap;
name = _cap.punction.1;
},
{
origin = "{1, 0}";
target = "{1, 1}";
type = Cap;
name = _cap.punction.1;
}
);
layerId = "4A3087DE-C6CF-4F86-8B90-A264D0797279";
paths = (
{
closed = 1;
nodes = (
"508 142 LINE",
"375 198 OFFCURVE",
"244 255 OFFCURVE",
"115 314 CURVE",
"115 286 LINE",
"245 345 OFFCURVE",
"376 402 OFFCURVE",
"508 457 CURVE",
"504 499 LINE",
"368 435 OFFCURVE",
"230 373 OFFCURVE",
"90 313 CURVE",
"90 287 LINE",
"230 226 OFFCURVE",
"368 164 OFFCURVE",
"504 101 CURVE"
);
},
{
closed = 1;
nodes = (
"510 0 LINE",
"510 36 LINE",
"90 36 LINE",
"90 0 LINE"
);
}
);
width = 600;
}
);
leftKerningGroup = lessequal;
rightKerningGroup = lessequal;
unicode = 2264;
},
{
glyphname = plusminus;
lastChange = "2017-05-25 15:40:52 +0000";
layers = (
{
hints = (
{
origin = "{1, 0}";
target = "{1, 1}";
type = Cap;
name = _cap.punction.2;
},
{
origin = "{1, 2}";
target = "{1, 3}";
type = Cap;
name = _cap.punction.2;
},
{
origin = "{2, 0}";
target = "{2, 1}";
type = Cap;
name = _cap.punction.1;
},
{
origin = "{0, 2}";
target = "{0, 3}";
type = Cap;
name = _cap.punction.1;
},
{
origin = "{0, 0}";
target = "{0, 1}";
type = Cap;
name = _cap.punction.1;
},
{
origin = "{2, 2}";
target = "{2, 3}";
type = Cap;
name = _cap.punction.1;
}
);
layerId = "4A3087DE-C6CF-4F86-8B90-A264D0797279";
paths = (
{
closed = 1;
nodes = (
"465 0 LINE",
"465 36 LINE",
"65 36 LINE",
"65 0 LINE"
);
},
{
closed = 1;
nodes = (
"246 116 LINE",
"284 116 LINE",
"284 520 LINE",
"246 520 LINE"
);
},
{
closed = 1;
nodes = (
"65 338 LINE",
"65 302 LINE",
"465 302 LINE",
"465 338 LINE"
);
}
);
width = 530;
}
);
leftKerningGroup = plusminus;
rightKerningGroup = plusminus;
unicode = 00B1;
},
{
glyphname = approxequal;
lastChange = "2017-05-25 15:40:52 +0000";
layers = (
{
layerId = "4A3087DE-C6CF-4F86-8B90-A264D0797279";
paths = (
{
closed = 1;
nodes = (
"380 360 OFFCURVE",
"373 346 OFFCURVE",
"353 346 CURVE SMOOTH",
"339 346 OFFCURVE",
"327 350 OFFCURVE",
"243 392 CURVE SMOOTH",
"169 429 OFFCURVE",
"153 432 OFFCURVE",
"139 432 CURVE SMOOTH",
"106 432 OFFCURVE",
"94 414 OFFCURVE",
"70 332 CURVE",
"89 324 OFFCURVE",
"91 325 OFFCURVE",
"92 328 CURVE",
"104 369 OFFCURVE",
"113 383 OFFCURVE",
"133 383 CURVE SMOOTH",
"147 383 OFFCURVE",
"159 379 OFFCURVE",
"243 337 CURVE SMOOTH",
"317 300 OFFCURVE",
"333 297 OFFCURVE",
"347 297 CURVE SMOOTH",
"380 297 OFFCURVE",
"392 315 OFFCURVE",
"416 397 CURVE",
"397 405 OFFCURVE",
"395 404 OFFCURVE",
"394 401 CURVE SMOOTH"
);
},
{
closed = 1;
nodes = (
"380 209 OFFCURVE",
"373 195 OFFCURVE",
"353 195 CURVE SMOOTH",
"339 195 OFFCURVE",
"327 199 OFFCURVE",
"243 241 CURVE SMOOTH",
"169 278 OFFCURVE",
"153 281 OFFCURVE",
"139 281 CURVE SMOOTH",
"106 281 OFFCURVE",
"94 263 OFFCURVE",
"70 181 CURVE",
"89 173 OFFCURVE",
"91 174 OFFCURVE",
"92 177 CURVE",
"104 218 OFFCURVE",
"113 232 OFFCURVE",
"133 232 CURVE SMOOTH",
"147 232 OFFCURVE",
"159 228 OFFCURVE",
"243 186 CURVE SMOOTH",
"317 149 OFFCURVE",
"333 146 OFFCURVE",
"347 146 CURVE SMOOTH",
"380 146 OFFCURVE",
"392 164 OFFCURVE",
"416 246 CURVE",
"397 254 OFFCURVE",
"395 253 OFFCURVE",
"394 250 CURVE SMOOTH"
);
}
);
width = 486;
}
);
leftKerningGroup = approxequal;
rightKerningGroup = approxequal;
unicode = 2248;
},
{
glyphname = asciitilde;
lastChange = "2017-05-25 15:40:52 +0000";
layers = (
{
layerId = "4A3087DE-C6CF-4F86-8B90-A264D0797279";
paths = (
{
closed = 1;
nodes = (
"380 284 OFFCURVE",
"373 270 OFFCURVE",
"353 270 CURVE SMOOTH",
"339 270 OFFCURVE",
"327 274 OFFCURVE",
"243 316 CURVE SMOOTH",
"169 353 OFFCURVE",
"153 356 OFFCURVE",
"139 356 CURVE SMOOTH",
"106 356 OFFCURVE",
"94 338 OFFCURVE",
"70 256 CURVE",
"89 248 OFFCURVE",
"91 249 OFFCURVE",
"92 252 CURVE",
"104 293 OFFCURVE",
"113 307 OFFCURVE",
"133 307 CURVE SMOOTH",
"147 307 OFFCURVE",
"159 303 OFFCURVE",
"243 261 CURVE SMOOTH",
"317 224 OFFCURVE",
"333 221 OFFCURVE",
"347 221 CURVE SMOOTH",
"380 221 OFFCURVE",
"392 239 OFFCURVE",
"416 321 CURVE",
"397 329 OFFCURVE",
"395 328 OFFCURVE",
"394 325 CURVE SMOOTH"
);
}
);
width = 486;
}
);
leftKerningGroup = asciitilde;
rightKerningGroup = asciitilde;
unicode = 007E;
},
{
glyphname = logicalnot;
lastChange = "2017-05-25 15:40:52 +0000";
layers = (
{
hints = (
{
origin = "{0, 5}";
target = "{0, 0}";
type = Cap;
name = _cap.punction.2;
},
{
origin = "{0, 2}";
target = "{0, 3}";
type = Cap;
name = _cap.punction.1;
}
);
layerId = "4A3087DE-C6CF-4F86-8B90-A264D0797279";
paths = (
{
closed = 1;
nodes = (
"441 169 LINE",
"441 338 LINE",
"82 338 LINE",
"82 302 LINE",
"403 302 LINE",
"403 169 LINE"
);
}
);
width = 530;
}
);
leftKerningGroup = logicalnot;
rightKerningGroup = logicalnot;
unicode = 00AC;
},
{
glyphname = emptyset;
lastChange = "2017-05-25 15:40:52 +0000";
layers = (
{
layerId = "4A3087DE-C6CF-4F86-8B90-A264D0797279";
paths = (
{
closed = 1;
nodes = (
"761 680 LINE",
"744 697 LINE",
"77 30 LINE",
"94 13 LINE"
);
},
{
closed = 1;
nodes = (
"617 -15 OFFCURVE",
"783 144 OFFCURVE",
"783 355 CURVE SMOOTH",
"783 566 OFFCURVE",
"617 725 OFFCURVE",
"419 725 CURVE SMOOTH",
"221 725 OFFCURVE",
"55 566 OFFCURVE",
"55 355 CURVE SMOOTH",
"55 144 OFFCURVE",
"221 -15 OFFCURVE",
"419 -15 CURVE SMOOTH"
);
},
{
closed = 1;
nodes = (
"234 7 OFFCURVE",
"79 156 OFFCURVE",
"79 355 CURVE SMOOTH",
"79 554 OFFCURVE",
"234 703 OFFCURVE",
"419 703 CURVE SMOOTH",
"604 703 OFFCURVE",
"759 554 OFFCURVE",
"759 355 CURVE SMOOTH",
"759 156 OFFCURVE",
"604 7 OFFCURVE",
"419 7 CURVE SMOOTH"
);
}
);
width = 838;
}
);
leftKerningGroup = emptyset;
rightKerningGroup = emptyset;
unicode = 2205;
},
{
glyphname = infinity;
lastChange = "2017-05-25 15:40:52 +0000";
layers = (
{
layerId = "4A3087DE-C6CF-4F86-8B90-A264D0797279";
paths = (
{
closed = 1;
nodes = (
"405 230 CURVE",
"468 117 OFFCURVE",
"539 79 OFFCURVE",
"615 79 CURVE SMOOTH",
"711 79 OFFCURVE",
"812 157 OFFCURVE",
"812 280 CURVE SMOOTH",
"812 376 OFFCURVE",
"757 457 OFFCURVE",
"649 457 CURVE SMOOTH",
"573 457 OFFCURVE",
"502 422 OFFCURVE",
"423 289 CURVE",
"446 256 LINE",
"496 364 OFFCURVE",
"558 413 OFFCURVE",
"621 413 CURVE SMOOTH",
"703 413 OFFCURVE",
"770 347 OFFCURVE",
"770 256 CURVE SMOOTH",
"770 178 OFFCURVE",
"717 129 OFFCURVE",
"653 129 CURVE SMOOTH",
"588 129 OFFCURVE",
"529 162 OFFCURVE",
"457 306 CURVE",
"394 419 OFFCURVE",
"303 457 OFFCURVE",
"237 457 CURVE SMOOTH",
"130 457 OFFCURVE",
"40 358 OFFCURVE",
"40 252 CURVE SMOOTH",
"40 140 OFFCURVE",
"109 79 OFFCURVE",
"207 79 CURVE SMOOTH",
"283 79 OFFCURVE",
"362 113 OFFCURVE",
"441 246 CURVE",
"418 274 LINE",
"367 170 OFFCURVE",
"303 122 OFFCURVE",
"231 122 CURVE SMOOTH",
"151 122 OFFCURVE",
"76 189 OFFCURVE",
"76 270 CURVE SMOOTH",
"76 346 OFFCURVE",
"135 405 OFFCURVE",
"207 405 CURVE SMOOTH",
"273 405 OFFCURVE",
"329 375 OFFCURVE"
);
}
);
width = 852;
}
);
leftKerningGroup = infinity;
rightKerningGroup = infinity;
unicode = 221E;
},
{
glyphname = integral;
lastChange = "2017-05-25 15:40:52 +0000";
layers = (
{
layerId = "4A3087DE-C6CF-4F86-8B90-A264D0797279";
paths = (
{
closed = 1;
nodes = (
"147 -134 OFFCURVE",
"166 -105 OFFCURVE",
"173 20 CURVE SMOOTH",
"206 579 LINE SMOOTH",
"213 697 OFFCURVE",
"272 764 OFFCURVE",
"341 764 CURVE SMOOTH",
"379 764 OFFCURVE",
"413 741 OFFCURVE",
"413 703 CURVE SMOOTH",
"413 693 OFFCURVE",
"408 685 OFFCURVE",
"383 659 CURVE",
"368 659 LINE",
"368 707 OFFCURVE",
"352 738 OFFCURVE",
"326 738 CURVE SMOOTH",
"292 738 OFFCURVE",
"280 700 OFFCURVE",
"276 619 CURVE SMOOTH",
"247 95 LINE SMOOTH",
"237 -86 OFFCURVE",
"177 -160 OFFCURVE",
"97 -160 CURVE SMOOTH",
"54 -160 OFFCURVE",
"30 -129 OFFCURVE",
"30 -99 CURVE SMOOTH",
"30 -91 OFFCURVE",
"35 -83 OFFCURVE",
"61 -55 CURVE",
"76 -55 LINE",
"76 -106 OFFCURVE",
"93 -134 OFFCURVE",
"121 -134 CURVE SMOOTH"
);
}
);
width = 443;
}
);
leftKerningGroup = integral;
rightKerningGroup = integral;
unicode = 222B;
},
{
glyphname = product;
lastChange = "2017-05-25 15:40:52 +0000";
layers = (
{
hints = (
{
origin = "{1, 3}";
type = Corner;
name = _corner.STM.btm.1;
},
{
origin = "{0, 3}";
type = Corner;
name = _corner.STM.btm.1;
},
{
origin = "{1, 0}";
scale = "{-1, 1}";
type = Corner;
name = _corner.STM.btm.1;
},
{
origin = "{0, 0}";
scale = "{-1, 1}";
type = Corner;
name = _corner.STM.btm.1;
}
);
layerId = "4A3087DE-C6CF-4F86-8B90-A264D0797279";
paths = (
{
closed = 1;
nodes = (
"532 -210 LINE",
"532 737 LINE",
"466 737 LINE",
"466 -210 LINE"
);
},
{
closed = 1;
nodes = (
"212 -210 LINE",
"212 737 LINE",
"146 737 LINE",
"146 -210 LINE"
);
},
{
closed = 1;
nodes = (
"619 703 LINE",
"623 737 LINE",
"55 737 LINE",
"51 703 LINE"
);
}
);
width = 674;
}
);
leftKerningGroup = product;
rightKerningGroup = product;
unicode = 220F;
},
{
glyphname = summation;
lastChange = "2017-05-25 15:40:52 +0000";
layers = (
{
layerId = "4A3087DE-C6CF-4F86-8B90-A264D0797279";
paths = (
{
closed = 1;
nodes = (
"267 737 LINE SMOOTH",
"198 737 OFFCURVE",
"138 737 OFFCURVE",
"89 739 CURVE",
"87 724 LINE",
"148 581 OFFCURVE",
"204 437 OFFCURVE",
"245 322 CURVE",
"241 353 LINE",
"183 215 OFFCURVE",
"117 79 OFFCURVE",
"43 -57 CURVE",
"44 -72 LINE",
"93 -70 OFFCURVE",
"149 -70 OFFCURVE",
"200 -70 CURVE SMOOTH",
"377 -70 LINE SMOOTH",
"420 -70 OFFCURVE",
"462 -70 OFFCURVE",
"505 -72 CURVE SMOOTH",
"523 -73 OFFCURVE",
"531 -71 OFFCURVE",
"535 -63 CURVE SMOOTH",
"582 45 LINE",
"559 55 LINE",
"547 37 LINE SMOOTH",
"522 -1 OFFCURVE",
"495 -10 OFFCURVE",
"432 -10 CURVE SMOOTH",
"239 -10 LINE SMOOTH",
"192 -10 OFFCURVE",
"145 -9 OFFCURVE",
"98 -7 CURVE",
"102 -37 LINE",
"164 107 OFFCURVE",
"233 250 OFFCURVE",
"309 392 CURVE",
"303 341 LINE",
"249 467 OFFCURVE",
"201 593 OFFCURVE",
"157 719 CURVE",
"138 701 LINE",
"177 703 OFFCURVE",
"218 703 OFFCURVE",
"264 703 CURVE SMOOTH",
"337 703 LINE SMOOTH",
"413 703 OFFCURVE",
"447 695 OFFCURVE",
"470 661 CURVE SMOOTH",
"483 642 LINE",
"509 648 LINE",
"486 734 LINE SMOOTH",
"485 739 OFFCURVE",
"475 741 OFFCURVE",
"457 740 CURVE SMOOTH",
"407 737 OFFCURVE",
"368 737 OFFCURVE",
"319 737 CURVE SMOOTH"
);
}
);
width = 620;
}
);
leftKerningGroup = summation;
rightKerningGroup = summation;
unicode = 2211;
},
{
glyphname = radical;
lastChange = "2017-05-25 15:40:52 +0000";
layers = (
{
layerId = "4A3087DE-C6CF-4F86-8B90-A264D0797279";
paths = (
{
closed = 1;
nodes = (
"476 687 OFFCURVE",
"447 575 OFFCURVE",
"416 462 CURVE SMOOTH",
"275 -60 LINE",
"292 -59 LINE",
"239 64 OFFCURVE",
"191 184 OFFCURVE",
"149 307 CURVE",
"41 310 LINE",
"41 286 LINE",
"59 285 LINE SMOOTH",
"92 283 OFFCURVE",
"102 261 OFFCURVE",
"261 -160 CURVE",
"283 -160 LINE",
"451 454 LINE SMOOTH",
"484 574 OFFCURVE",
"517 687 OFFCURVE",
"553 800 CURVE",
"502 800 LINE"
);
}
);
width = 500;
}
);
leftKerningGroup = radical;
rightKerningGroup = radical;
unicode = 221A;
},
{
glyphname = partialdiff;
lastChange = "2017-05-25 15:40:52 +0000";
layers = (
{
layerId = "4A3087DE-C6CF-4F86-8B90-A264D0797279";
paths = (
{
closed = 1;
nodes = (
"372 -14 OFFCURVE",
"469 109 OFFCURVE",
"469 243 CURVE SMOOTH",
"469 337 OFFCURVE",
"429 396 OFFCURVE",
"285 537 CURVE SMOOTH",
"212 608 OFFCURVE",
"181 644 OFFCURVE",
"181 675 CURVE SMOOTH",
"181 692 OFFCURVE",
"193 714 OFFCURVE",
"217 728 CURVE",
"200 747 LINE",
"133 711 OFFCURVE",
"106 687 OFFCURVE",
"106 657 CURVE SMOOTH",
"106 625 OFFCURVE",
"136 590 OFFCURVE",
"226 504 CURVE SMOOTH",
"366 370 OFFCURVE",
"401 303 OFFCURVE",
"401 205 CURVE SMOOTH",
"401 125 OFFCURVE",
"363 28 OFFCURVE",
"260 28 CURVE SMOOTH",
"175 28 OFFCURVE",
"118 112 OFFCURVE",
"118 201 CURVE SMOOTH",
"118 312 OFFCURVE",
"225 410 OFFCURVE",
"354 411 CURVE",
"309 446 LINE",
"184 405 OFFCURVE",
"48 323 OFFCURVE",
"48 163 CURVE SMOOTH",
"48 51 OFFCURVE",
"140 -14 OFFCURVE",
"220 -14 CURVE SMOOTH"
);
}
);
width = 511;
}
);
leftKerningGroup = partialdiff;
rightKerningGroup = partialdiff;
unicode = 2202;
},
{
glyphname = percent;
lastChange = "2017-05-25 15:40:52 +0000";
layers = (
{
components = (
{
name = elem.percento;
transform = "{1, 0, 0, 1, 15, 276}";
},
{
name = elem.percento;
transform = "{1, 0, 0, 1, 270, 0}";
}
);
layerId = "4A3087DE-C6CF-4F86-8B90-A264D0797279";
paths = (
{
closed = 1;
nodes = (
"213 158 LINE SMOOTH",
"177 100 OFFCURVE",
"140 43 OFFCURVE",
"101 -14 CURVE",
"151 -14 LINE",
"181 39 OFFCURVE",
"212 91 OFFCURVE",
"245 145 CURVE SMOOTH",
"373 352 LINE SMOOTH",
"409 410 OFFCURVE",
"446 467 OFFCURVE",
"485 524 CURVE",
"435 524 LINE",
"405 471 OFFCURVE",
"374 419 OFFCURVE",
"341 365 CURVE SMOOTH"
);
}
);
width = 577;
}
);
leftKerningGroup = percent;
rightKerningGroup = percent;
unicode = 0025;
},
{
glyphname = percent.tf;
lastChange = "2017-05-25 15:40:52 +0000";
layers = (
{
components = (
{
name = elem.percent.2;
transform = "{1, 0, 0, 1, -244, 370}";
},
{
name = elem.percent.2;
transform = "{1, 0, 0, 1, 60, 0}";
}
);
layerId = "4A3087DE-C6CF-4F86-8B90-A264D0797279";
paths = (
{
closed = 1;
nodes = (
"213 158 LINE SMOOTH",
"176 100 OFFCURVE",
"140 43 OFFCURVE",
"101 -14 CURVE",
"153 -14 LINE",
"183 39 OFFCURVE",
"212 90 OFFCURVE",
"247 145 CURVE SMOOTH",
"465 492 LINE SMOOTH",
"502 550 OFFCURVE",
"538 607 OFFCURVE",
"577 664 CURVE",
"525 664 LINE",
"495 611 OFFCURVE",
"464 558 OFFCURVE",
"431 505 CURVE SMOOTH"
);
}
);
width = 678;
}
);
leftKerningGroup = percent.tf;
rightKerningGroup = percent.tf;
},
{
glyphname = lozenge;
lastChange = "2017-05-25 15:40:52 +0000";
layers = (
{
layerId = "4A3087DE-C6CF-4F86-8B90-A264D0797279";
paths = (
{
closed = 1;
nodes = (
"280 -14 LINE",
"460 325 LINE",
"280 664 LINE",
"100 325 LINE"
);
},
{
closed = 1;
nodes = (
"291 29 LINE",
"140 325 LINE",
"291 621 LINE",
"269 621 LINE",
"420 325 LINE",
"269 29 LINE"
);
}
);
width = 560;
}
);
leftKerningGroup = lozenge;
rightKerningGroup = lozenge;
unicode = 25CA;
},
{
glyphname = at;
lastChange = "2017-05-25 15:40:52 +0000";
layers = (
{
layerId = "4A3087DE-C6CF-4F86-8B90-A264D0797279";
paths = (
{
closed = 1;
nodes = (
"466 324 OFFCURVE",
"441 340 OFFCURVE",
"406 340 CURVE SMOOTH",
"326 340 OFFCURVE",
"227 253 OFFCURVE",
"227 149 CURVE SMOOTH",
"227 94 OFFCURVE",
"250 65 OFFCURVE",
"295 65 CURVE SMOOTH",
"334 65 OFFCURVE",
"386 85 OFFCURVE",
"436 168 CURVE",
"430 170 LINE",
"402 120 OFFCURVE",
"428 76 OFFCURVE",
"499 76 CURVE SMOOTH",
"594 76 OFFCURVE",
"686 157 OFFCURVE",
"686 278 CURVE SMOOTH",
"686 423 OFFCURVE",
"567 530 OFFCURVE",
"408 530 CURVE SMOOTH",
"230 530 OFFCURVE",
"56 386 OFFCURVE",
"56 184 CURVE SMOOTH",
"56 -11 OFFCURVE",
"191 -108 OFFCURVE",
"353 -108 CURVE SMOOTH",
"448 -108 OFFCURVE",
"568 -73 OFFCURVE",
"587 -54 CURVE SMOOTH",
"590 -51 OFFCURVE",
"591 -48 OFFCURVE",
"591 -46 CURVE SMOOTH",
"591 -44 OFFCURVE",
"589 -41 OFFCURVE",
"581 -25 CURVE",
"525 -57 OFFCURVE",
"470 -69 OFFCURVE",
"406 -69 CURVE SMOOTH",
"229 -69 OFFCURVE",
"102 18 OFFCURVE",
"102 207 CURVE SMOOTH",
"102 371 OFFCURVE",
"245 489 OFFCURVE",
"393 489 CURVE SMOOTH",
"539 489 OFFCURVE",
"648 382 OFFCURVE",
"648 259 CURVE SMOOTH",
"648 177 OFFCURVE",
"592 108 OFFCURVE",
"524 108 CURVE SMOOTH",
"494 108 OFFCURVE",
"477 118 OFFCURVE",
"477 146 CURVE SMOOTH",
"477 177 OFFCURVE",
"495 248 OFFCURVE",
"528 352 CURVE",
"523 357 LINE",
"474 352 LINE",
"456 291 LINE",
"470 304 LINE"
);
},
{
closed = 1;
nodes = (
"428 177 OFFCURVE",
"379 111 OFFCURVE",
"328 111 CURVE SMOOTH",
"302 111 OFFCURVE",
"288 128 OFFCURVE",
"288 161 CURVE SMOOTH",
"288 223 OFFCURVE",
"338 310 OFFCURVE",
"410 310 CURVE SMOOTH",
"443 310 OFFCURVE",
"455 296 OFFCURVE",
"444 248 CURVE SMOOTH"
);
}
);
width = 783;
}
);
leftKerningGroup = at;
rightKerningGroup = at;
unicode = 0040;
},
{
glyphname = ampersand;
lastChange = "2017-05-25 15:40:52 +0000";
layers = (
{
layerId = "4A3087DE-C6CF-4F86-8B90-A264D0797279";
paths = (
{
closed = 1;
nodes = (
"367 313 OFFCURVE",
"411 346 OFFCURVE",
"454 346 CURVE SMOOTH",
"521 346 OFFCURVE",
"570 278 OFFCURVE",
"570 209 CURVE SMOOTH",
"570 103 OFFCURVE",
"478 42 OFFCURVE",
"346 42 CURVE SMOOTH",
"216 42 OFFCURVE",
"128 111 OFFCURVE",
"128 210 CURVE SMOOTH",
"128 286 OFFCURVE",
"192 344 OFFCURVE",
"279 344 CURVE SMOOTH",
"281 344 OFFCURVE",
"282 347 OFFCURVE",
"282 372 CURVE",
"208 387 OFFCURVE",
"173 441 OFFCURVE",
"173 507 CURVE SMOOTH",
"173 593 OFFCURVE",
"229 628 OFFCURVE",
"289 628 CURVE SMOOTH",
"358 628 OFFCURVE",
"398 593 OFFCURVE",
"434 497 CURVE",
"455 499 LINE",
"455 560 OFFCURVE",
"451 592 OFFCURVE",
"439 617 CURVE SMOOTH",
"426 645 OFFCURVE",
"399 664 OFFCURVE",
"329 664 CURVE SMOOTH",
"180 664 OFFCURVE",
"105 567 OFFCURVE",
"105 492 CURVE SMOOTH",
"105 412 OFFCURVE",
"165 363 OFFCURVE",
"237 360 CURVE",
"235 369 LINE",
"128 345 OFFCURVE",
"61 269 OFFCURVE",
"61 174 CURVE SMOOTH",
"61 45 OFFCURVE",
"174 -14 OFFCURVE",
"310 -14 CURVE SMOOTH",
"470 -14 OFFCURVE",
"630 97 OFFCURVE",
"630 233 CURVE SMOOTH",
"630 310 OFFCURVE",
"588 355 OFFCURVE",
"526 390 CURVE",
"507 376 LINE",
"556 389 LINE SMOOTH",
"639 411 OFFCURVE",
"706 463 OFFCURVE",
"706 537 CURVE SMOOTH",
"706 602 OFFCURVE",
"651 624 OFFCURVE",
"602 624 CURVE SMOOTH",
"581 624 OFFCURVE",
"557 620 OFFCURVE",
"539 612 CURVE SMOOTH",
"527 607 OFFCURVE",
"521 597 OFFCURVE",
"516 557 CURVE",
"521 553 LINE",
"544 563 OFFCURVE",
"558 566 OFFCURVE",
"579 566 CURVE SMOOTH",
"613 566 OFFCURVE",
"642 545 OFFCURVE",
"642 508 CURVE SMOOTH",
"642 462 OFFCURVE",
"603 426 OFFCURVE",
"519 404 CURVE SMOOTH",
"371 365 OFFCURVE",
"323 327 OFFCURVE",
"323 253 CURVE SMOOTH",
"323 194 OFFCURVE",
"388 164 OFFCURVE",
"449 164 CURVE SMOOTH",
"471 164 OFFCURVE",
"476 171 OFFCURVE",
"482 215 CURVE",
"477 219 LINE",
"416 219 OFFCURVE",
"367 231 OFFCURVE",
"367 274 CURVE SMOOTH"
);
}
);
width = 740;
}
);
leftKerningGroup = ampersand;
rightKerningGroup = ampersand;
unicode = 0026;
},
{
glyphname = paragraph;
lastChange = "2017-05-25 15:40:52 +0000";
layers = (
{
hints = (
{
origin = "{1, 1}";
type = Corner;
name = _corner.STM.btm.1;
},
{
origin = "{1, 5}";
type = Corner;
name = _corner.STM.btm.1;
},
{
origin = "{1, 2}";
scale = "{-1, 1}";
type = Corner;
name = _corner.STM.btm.1;
},
{
origin = "{1, 6}";
scale = "{-1, 1}";
type = Corner;
name = _corner.STM.btm.1;
}
);
layerId = "4A3087DE-C6CF-4F86-8B90-A264D0797279";
paths = (
{
closed = 1;
nodes = (
"129 559 OFFCURVE",
"160 616 OFFCURVE",
"256 616 CURVE SMOOTH",
"296 616 LINE",
"306 650 LINE",
"282 650 LINE SMOOTH",
"264 650 OFFCURVE",
"243 650 OFFCURVE",
"226 649 CURVE SMOOTH",
"118 643 OFFCURVE",
"53 580 OFFCURVE",
"53 465 CURVE SMOOTH",
"53 350 OFFCURVE",
"108 287 OFFCURVE",
"216 281 CURVE SMOOTH",
"233 280 OFFCURVE",
"254 280 OFFCURVE",
"272 280 CURVE SMOOTH",
"298 280 LINE",
"298 314 LINE",
"258 315 LINE SMOOTH",
"185 317 OFFCURVE",
"129 357 OFFCURVE",
"129 463 CURVE SMOOTH"
);
},
{
closed = 1;
nodes = (
"282 650 LINE",
"282 -219 LINE",
"348 -219 LINE",
"348 616 LINE",
"462 616 LINE",
"462 -219 LINE",
"528 -219 LINE",
"528 616 LINE",
"579 616 LINE",
"583 650 LINE"
);
}
);
width = 650;
}
);
leftKerningGroup = paragraph;
rightKerningGroup = paragraph;
unicode = 00B6;
},
{
glyphname = section;
lastChange = "2017-05-25 15:40:52 +0000";
layers = (
{
layerId = "4A3087DE-C6CF-4F86-8B90-A264D0797279";
paths = (
{
closed = 1;
nodes = (
"181 -114 OFFCURVE",
"143 -95 OFFCURVE",
"112 -41 CURVE",
"95 -44 LINE",
"96 -126 OFFCURVE",
"120 -154 OFFCURVE",
"182 -154 CURVE SMOOTH",
"281 -154 OFFCURVE",
"363 -80 OFFCURVE",
"363 3 CURVE SMOOTH",
"363 53 OFFCURVE",
"340 95 OFFCURVE",
"262 142 CURVE SMOOTH",
"169 198 OFFCURVE",
"127 234 OFFCURVE",
"127 281 CURVE SMOOTH",
"127 341 OFFCURVE",
"199 386 OFFCURVE",
"295 387 CURVE",
"251 435 LINE",
"135 393 OFFCURVE",
"84 324 OFFCURVE",
"84 253 CURVE SMOOTH",
"84 182 OFFCURVE",
"133 137 OFFCURVE",
"213 84 CURVE SMOOTH",
"285 36 OFFCURVE",
"310 11 OFFCURVE",
"310 -28 CURVE SMOOTH",
"310 -78 OFFCURVE",
"269 -114 OFFCURVE",
"221 -114 CURVE SMOOTH"
);
},
{
closed = 1;
nodes = (
"245 112 LINE",
"374 160 OFFCURVE",
"417 224 OFFCURVE",
"417 287 CURVE SMOOTH",
"417 341 OFFCURVE",
"384 381 OFFCURVE",
"285 450 CURVE SMOOTH",
"204 507 OFFCURVE",
"189 533 OFFCURVE",
"189 560 CURVE SMOOTH",
"189 588 OFFCURVE",
"211 622 OFFCURVE",
"251 622 CURVE SMOOTH",
"275 622 OFFCURVE",
"315 612 OFFCURVE",
"351 574 CURVE",
"367 579 LINE",
"359 644 OFFCURVE",
"321 664 OFFCURVE",
"284 664 CURVE SMOOTH",
"217 664 OFFCURVE",
"146 601 OFFCURVE",
"146 532 CURVE SMOOTH",
"146 488 OFFCURVE",
"161 447 OFFCURVE",
"248 389 CURVE SMOOTH",
"331 333 OFFCURVE",
"364 304 OFFCURVE",
"364 255 CURVE SMOOTH",
"364 211 OFFCURVE",
"321 156 OFFCURVE",
"207 156 CURVE"
);
}
);
width = 503;
}
);
leftKerningGroup = section;
rightKerningGroup = section;
unicode = 00A7;
},
{
glyphname = copyright;
lastChange = "2017-05-25 21:12:57 +0000";
layers = (
{
layerId = "4A3087DE-C6CF-4F86-8B90-A264D0797279";
paths = (
{
closed = 1;
nodes = (
"504 168 OFFCURVE",
"476 159 OFFCURVE",
"425 159 CURVE SMOOTH",
"338 159 OFFCURVE",
"262 212 OFFCURVE",
"262 346 CURVE SMOOTH",
"262 438 OFFCURVE",
"318 494 OFFCURVE",
"386 494 CURVE SMOOTH",
"447 494 OFFCURVE",
"495 475 OFFCURVE",
"539 402 CURVE",
"551 403 LINE",
"551 439 OFFCURVE",
"550 457 OFFCURVE",
"546 474 CURVE SMOOTH",
"538 510 OFFCURVE",
"491 540 OFFCURVE",
"433 540 CURVE SMOOTH",
"321 540 OFFCURVE",
"209 447 OFFCURVE",
"209 312 CURVE SMOOTH",
"209 183 OFFCURVE",
"298 114 OFFCURVE",
"396 114 CURVE SMOOTH",
"459 114 OFFCURVE",
"518 138 OFFCURVE",
"559 176 CURVE",
"545 197 LINE"
);
},
{
closed = 1;
nodes = (
"210 664 OFFCURVE",
"64 516 OFFCURVE",
"64 325 CURVE",
"102 325 LINE",
"102 496 OFFCURVE",
"224 630 OFFCURVE",
"403 630 CURVE",
"403 664 LINE"
);
},
{
closed = 1;
nodes = (
"403 630 LINE",
"582 630 OFFCURVE",
"704 496 OFFCURVE",
"704 325 CURVE",
"742 325 LINE",
"742 516 OFFCURVE",
"596 664 OFFCURVE",
"403 664 CURVE"
);
},
{
closed = 1;
nodes = (
"403 20 LINE",
"224 20 OFFCURVE",
"102 154 OFFCURVE",
"102 325 CURVE",
"64 325 LINE",
"64 134 OFFCURVE",
"210 -14 OFFCURVE",
"403 -14 CURVE"
);
},
{
closed = 1;
nodes = (
"596 -14 OFFCURVE",
"742 134 OFFCURVE",
"742 325 CURVE",
"704 325 LINE",
"704 154 OFFCURVE",
"582 20 OFFCURVE",
"403 20 CURVE",
"403 -14 LINE"
);
}
);
width = 806;
}
);
leftKerningGroup = copyright;
rightKerningGroup = copyright;
unicode = 00A9;
},
{
glyphname = registered;
lastChange = "2017-05-25 21:13:04 +0000";
layers = (
{
layerId = "4A3087DE-C6CF-4F86-8B90-A264D0797279";
paths = (
{
closed = 1;
nodes = (
"261 494 LINE",
"269 495 OFFCURVE",
"276 495 OFFCURVE",
"284 495 CURVE SMOOTH",
"320 495 OFFCURVE",
"344 484 OFFCURVE",
"344 438 CURVE SMOOTH",
"344 409 OFFCURVE",
"324 383 OFFCURVE",
"282 383 CURVE SMOOTH",
"260 383 LINE",
"260 363 LINE",
"274 363 LINE SMOOTH",
"290 363 OFFCURVE",
"302 362 OFFCURVE",
"313 344 CURVE SMOOTH",
"368 256 LINE SMOOTH",
"380 236 OFFCURVE",
"395 231 OFFCURVE",
"405 231 CURVE SMOOTH",
"411 231 OFFCURVE",
"424 232 OFFCURVE",
"450 232 CURVE",
"452 248 LINE",
"429 249 OFFCURVE",
"422 255 OFFCURVE",
"377 326 CURVE SMOOTH",
"354 362 OFFCURVE",
"328 378 OFFCURVE",
"303 379 CURVE",
"301 369 LINE",
"353 375 OFFCURVE",
"394 405 OFFCURVE",
"394 447 CURVE SMOOTH",
"394 493 OFFCURVE",
"356 518 OFFCURVE",
"298 518 CURVE SMOOTH",
"283 518 OFFCURVE",
"271 517 OFFCURVE",
"245 517 CURVE"
);
},
{
closed = 1;
nodes = (
"311 156 LINE",
"192 156 OFFCURVE",
"100 237 OFFCURVE",
"100 372 CURVE",
"66 372 LINE",
"66 219 OFFCURVE",
"182 126 OFFCURVE",
"311 126 CURVE"
);
},
{
closed = 1;
nodes = (
"226 481 LINE",
"226 303 LINE SMOOTH",
"226 251 OFFCURVE",
"222 248 OFFCURVE",
"196 248 CURVE",
"196 232 LINE",
"218 233 OFFCURVE",
"234 233 OFFCURVE",
"247 233 CURVE",
"247 491 LINE"
);
},
{
closed = 1;
nodes = (
"247 233 LINE",
"260 233 OFFCURVE",
"276 233 OFFCURVE",
"298 232 CURVE",
"298 248 LINE",
"272 248 OFFCURVE",
"268 251 OFFCURVE",
"268 303 CURVE SMOOTH",
"268 511 LINE",
"247 517 LINE"
);
},
{
closed = 1;
nodes = (
"247 517 LINE",
"234 517 OFFCURVE",
"218 517 OFFCURVE",
"196 518 CURVE",
"196 502 LINE",
"222 502 OFFCURVE",
"226 499 OFFCURVE",
"226 447 CURVE SMOOTH",
"226 379 LINE",
"247 379 LINE"
);
},
{
closed = 1;
nodes = (
"440 126 OFFCURVE",
"556 219 OFFCURVE",
"556 372 CURVE",
"522 372 LINE",
"522 237 OFFCURVE",
"430 156 OFFCURVE",
"311 156 CURVE",
"311 126 LINE"
);
},
{
closed = 1;
nodes = (
"182 618 OFFCURVE",
"66 525 OFFCURVE",
"66 372 CURVE",
"100 372 LINE",
"100 507 OFFCURVE",
"192 588 OFFCURVE",
"311 588 CURVE",
"311 618 LINE"
);
},
{
closed = 1;
nodes = (
"311 588 LINE",
"430 588 OFFCURVE",
"522 507 OFFCURVE",
"522 372 CURVE",
"556 372 LINE",
"556 525 OFFCURVE",
"440 618 OFFCURVE",
"311 618 CURVE"
);
}
);
width = 622;
}
);
leftKerningGroup = registered;
rightKerningGroup = registered;
unicode = 00AE;
},
{
glyphname = trademark;
lastChange = "2017-05-25 15:40:52 +0000";
layers = (
{
layerId = "4A3087DE-C6CF-4F86-8B90-A264D0797279";
paths = (
{
closed = 1;
nodes = (
"617 19 OFFCURVE",
"611 47 CURVE SMOOTH",
"596 116 OFFCURVE",
"583 186 OFFCURVE",
"571 259 CURVE",
"550 259 LINE",
"518 190 OFFCURVE",
"485 127 OFFCURVE",
"449 68 CURVE",
"469 68 LINE",
"436 127 OFFCURVE",
"406 190 OFFCURVE",
"377 259 CURVE",
"356 259 LINE",
"344 189 OFFCURVE",
"331 123 OFFCURVE",
"315 57 CURVE SMOOTH",
"305 17 OFFCURVE",
"302 15 OFFCURVE",
"280 15 CURVE",
"280 -1 LINE",
"298 0 OFFCURVE",
"307 0 OFFCURVE",
"319 0 CURVE SMOOTH",
"330 0 OFFCURVE",
"342 0 OFFCURVE",
"360 -1 CURVE",
"360 15 LINE",
"339 15 OFFCURVE",
"335 20 OFFCURVE",
"341 57 CURVE SMOOTH",
"349 108 OFFCURVE",
"360 163 OFFCURVE",
"372 216 CURVE",
"354 206 LINE",
"388 145 OFFCURVE",
"418 81 OFFCURVE",
"446 14 CURVE",
"453 14 LINE",
"484 79 OFFCURVE",
"518 143 OFFCURVE",
"553 204 CURVE",
"534 211 LINE",
"547 163 OFFCURVE",
"558 107 OFFCURVE",
"565 52 CURVE SMOOTH",
"569 19 OFFCURVE",
"568 15 OFFCURVE",
"544 15 CURVE",
"544 -1 LINE",
"561 0 OFFCURVE",
"586 0 OFFCURVE",
"598 0 CURVE SMOOTH",
"612 0 OFFCURVE",
"629 0 OFFCURVE",
"649 -1 CURVE",
"649 15 LINE",
"623 15 OFFCURVE"
);
},
{
closed = 1;
nodes = (
"171 235 LINE",
"171 255 LINE",
"125 255 LINE SMOOTH",
"103 255 OFFCURVE",
"89 255 OFFCURVE",
"63 257 CURVE",
"57 257 OFFCURVE",
"54 257 OFFCURVE",
"53 253 CURVE SMOOTH",
"47 211 LINE",
"56 210 LINE",
"77 232 OFFCURVE",
"85 235 OFFCURVE",
"124 235 CURVE SMOOTH"
);
},
{
closed = 1;
nodes = (
"257 235 OFFCURVE",
"265 232 OFFCURVE",
"286 210 CURVE",
"295 211 LINE",
"289 253 LINE SMOOTH",
"288 257 OFFCURVE",
"285 257 OFFCURVE",
"279 257 CURVE",
"253 255 OFFCURVE",
"239 255 OFFCURVE",
"217 255 CURVE SMOOTH",
"171 255 LINE",
"171 235 LINE",
"218 235 LINE SMOOTH"
);
},
{
closed = 1;
nodes = (
"150 248 LINE",
"150 70 LINE SMOOTH",
"150 18 OFFCURVE",
"146 15 OFFCURVE",
"120 15 CURVE",
"120 -1 LINE",
"142 0 OFFCURVE",
"158 0 OFFCURVE",
"171 0 CURVE",
"171 248 LINE"
);
},
{
closed = 1;
nodes = (
"171 0 LINE",
"184 0 OFFCURVE",
"200 0 OFFCURVE",
"222 -1 CURVE",
"222 15 LINE",
"196 15 OFFCURVE",
"192 18 OFFCURVE",
"192 70 CURVE SMOOTH",
"192 248 LINE",
"171 248 LINE"
);
}
);
width = 689;
}
);
leftKerningGroup = trademark;
rightKerningGroup = trademark;
unicode = 2122;
},
{
glyphname = degree;
lastChange = "2017-05-25 15:40:52 +0000";
layers = (
{
layerId = "4A3087DE-C6CF-4F86-8B90-A264D0797279";
paths = (
{
closed = 1;
nodes = (
"128 670 OFFCURVE",
"83 625 OFFCURVE",
"83 566 CURVE",
"115 566 LINE",
"115 613 OFFCURVE",
"145 646 OFFCURVE",
"186 646 CURVE",
"186 670 LINE"
);
},
{
closed = 1;
nodes = (
"186 646 LINE",
"227 646 OFFCURVE",
"257 613 OFFCURVE",
"257 566 CURVE",
"289 566 LINE",
"289 625 OFFCURVE",
"244 670 OFFCURVE",
"186 670 CURVE"
);
},
{
closed = 1;
nodes = (
"186 486 LINE",
"145 486 OFFCURVE",
"115 519 OFFCURVE",
"115 566 CURVE",
"83 566 LINE",
"83 507 OFFCURVE",
"128 462 OFFCURVE",
"186 462 CURVE"
);
},
{
closed = 1;
nodes = (
"244 462 OFFCURVE",
"289 507 OFFCURVE",
"289 566 CURVE",
"257 566 LINE",
"257 519 OFFCURVE",
"227 486 OFFCURVE",
"186 486 CURVE",
"186 462 LINE"
);
}
);
width = 530;
}
);
leftKerningGroup = degree;
rightKerningGroup = degree;
unicode = 00B0;
},
{
glyphname = bar;
lastChange = "2017-05-25 15:40:52 +0000";
layers = (
{
hints = (
{
origin = "{0, 1}";
target = "{0, 2}";
type = Cap;
name = _cap.punction.2;
},
{
origin = "{0, 3}";
target = "{0, 0}";
type = Cap;
name = _cap.punction.2;
}
);
layerId = "4A3087DE-C6CF-4F86-8B90-A264D0797279";
paths = (
{
closed = 1;
nodes = (
"269 -200 LINE",
"269 800 LINE",
"231 800 LINE",
"231 -200 LINE"
);
}
);
width = 500;
}
);
leftKerningGroup = bar;
rightKerningGroup = bar;
unicode = 007C;
},
{
glyphname = brokenbar;
lastChange = "2017-05-25 15:40:52 +0000";
layers = (
{
hints = (
{
origin = "{1, 3}";
target = "{1, 0}";
type = Cap;
name = _cap.punction.2;
},
{
origin = "{0, 1}";
target = "{0, 2}";
type = Cap;
name = _cap.punction.2;
},
{
origin = "{0, 3}";
target = "{0, 0}";
type = Cap;
name = _cap.punction.2;
},
{
origin = "{1, 1}";
target = "{1, 2}";
type = Cap;
name = _cap.punction.2;
}
);
layerId = "4A3087DE-C6CF-4F86-8B90-A264D0797279";
paths = (
{
closed = 1;
nodes = (
"269 350 LINE",
"269 690 LINE",
"231 690 LINE",
"231 350 LINE"
);
},
{
closed = 1;
nodes = (
"269 -160 LINE",
"269 180 LINE",
"231 180 LINE",
"231 -160 LINE"
);
}
);
width = 500;
}
);
leftKerningGroup = brokenbar;
rightKerningGroup = brokenbar;
unicode = 00A6;
},
{
glyphname = dagger;
lastChange = "2017-05-25 15:40:52 +0000";
layers = (
{
layerId = "4A3087DE-C6CF-4F86-8B90-A264D0797279";
paths = (
{
closed = 1;
nodes = (
"306 -160 LINE",
"295 398 LINE",
"295 428 LINE",
"306 690 LINE",
"244 690 LINE",
"255 428 LINE",
"255 398 LINE",
"244 -160 LINE"
);
},
{
closed = 1;
nodes = (
"256 394 LINE",
"294 394 LINE",
"494 384 LINE",
"494 442 LINE",
"294 432 LINE",
"256 432 LINE",
"56 442 LINE",
"56 384 LINE"
);
}
);
width = 550;
}
);
leftKerningGroup = dagger;
rightKerningGroup = dagger;
unicode = 2020;
},
{
glyphname = daggerdbl;
lastChange = "2017-05-25 15:40:52 +0000";
layers = (
{
layerId = "4A3087DE-C6CF-4F86-8B90-A264D0797279";
paths = (
{
closed = 1;
nodes = (
"306 -160 LINE",
"295 102 LINE",
"295 428 LINE",
"306 690 LINE",
"244 690 LINE",
"255 428 LINE",
"255 102 LINE",
"244 -160 LINE"
);
},
{
closed = 1;
nodes = (
"256 98 LINE",
"294 98 LINE",
"494 88 LINE",
"494 146 LINE",
"294 136 LINE",
"256 136 LINE",
"56 146 LINE",
"56 88 LINE"
);
},
{
closed = 1;
nodes = (
"256 394 LINE",
"294 394 LINE",
"494 384 LINE",
"494 442 LINE",
"294 432 LINE",
"256 432 LINE",
"56 442 LINE",
"56 384 LINE"
);
}
);
width = 550;
}
);
leftKerningGroup = daggerdbl;
rightKerningGroup = daggerdbl;
unicode = 2021;
},
{
glyphname = asciicircum;
lastChange = "2017-05-25 15:40:52 +0000";
layers = (
{
layerId = "4A3087DE-C6CF-4F86-8B90-A264D0797279";
paths = (
{
closed = 1;
nodes = (
"75 191 LINE",
"311 463 LINE",
"287 463 LINE",
"524 192 LINE",
"542 202 LINE",
"304 530 LINE",
"296 530 LINE",
"58 202 LINE"
);
}
);
width = 600;
}
);
leftKerningGroup = asciicircum;
rightKerningGroup = asciicircum;
unicode = 005E;
},
{
glyphname = commaaccentcomb;
lastChange = "2017-05-25 15:40:52 +0000";
layers = (
{
anchors = (
{
name = _bottom;
position = "{151, 0}";
},
{
name = _topright;
position = "{63, -227}";
},
{
name = bottom;
position = "{151, -212}";
}
);
layerId = "4A3087DE-C6CF-4F86-8B90-A264D0797279";
paths = (
{
closed = 1;
nodes = (
"116 -108 OFFCURVE",
"93 -167 OFFCURVE",
"63 -227 CURVE",
"85 -227 LINE",
"108 -200 OFFCURVE",
"129 -169 OFFCURVE",
"147 -137 CURVE SMOOTH",
"164 -107 OFFCURVE",
"178 -78 OFFCURVE",
"186 -48 CURVE",
"128 -58 LINE"
);
}
);
width = 300;
}
);
leftKerningGroup = commaaccentcomb;
rightKerningGroup = commaaccentcomb;
},
{
export = 0;
glyphname = strokeshortcomb;
lastChange = "2017-05-25 15:40:52 +0000";
layers = (
{
anchors = (
{
name = _center;
position = "{132, 200}";
},
{
name = "_center#2";
position = "{172, 200}";
}
);
layerId = "4A3087DE-C6CF-4F86-8B90-A264D0797279";
paths = (
{
closed = 1;
nodes = (
"71 186 OFFCURVE",
"94 186 OFFCURVE",
"114 186 CURVE SMOOTH",
"258 186 LINE",
"260 216 LINE",
"233 214 OFFCURVE",
"210 214 OFFCURVE",
"190 214 CURVE SMOOTH",
"46 214 LINE",
"44 184 LINE"
);
}
);
width = 300;
}
);
leftKerningGroup = strokeshortcomb;
rightKerningGroup = strokeshortcomb;
unicode = 0335;
},
{
export = 0;
glyphname = slashshortcomb;
lastChange = "2017-05-25 15:40:52 +0000";
layers = (
{
anchors = (
{
name = _center;
position = "{149, 450}";
}
);
layerId = "4A3087DE-C6CF-4F86-8B90-A264D0797279";
paths = (
{
closed = 1;
nodes = (
"49 194 LINE",
"70 215 OFFCURVE",
"83 225 OFFCURVE",
"117 251 CURVE SMOOTH",
"247 349 LINE",
"249 394 LINE",
"227 373 OFFCURVE",
"211 360 OFFCURVE",
"187 342 CURVE SMOOTH",
"52 241 LINE"
);
}
);
width = 300;
}
);
leftKerningGroup = slashshortcomb;
rightKerningGroup = slashshortcomb;
unicode = 0337;
},
{
export = 0;
glyphname = strokeshortcomb.case;
lastChange = "2017-05-25 15:40:52 +0000";
layers = (
{
anchors = (
{
name = _center;
position = "{105, 198}";
},
{
name = "_center#2";
position = "{150, 198}";
}
);
layerId = "4A3087DE-C6CF-4F86-8B90-A264D0797279";
paths = (
{
closed = 1;
nodes = (
"60 183 OFFCURVE",
"83 183 OFFCURVE",
"103 183 CURVE SMOOTH",
"260 183 LINE SMOOTH",
"263 183 OFFCURVE",
"267 186 OFFCURVE",
"267 215 CURVE",
"240 213 OFFCURVE",
"217 213 OFFCURVE",
"197 213 CURVE SMOOTH",
"40 213 LINE SMOOTH",
"37 213 OFFCURVE",
"33 207 OFFCURVE",
"33 181 CURVE"
);
}
);
width = 300;
}
);
leftKerningGroup = strokeshortcomb.case;
rightKerningGroup = strokeshortcomb.case;
},
{
export = 0;
glyphname = slashshortcomb.case;
lastChange = "2017-05-25 15:40:52 +0000";
layers = (
{
anchors = (
{
name = _center;
position = "{116, 273}";
}
);
layerId = "4A3087DE-C6CF-4F86-8B90-A264D0797279";
paths = (
{
closed = 1;
nodes = (
"42 197 LINE",
"66 220 OFFCURVE",
"84 235 OFFCURVE",
"118 261 CURVE",
"133 262 LINE",
"245 346 LINE",
"250 393 LINE",
"228 373 OFFCURVE",
"212 360 OFFCURVE",
"188 342 CURVE SMOOTH",
"132 300 LINE",
"126 307 LINE",
"48 245 LINE"
);
}
);
width = 300;
}
);
leftKerningGroup = slashshortcomb.case;
rightKerningGroup = slashshortcomb.case;
},
{
glyphname = acute;
lastChange = "2017-05-25 15:40:52 +0000";
layers = (
{
anchors = (
{
name = _top;
position = "{75, 520}";
}
);
associatedMasterId = "4A3087DE-C6CF-4F86-8B90-A264D0797279";
layerId = "284DCAF7-AB20-402F-AEDF-E1CEEB9773D4";
paths = (
{
closed = 1;
nodes = (
"93 604 LINE",
"218 760 LINE",
"112 760 LINE",
"40 604 LINE"
);
}
);
width = 258;
},
{
anchors = (
{
name = _top;
position = "{108, 520}";
}
);
associatedMasterId = "4A3087DE-C6CF-4F86-8B90-A264D0797279";
layerId = "005AA5DB-9C20-42D5-964E-7DFE1013E61C";
paths = (
{
closed = 1;
nodes = (
"125 604 LINE",
"286 780 LINE",
"112 780 LINE",
"40 604 LINE"
);
}
);
width = 326;
},
{
associatedMasterId = "4A3087DE-C6CF-4F86-8B90-A264D0797279";
layerId = "D3EC50DA-490D-4C50-99CC-6B1C78354A1C";
name = "new Layer";
width = 600;
},
{
anchors = (
{
name = _top;
position = "{150, 450}";
}
);
layerId = "4A3087DE-C6CF-4F86-8B90-A264D0797279";
paths = (
{
closed = 1;
nodes = (
"110 537 LINE SMOOTH",
"117 536 OFFCURVE",
"119 537 OFFCURVE",
"129 549 CURVE SMOOTH",
"258 699 LINE",
"193 699 LINE",
"165 646 OFFCURVE",
"135 593 OFFCURVE",
"102 538 CURVE"
);
}
);
width = 300;
}
);
leftKerningGroup = acute;
rightKerningGroup = acute;
unicode = 00B4;
},
{
glyphname = breve;
lastChange = "2017-05-25 15:40:52 +0000";
layers = (
{
anchors = (
{
name = _top;
position = "{164, 520}";
}
);
associatedMasterId = "4A3087DE-C6CF-4F86-8B90-A264D0797279";
layerId = "284DCAF7-AB20-402F-AEDF-E1CEEB9773D4";
paths = (
{
closed = 1;
nodes = (
"250 584 OFFCURVE",
"297 636 OFFCURVE",
"287 750 CURVE",
"229 750 LINE",
"231 682 OFFCURVE",
"209 654 OFFCURVE",
"164 654 CURVE SMOOTH",
"119 654 OFFCURVE",
"97 682 OFFCURVE",
"99 750 CURVE",
"41 750 LINE",
"31 636 OFFCURVE",
"77 584 OFFCURVE",
"164 584 CURVE SMOOTH"
);
}
);
width = 328;
},
{
anchors = (
{
name = _top;
position = "{181, 520}";
}
);
associatedMasterId = "4A3087DE-C6CF-4F86-8B90-A264D0797279";
layerId = "005AA5DB-9C20-42D5-964E-7DFE1013E61C";
paths = (
{
closed = 1;
nodes = (
"272 584 OFFCURVE",
"334 629 OFFCURVE",
"320 780 CURVE",
"234 780 LINE",
"237 714 OFFCURVE",
"216 690 OFFCURVE",
"181 690 CURVE SMOOTH",
"146 690 OFFCURVE",
"125 714 OFFCURVE",
"128 780 CURVE",
"42 780 LINE",
"28 629 OFFCURVE",
"89 584 OFFCURVE",
"181 584 CURVE SMOOTH"
);
}
);
width = 362;
},
{
associatedMasterId = "4A3087DE-C6CF-4F86-8B90-A264D0797279";
layerId = "D3EC50DA-490D-4C50-99CC-6B1C78354A1C";
name = "new Layer";
width = 600;
},
{
anchors = (
{
name = _top;
position = "{150, 450}";
}
);
layerId = "4A3087DE-C6CF-4F86-8B90-A264D0797279";
paths = (
{
closed = 1;
nodes = (
"150 591 LINE",
"101 591 OFFCURVE",
"56 610 OFFCURVE",
"59 690 CURVE",
"46 690 LINE",
"42 681 OFFCURVE",
"41 670 OFFCURVE",
"41 660 CURVE SMOOTH",
"41 586 OFFCURVE",
"93 543 OFFCURVE",
"150 543 CURVE"
);
},
{
closed = 1;
nodes = (
"207 543 OFFCURVE",
"259 586 OFFCURVE",
"259 660 CURVE SMOOTH",
"259 670 OFFCURVE",
"258 681 OFFCURVE",
"254 690 CURVE",
"241 690 LINE",
"244 610 OFFCURVE",
"199 591 OFFCURVE",
"150 591 CURVE",
"150 543 LINE"
);
}
);
width = 300;
}
);
leftKerningGroup = breve;
rightKerningGroup = breve;
unicode = 02D8;
},
{
glyphname = caron;
lastChange = "2017-05-25 15:40:52 +0000";
layers = (
{
anchors = (
{
name = _top;
position = "{171, 520}";
}
);
associatedMasterId = "4A3087DE-C6CF-4F86-8B90-A264D0797279";
layerId = "284DCAF7-AB20-402F-AEDF-E1CEEB9773D4";
paths = (
{
closed = 1;
nodes = (
"211 604 LINE",
"303 760 LINE",
"243 760 LINE",
"158 639 LINE",
"192 639 LINE",
"107 760 LINE",
"40 760 LINE",
"132 604 LINE"
);
}
);
width = 343;
},
{
anchors = (
{
name = _top;
position = "{202, 520}";
}
);
associatedMasterId = "4A3087DE-C6CF-4F86-8B90-A264D0797279";
layerId = "005AA5DB-9C20-42D5-964E-7DFE1013E61C";
paths = (
{
closed = 1;
nodes = (
"265 604 LINE",
"364 780 LINE",
"273 780 LINE",
"184 672 LINE",
"220 672 LINE",
"141 780 LINE",
"40 780 LINE",
"139 604 LINE"
);
}
);
width = 404;
},
{
associatedMasterId = "4A3087DE-C6CF-4F86-8B90-A264D0797279";
layerId = "D3EC50DA-490D-4C50-99CC-6B1C78354A1C";
name = "new Layer";
width = 600;
},
{
anchors = (
{
name = _top;
position = "{148, 450}";
}
);
layerId = "4A3087DE-C6CF-4F86-8B90-A264D0797279";
paths = (
{
closed = 1;
nodes = (
"248 680 LINE",
"139 591 LINE",
"163 591 LINE",
"54 680 LINE",
"42 672 LINE",
"146 544 LINE",
"154 544 LINE",
"258 672 LINE"
);
}
);
width = 296;
}
);
leftKerningGroup = caron;
rightKerningGroup = caron;
unicode = 02C7;
},
{
glyphname = cedilla;
lastChange = "2017-05-25 15:40:52 +0000";
layers = (
{
anchors = (
{
name = _bottom;
position = "{140, 0}";
}
);
associatedMasterId = "4A3087DE-C6CF-4F86-8B90-A264D0797279";
layerId = "284DCAF7-AB20-402F-AEDF-E1CEEB9773D4";
paths = (
{
closed = 1;
nodes = (
"179 -210 OFFCURVE",
"234 -178 OFFCURVE",
"234 -120 CURVE SMOOTH",
"234 -78 OFFCURVE",
"200 -43 OFFCURVE",
"135 -39 CURVE",
"138 -65 LINE",
"170 9 LINE",
"122 9 LINE",
"82 -84 LINE",
"133 -79 OFFCURVE",
"166 -90 OFFCURVE",
"166 -119 CURVE SMOOTH",
"166 -146 OFFCURVE",
"140 -158 OFFCURVE",
"103 -158 CURVE SMOOTH",
"91 -158 OFFCURVE",
"75 -156 OFFCURVE",
"60 -150 CURVE",
"40 -194 LINE",
"59 -205 OFFCURVE",
"82 -210 OFFCURVE",
"109 -210 CURVE SMOOTH"
);
}
);
width = 274;
},
{
anchors = (
{
name = _bottom;
position = "{157, 0}";
}
);
associatedMasterId = "4A3087DE-C6CF-4F86-8B90-A264D0797279";
layerId = "005AA5DB-9C20-42D5-964E-7DFE1013E61C";
paths = (
{
closed = 1;
nodes = (
"206 -210 OFFCURVE",
"266 -173 OFFCURVE",
"266 -114 CURVE SMOOTH",
"266 -63 OFFCURVE",
"226 -34 OFFCURVE",
"157 -29 CURVE",
"156 -65 LINE",
"202 9 LINE",
"129 9 LINE",
"83 -78 LINE",
"131 -73 OFFCURVE",
"158 -89 OFFCURVE",
"158 -114 CURVE SMOOTH",
"158 -137 OFFCURVE",
"137 -147 OFFCURVE",
"111 -147 CURVE SMOOTH",
"90 -147 OFFCURVE",
"76 -145 OFFCURVE",
"63 -140 CURVE",
"40 -187 LINE",
"63 -202 OFFCURVE",
"95 -210 OFFCURVE",
"133 -210 CURVE SMOOTH"
);
}
);
width = 306;
},
{
associatedMasterId = "4A3087DE-C6CF-4F86-8B90-A264D0797279";
layerId = "D3EC50DA-490D-4C50-99CC-6B1C78354A1C";
name = "new Layer";
width = 600;
},
{
anchors = (
{
name = _bottom;
position = "{146, 0}";
}
);
layerId = "4A3087DE-C6CF-4F86-8B90-A264D0797279";
paths = (
{
closed = 1;
nodes = (
"129 -43 CURVE",
"141 -69 LINE",
"146 -46 OFFCURVE",
"154 -23 OFFCURVE",
"165 0 CURVE",
"130 0 LINE",
"122 -25 OFFCURVE",
"110 -47 OFFCURVE",
"92 -72 CURVE",
"97 -75 LINE",
"162 -72 OFFCURVE",
"186 -96 OFFCURVE",
"186 -134 CURVE SMOOTH",
"186 -170 OFFCURVE",
"158 -188 OFFCURVE",
"123 -188 CURVE SMOOTH",
"100 -188 OFFCURVE",
"86 -185 OFFCURVE",
"69 -177 CURVE",
"60 -200 LINE",
"74 -210 OFFCURVE",
"105 -220 OFFCURVE",
"130 -220 CURVE SMOOTH",
"196 -220 OFFCURVE",
"242 -181 OFFCURVE",
"242 -126 CURVE SMOOTH",
"242 -80 OFFCURVE",
"202 -38 OFFCURVE"
);
}
);
width = 300;
}
);
leftKerningGroup = cedilla;
rightKerningGroup = cedilla;
unicode = 00B8;
},
{
glyphname = circumflex;
lastChange = "2017-05-25 15:40:52 +0000";
layers = (
{
anchors = (
{
name = _top;
position = "{175, 520}";
}
);
associatedMasterId = "4A3087DE-C6CF-4F86-8B90-A264D0797279";
layerId = "284DCAF7-AB20-402F-AEDF-E1CEEB9773D4";
paths = (
{
closed = 1;
nodes = (
"100 604 LINE",
"185 725 LINE",
"151 725 LINE",
"236 604 LINE",
"303 604 LINE",
"211 760 LINE",
"132 760 LINE",
"40 604 LINE"
);
}
);
width = 343;
},
{
anchors = (
{
name = _top;
position = "{202, 520}";
}
);
associatedMasterId = "4A3087DE-C6CF-4F86-8B90-A264D0797279";
layerId = "005AA5DB-9C20-42D5-964E-7DFE1013E61C";
paths = (
{
closed = 1;
nodes = (
"131 604 LINE",
"220 712 LINE",
"184 712 LINE",
"263 604 LINE",
"364 604 LINE",
"265 780 LINE",
"139 780 LINE",
"40 604 LINE"
);
}
);
width = 404;
},
{
associatedMasterId = "4A3087DE-C6CF-4F86-8B90-A264D0797279";
layerId = "D3EC50DA-490D-4C50-99CC-6B1C78354A1C";
name = "new Layer";
width = 600;
},
{
anchors = (
{
name = _top;
position = "{150, 450}";
}
);
layerId = "4A3087DE-C6CF-4F86-8B90-A264D0797279";
paths = (
{
closed = 1;
nodes = (
"52 544 LINE",
"161 633 LINE",
"137 633 LINE",
"246 544 LINE",
"258 552 LINE",
"154 680 LINE",
"146 680 LINE",
"42 552 LINE"
);
}
);
width = 300;
}
);
leftKerningGroup = circumflex;
rightKerningGroup = circumflex;
unicode = 02C6;
},
{
glyphname = dieresis;
lastChange = "2017-05-25 15:40:52 +0000";
layers = (
{
anchors = (
{
name = _top;
position = "{164, 520}";
}
);
associatedMasterId = "4A3087DE-C6CF-4F86-8B90-A264D0797279";
layerId = "284DCAF7-AB20-402F-AEDF-E1CEEB9773D4";
paths = (
{
closed = 1;
nodes = (
"222 630 OFFCURVE",
"266 630 OFFCURVE",
"288 636 CURVE",
"288 717 LINE",
"266 723 OFFCURVE",
"222 723 OFFCURVE",
"200 717 CURVE",
"200 636 LINE"
);
},
{
closed = 1;
nodes = (
"62 630 OFFCURVE",
"106 630 OFFCURVE",
"128 636 CURVE",
"128 717 LINE",
"106 723 OFFCURVE",
"62 723 OFFCURVE",
"40 717 CURVE",
"40 636 LINE"
);
}
);
width = 328;
},
{
anchors = (
{
name = _top;
position = "{245, 520}";
}
);
associatedMasterId = "4A3087DE-C6CF-4F86-8B90-A264D0797279";
layerId = "005AA5DB-9C20-42D5-964E-7DFE1013E61C";
paths = (
{
closed = 1;
nodes = (
"327 595 OFFCURVE",
"408 595 OFFCURVE",
"450 602 CURVE",
"450 756 LINE",
"408 763 OFFCURVE",
"327 763 OFFCURVE",
"285 756 CURVE",
"285 602 LINE"
);
},
{
closed = 1;
nodes = (
"82 595 OFFCURVE",
"163 595 OFFCURVE",
"205 602 CURVE",
"205 756 LINE",
"163 763 OFFCURVE",
"82 763 OFFCURVE",
"40 756 CURVE",
"40 602 LINE"
);
}
);
width = 490;
},
{
associatedMasterId = "4A3087DE-C6CF-4F86-8B90-A264D0797279";
layerId = "D3EC50DA-490D-4C50-99CC-6B1C78354A1C";
name = "new Layer";
width = 600;
},
{
anchors = (
{
name = _top;
position = "{150, 450}";
}
);
layerId = "4A3087DE-C6CF-4F86-8B90-A264D0797279";
paths = (
{
closed = 1;
nodes = (
"110 581 OFFCURVE",
"128 599 OFFCURVE",
"128 621 CURVE SMOOTH",
"128 643 OFFCURVE",
"110 661 OFFCURVE",
"88 661 CURVE SMOOTH",
"66 661 OFFCURVE",
"48 643 OFFCURVE",
"48 621 CURVE SMOOTH",
"48 599 OFFCURVE",
"66 581 OFFCURVE",
"88 581 CURVE SMOOTH"
);
},
{
closed = 1;
nodes = (
"234 581 OFFCURVE",
"252 599 OFFCURVE",
"252 621 CURVE SMOOTH",
"252 643 OFFCURVE",
"234 661 OFFCURVE",
"212 661 CURVE SMOOTH",
"190 661 OFFCURVE",
"172 643 OFFCURVE",
"172 621 CURVE SMOOTH",
"172 599 OFFCURVE",
"190 581 OFFCURVE",
"212 581 CURVE SMOOTH"
);
}
);
width = 300;
}
);
leftKerningGroup = dieresis;
rightKerningGroup = dieresis;
unicode = 00A8;
},
{
glyphname = dotaccent;
lastChange = "2017-05-25 15:40:52 +0000";
layers = (
{
anchors = (
{
name = _top;
position = "{84, 520}";
}
);
associatedMasterId = "4A3087DE-C6CF-4F86-8B90-A264D0797279";
layerId = "284DCAF7-AB20-402F-AEDF-E1CEEB9773D4";
paths = (
{
closed = 1;
nodes = (
"62 630 OFFCURVE",
"106 630 OFFCURVE",
"128 636 CURVE",
"128 717 LINE",
"106 723 OFFCURVE",
"62 723 OFFCURVE",
"40 717 CURVE",
"40 636 LINE"
);
}
);
width = 168;
},
{
anchors = (
{
name = _top;
position = "{130, 520}";
}
);
associatedMasterId = "4A3087DE-C6CF-4F86-8B90-A264D0797279";
layerId = "005AA5DB-9C20-42D5-964E-7DFE1013E61C";
paths = (
{
closed = 1;
nodes = (
"82 595 OFFCURVE",
"178 595 OFFCURVE",
"220 602 CURVE",
"220 756 LINE",
"178 763 OFFCURVE",
"82 763 OFFCURVE",
"40 756 CURVE",
"40 602 LINE"
);
}
);
width = 260;
},
{
associatedMasterId = "4A3087DE-C6CF-4F86-8B90-A264D0797279";
layerId = "D3EC50DA-490D-4C50-99CC-6B1C78354A1C";
name = "new Layer";
width = 600;
},
{
anchors = (
{
name = _top;
position = "{150, 450}";
}
);
layerId = "4A3087DE-C6CF-4F86-8B90-A264D0797279";
paths = (
{
closed = 1;
nodes = (
"172 581 OFFCURVE",
"190 599 OFFCURVE",
"190 621 CURVE SMOOTH",
"190 643 OFFCURVE",
"172 661 OFFCURVE",
"150 661 CURVE SMOOTH",
"128 661 OFFCURVE",
"110 643 OFFCURVE",
"110 621 CURVE SMOOTH",
"110 599 OFFCURVE",
"128 581 OFFCURVE",
"150 581 CURVE SMOOTH"
);
}
);
width = 300;
}
);
leftKerningGroup = dotaccent;
rightKerningGroup = dotaccent;
unicode = 02D9;
},
{
glyphname = grave;
lastChange = "2017-05-25 15:40:52 +0000";
layers = (
{
anchors = (
{
name = _top;
position = "{171, 520}";
}
);
associatedMasterId = "4A3087DE-C6CF-4F86-8B90-A264D0797279";
layerId = "284DCAF7-AB20-402F-AEDF-E1CEEB9773D4";
paths = (
{
closed = 1;
nodes = (
"218 604 LINE",
"146 760 LINE",
"40 760 LINE",
"165 604 LINE"
);
}
);
width = 258;
},
{
anchors = (
{
name = _top;
position = "{233, 520}";
}
);
associatedMasterId = "4A3087DE-C6CF-4F86-8B90-A264D0797279";
layerId = "005AA5DB-9C20-42D5-964E-7DFE1013E61C";
paths = (
{
closed = 1;
nodes = (
"286 604 LINE",
"214 780 LINE",
"40 780 LINE",
"201 604 LINE"
);
}
);
width = 326;
},
{
associatedMasterId = "4A3087DE-C6CF-4F86-8B90-A264D0797279";
layerId = "D3EC50DA-490D-4C50-99CC-6B1C78354A1C";
name = "new Layer";
width = 600;
},
{
anchors = (
{
name = _top;
position = "{150, 450}";
}
);
layerId = "4A3087DE-C6CF-4F86-8B90-A264D0797279";
paths = (
{
closed = 1;
nodes = (
"175 593 OFFCURVE",
"145 646 OFFCURVE",
"117 699 CURVE",
"52 699 LINE",
"181 549 LINE SMOOTH",
"191 537 OFFCURVE",
"193 536 OFFCURVE",
"200 537 CURVE SMOOTH",
"208 538 LINE"
);
}
);
width = 300;
}
);
leftKerningGroup = grave;
rightKerningGroup = grave;
unicode = 0060;
},
{
glyphname = hungarumlaut;
lastChange = "2017-05-25 15:40:52 +0000";
layers = (
{
anchors = (
{
name = _top;
position = "{168, 520}";
}
);
associatedMasterId = "4A3087DE-C6CF-4F86-8B90-A264D0797279";
layerId = "284DCAF7-AB20-402F-AEDF-E1CEEB9773D4";
paths = (
{
closed = 1;
nodes = (
"93 604 LINE",
"218 760 LINE",
"112 760 LINE",
"40 604 LINE"
);
},
{
closed = 1;
nodes = (
"249 604 LINE",
"374 760 LINE",
"268 760 LINE",
"196 604 LINE"
);
}
);
width = 414;
},
{
anchors = (
{
name = _top;
position = "{200, 520}";
}
);
associatedMasterId = "4A3087DE-C6CF-4F86-8B90-A264D0797279";
layerId = "005AA5DB-9C20-42D5-964E-7DFE1013E61C";
paths = (
{
closed = 1;
nodes = (
"125 604 LINE",
"286 780 LINE",
"112 780 LINE",
"40 604 LINE"
);
},
{
closed = 1;
nodes = (
"335 604 LINE",
"496 780 LINE",
"322 780 LINE",
"250 604 LINE"
);
}
);
width = 536;
},
{
associatedMasterId = "4A3087DE-C6CF-4F86-8B90-A264D0797279";
layerId = "D3EC50DA-490D-4C50-99CC-6B1C78354A1C";
name = "new Layer";
width = 600;
},
{
anchors = (
{
name = _top;
position = "{125, 450}";
}
);
layerId = "4A3087DE-C6CF-4F86-8B90-A264D0797279";
paths = (
{
closed = 1;
nodes = (
"21 537 LINE SMOOTH",
"28 536 OFFCURVE",
"30 537 OFFCURVE",
"40 549 CURVE SMOOTH",
"169 699 LINE",
"104 699 LINE",
"76 646 OFFCURVE",
"46 593 OFFCURVE",
"13 538 CURVE"
);
},
{
closed = 1;
nodes = (
"142 537 LINE SMOOTH",
"149 536 OFFCURVE",
"151 537 OFFCURVE",
"161 549 CURVE SMOOTH",
"290 699 LINE",
"225 699 LINE",
"197 646 OFFCURVE",
"167 593 OFFCURVE",
"134 538 CURVE"
);
}
);
width = 300;
}
);
leftKerningGroup = hungarumlaut;
rightKerningGroup = hungarumlaut;
unicode = 02DD;
},
{
glyphname = macron;
lastChange = "2017-05-25 15:40:52 +0000";
layers = (
{
anchors = (
{
name = _top;
position = "{145, 520}";
}
);
associatedMasterId = "4A3087DE-C6CF-4F86-8B90-A264D0797279";
layerId = "284DCAF7-AB20-402F-AEDF-E1CEEB9773D4";
paths = (
{
closed = 1;
nodes = (
"250 646 LINE",
"250 702 LINE",
"40 702 LINE",
"40 646 LINE"
);
}
);
width = 290;
},
{
anchors = (
{
name = _top;
position = "{179, 520}";
}
);
associatedMasterId = "4A3087DE-C6CF-4F86-8B90-A264D0797279";
layerId = "005AA5DB-9C20-42D5-964E-7DFE1013E61C";
paths = (
{
closed = 1;
nodes = (
"318 644 LINE",
"318 740 LINE",
"40 740 LINE",
"40 644 LINE"
);
}
);
width = 358;
},
{
associatedMasterId = "4A3087DE-C6CF-4F86-8B90-A264D0797279";
layerId = "D3EC50DA-490D-4C50-99CC-6B1C78354A1C";
name = "new Layer";
width = 600;
},
{
anchors = (
{
name = _top;
position = "{150, 450}";
}
);
layerId = "4A3087DE-C6CF-4F86-8B90-A264D0797279";
paths = (
{
closed = 1;
nodes = (
"75 585 OFFCURVE",
"98 585 OFFCURVE",
"118 585 CURVE SMOOTH",
"245 585 LINE SMOOTH",
"248 585 OFFCURVE",
"252 587 OFFCURVE",
"252 612 CURVE",
"225 610 OFFCURVE",
"202 610 OFFCURVE",
"182 610 CURVE SMOOTH",
"55 610 LINE SMOOTH",
"52 610 OFFCURVE",
"48 608 OFFCURVE",
"48 583 CURVE"
);
}
);
width = 300;
}
);
leftKerningGroup = macron;
rightKerningGroup = macron;
unicode = 00AF;
},
{
glyphname = ogonek;
lastChange = "2017-05-25 15:40:52 +0000";
layers = (
{
anchors = (
{
name = _ogonek;
position = "{216, 0}";
}
);
associatedMasterId = "4A3087DE-C6CF-4F86-8B90-A264D0797279";
layerId = "284DCAF7-AB20-402F-AEDF-E1CEEB9773D4";
paths = (
{
closed = 1;
nodes = (
"146 -165 OFFCURVE",
"122 -145 OFFCURVE",
"122 -106 CURVE SMOOTH",
"122 -62 OFFCURVE",
"147 -21 OFFCURVE",
"216 0 CURVE",
"132 10 LINE",
"82 -10 OFFCURVE",
"40 -65 OFFCURVE",
"40 -118 CURVE SMOOTH",
"40 -186 OFFCURVE",
"88 -220 OFFCURVE",
"147 -220 CURVE SMOOTH",
"175 -220 OFFCURVE",
"197 -213 OFFCURVE",
"220 -197 CURVE",
"225 -156 LINE",
"209 -162 OFFCURVE",
"194 -165 OFFCURVE",
"181 -165 CURVE SMOOTH"
);
}
);
width = 265;
},
{
anchors = (
{
name = _ogonek;
position = "{295, 0}";
}
);
associatedMasterId = "4A3087DE-C6CF-4F86-8B90-A264D0797279";
layerId = "005AA5DB-9C20-42D5-964E-7DFE1013E61C";
paths = (
{
closed = 1;
nodes = (
"185 -131 OFFCURVE",
"154 -107 OFFCURVE",
"154 -71 CURVE SMOOTH",
"154 -27 OFFCURVE",
"183 0 OFFCURVE",
"246 0 CURVE",
"123 8 LINE",
"64 -11 OFFCURVE",
"40 -60 OFFCURVE",
"40 -109 CURVE SMOOTH",
"40 -188 OFFCURVE",
"98 -220 OFFCURVE",
"160 -220 CURVE SMOOTH",
"219 -220 OFFCURVE",
"250 -212 OFFCURVE",
"285 -195 CURVE",
"290 -123 LINE",
"272 -129 OFFCURVE",
"254 -131 OFFCURVE",
"234 -131 CURVE SMOOTH"
);
}
);
width = 330;
},
{
associatedMasterId = "4A3087DE-C6CF-4F86-8B90-A264D0797279";
layerId = "D3EC50DA-490D-4C50-99CC-6B1C78354A1C";
name = "new Layer";
width = 600;
},
{
anchors = (
{
name = _ogonek;
position = "{232, 0}";
}
);
layerId = "4A3087DE-C6CF-4F86-8B90-A264D0797279";
paths = (
{
closed = 1;
nodes = (
"145 -202 OFFCURVE",
"120 -181 OFFCURVE",
"120 -126 CURVE SMOOTH",
"120 -62 OFFCURVE",
"168 -15 OFFCURVE",
"232 12 CURVE",
"209 19 LINE",
"131 -7 OFFCURVE",
"64 -70 OFFCURVE",
"64 -137 CURVE SMOOTH",
"64 -198 OFFCURVE",
"105 -228 OFFCURVE",
"147 -228 CURVE SMOOTH",
"185 -228 OFFCURVE",
"208 -217 OFFCURVE",
"231 -198 CURVE",
"224 -187 LINE",
"205 -198 OFFCURVE",
"190 -202 OFFCURVE",
"173 -202 CURVE SMOOTH"
);
}
);
width = 300;
}
);
leftKerningGroup = ogonek;
rightKerningGroup = ogonek;
unicode = 02DB;
},
{
glyphname = ring;
lastChange = "2017-05-25 15:40:52 +0000";
layers = (
{
anchors = (
{
name = _top;
position = "{142, 520}";
}
);
associatedMasterId = "4A3087DE-C6CF-4F86-8B90-A264D0797279";
layerId = "284DCAF7-AB20-402F-AEDF-E1CEEB9773D4";
paths = (
{
closed = 1;
nodes = (
"200 580 OFFCURVE",
"244 615 OFFCURVE",
"244 670 CURVE SMOOTH",
"244 725 OFFCURVE",
"200 760 OFFCURVE",
"142 760 CURVE SMOOTH",
"84 760 OFFCURVE",
"40 725 OFFCURVE",
"40 670 CURVE SMOOTH",
"40 615 OFFCURVE",
"84 580 OFFCURVE",
"142 580 CURVE SMOOTH"
);
},
{
closed = 1;
nodes = (
"115 622 OFFCURVE",
"94 639 OFFCURVE",
"94 670 CURVE SMOOTH",
"94 701 OFFCURVE",
"115 718 OFFCURVE",
"142 718 CURVE SMOOTH",
"169 718 OFFCURVE",
"190 701 OFFCURVE",
"190 670 CURVE SMOOTH",
"190 639 OFFCURVE",
"169 622 OFFCURVE",
"142 622 CURVE SMOOTH"
);
}
);
width = 284;
},
{
anchors = (
{
name = _top;
position = "{152, 520}";
}
);
associatedMasterId = "4A3087DE-C6CF-4F86-8B90-A264D0797279";
layerId = "005AA5DB-9C20-42D5-964E-7DFE1013E61C";
paths = (
{
closed = 1;
nodes = (
"219 590 OFFCURVE",
"264 632 OFFCURVE",
"264 692 CURVE SMOOTH",
"264 752 OFFCURVE",
"219 794 OFFCURVE",
"152 794 CURVE SMOOTH",
"85 794 OFFCURVE",
"40 752 OFFCURVE",
"40 692 CURVE SMOOTH",
"40 632 OFFCURVE",
"85 590 OFFCURVE",
"152 590 CURVE SMOOTH"
);
},
{
closed = 1;
nodes = (
"128 645 OFFCURVE",
"112 662 OFFCURVE",
"112 692 CURVE SMOOTH",
"112 721 OFFCURVE",
"128 739 OFFCURVE",
"152 739 CURVE SMOOTH",
"176 739 OFFCURVE",
"192 721 OFFCURVE",
"192 692 CURVE SMOOTH",
"192 662 OFFCURVE",
"176 645 OFFCURVE",
"152 645 CURVE SMOOTH"
);
}
);
width = 304;
},
{
associatedMasterId = "4A3087DE-C6CF-4F86-8B90-A264D0797279";
layerId = "D3EC50DA-490D-4C50-99CC-6B1C78354A1C";
name = "new Layer";
width = 600;
},
{
anchors = (
{
name = _top;
position = "{150, 450}";
}
);
layerId = "4A3087DE-C6CF-4F86-8B90-A264D0797279";
paths = (
{
closed = 1;
nodes = (
"205 525 OFFCURVE",
"250 561 OFFCURVE",
"250 610 CURVE SMOOTH",
"250 659 OFFCURVE",
"205 695 OFFCURVE",
"150 695 CURVE SMOOTH",
"94 695 OFFCURVE",
"50 659 OFFCURVE",
"50 610 CURVE SMOOTH",
"50 561 OFFCURVE",
"94 525 OFFCURVE",
"150 525 CURVE SMOOTH"
);
},
{
closed = 1;
nodes = (
"113 548 OFFCURVE",
"87 572 OFFCURVE",
"87 610 CURVE SMOOTH",
"87 648 OFFCURVE",
"113 672 OFFCURVE",
"150 672 CURVE SMOOTH",
"186 672 OFFCURVE",
"213 648 OFFCURVE",
"213 610 CURVE SMOOTH",
"213 572 OFFCURVE",
"186 548 OFFCURVE",
"150 548 CURVE SMOOTH"
);
}
);
width = 300;
}
);
leftKerningGroup = ring;
rightKerningGroup = ring;
unicode = 02DA;
},
